<?xml version="1.0" encoding="utf-8"?>
<!-- Generator: Adobe Illustrator 24.3.0, SVG Export Plug-In . SVG Version: 6.00 Build 0)  -->
<svg version="1.1" id="Layer_1" xmlns="http://www.w3.org/2000/svg" xmlns:xlink="http://www.w3.org/1999/xlink" x="0px" y="0px"
	 viewBox="0 0 70.23 26" style="enable-background:new 0 0 70.23 26;" xml:space="preserve">
<style type="text/css">
	.st0{fill:#375A64;}
	.st1{fill:#FFFFFF;}
</style>
<rect y="0" class="st0" width="70.23" height="26"/>
<g>
	<path class="st1" d="M34.31,6.87l4.52,9.35c0.19,0.38,0.29,0.66,0.29,0.85c0,0.4-0.32,0.76-0.97,1.09
		c-0.38,0.19-0.68,0.29-0.9,0.29s-0.4-0.05-0.54-0.15s-0.24-0.21-0.3-0.32c-0.06-0.11-0.15-0.28-0.26-0.5l-0.87-1.81h-4.64
		l-0.87,1.81c-0.11,0.22-0.2,0.38-0.26,0.49s-0.16,0.2-0.3,0.31c-0.14,0.11-0.32,0.16-0.54,0.16c-0.22,0-0.52-0.1-0.9-0.29
		c-0.65-0.31-0.97-0.67-0.97-1.07c0-0.19,0.09-0.47,0.28-0.85l4.52-9.37c0.12-0.26,0.31-0.46,0.56-0.62C32.43,6.08,32.69,6,32.97,6
		C33.58,6,34.02,6.29,34.31,6.87z M32.96,10.89l-1.11,2.3h2.23L32.96,10.89z"/>
	<path class="st1" d="M40.04,7.48c0-0.26,0.01-0.45,0.03-0.58c0.02-0.13,0.07-0.28,0.16-0.44C40.39,6.15,40.82,6,41.54,6
		c0.78,0,1.25,0.21,1.39,0.62c0.06,0.19,0.08,0.48,0.08,0.87v9.32c0,0.27-0.01,0.46-0.02,0.59s-0.07,0.27-0.16,0.44
		c-0.16,0.3-0.59,0.45-1.31,0.45c-0.78,0-1.24-0.21-1.37-0.64c-0.07-0.18-0.1-0.46-0.1-0.85V7.48z"/>
</g>
</svg>
