<?xml version="1.0" encoding="utf-8"?>
<!-- Generator: Adobe Illustrator 24.3.0, SVG Export Plug-In . SVG Version: 6.00 Build 0)  -->
<svg version="1.1" id="Layer_1" xmlns="http://www.w3.org/2000/svg" xmlns:xlink="http://www.w3.org/1999/xlink" x="0px" y="0px"
	 viewBox="0 0 70.23 26" style="enable-background:new 0 0 70.23 26;" xml:space="preserve">
<style type="text/css">
	.st0{fill:#375A64;}
	.st1{fill:#FFFFFF;}
</style>
<g>
	<rect x="-0.07" y="0.02" class="st0" width="70.23" height="26"/>
	<g>
		<path class="st1" d="M19.47,12.82c0,0.76,0.25,1.35,0.75,1.77c0.5,0.42,1.03,0.63,1.59,0.63c0.56,0,1.09-0.17,1.58-0.5
			c0.49-0.33,0.89-0.5,1.19-0.5c0.54,0,1.19,0.47,1.96,1.42c0.41,0.52,0.62,0.98,0.62,1.39c0,0.68-0.49,1.31-1.47,1.9
			c-1.02,0.72-2.27,1.07-3.75,1.07c-1.66,0-3.26-0.6-4.8-1.8c-0.73-0.57-1.33-1.33-1.8-2.29c-0.46-0.96-0.7-2.01-0.7-3.16
			c0-1.15,0.23-2.2,0.7-3.14c0.46-0.94,1.06-1.69,1.8-2.27c1.48-1.18,3.06-1.77,4.75-1.77c0.68,0,1.34,0.09,1.98,0.28
			c0.64,0.19,1.12,0.37,1.42,0.55l0.43,0.27c0.32,0.21,0.57,0.38,0.75,0.51c0.46,0.36,0.7,0.76,0.7,1.22c0,0.46-0.19,0.97-0.56,1.54
			c-0.64,0.98-1.26,1.47-1.85,1.47c-0.34,0-0.82-0.2-1.45-0.59c-0.32-0.3-0.78-0.46-1.38-0.46c-0.6,0-1.16,0.21-1.68,0.64
			C19.73,11.46,19.47,12.06,19.47,12.82z"/>
		<path class="st1" d="M28.75,18.62c-0.34-0.21-0.51-0.55-0.51-1.02s0.34-1.17,1.02-2.12c0.2-0.3,0.51-0.46,0.95-0.46
			c0.44,0,1.03,0.22,1.78,0.66c0.75,0.44,1.43,0.66,2.04,0.66c1.09,0,1.64-0.21,1.64-0.64c0-0.34-0.6-0.59-1.8-0.75
			c-1.13-0.16-2.24-0.58-3.35-1.26c-0.52-0.32-0.95-0.83-1.29-1.51c-0.34-0.69-0.51-1.5-0.51-2.45c0-2.82,1.94-4.24,5.82-4.24
			c1.27,0,2.57,0.3,3.91,0.91c0.63,0.29,0.94,0.64,0.94,1.07s-0.2,0.96-0.59,1.58C38.4,9.67,38,9.99,37.59,9.99
			c-0.21,0-0.61-0.13-1.19-0.4c-0.58-0.27-1.21-0.4-1.89-0.4c-1.05,0-1.58,0.2-1.58,0.59c0,0.54,0.61,0.88,1.82,1.05
			c1.18,0.13,2.32,0.46,3.43,1.02c0.52,0.25,0.95,0.68,1.3,1.3c0.35,0.62,0.52,1.39,0.52,2.32c0,0.93-0.17,1.72-0.52,2.37
			c-0.35,0.65-0.83,1.14-1.46,1.46c-1.14,0.55-2.58,0.83-4.3,0.83C31.99,20.12,30.34,19.62,28.75,18.62z"/>
		<path class="st1" d="M41.85,18.62c-0.34-0.21-0.51-0.55-0.51-1.02s0.34-1.17,1.02-2.12c0.2-0.3,0.51-0.46,0.95-0.46
			c0.44,0,1.03,0.22,1.78,0.66c0.75,0.44,1.43,0.66,2.04,0.66c1.09,0,1.64-0.21,1.64-0.64c0-0.34-0.6-0.59-1.8-0.75
			c-1.13-0.16-2.24-0.58-3.35-1.26c-0.52-0.32-0.95-0.83-1.29-1.51c-0.34-0.69-0.51-1.5-0.51-2.45c0-2.82,1.94-4.24,5.82-4.24
			c1.27,0,2.57,0.3,3.91,0.91c0.63,0.29,0.94,0.64,0.94,1.07s-0.2,0.96-0.59,1.58c-0.39,0.63-0.79,0.94-1.21,0.94
			c-0.21,0-0.61-0.13-1.19-0.4c-0.58-0.27-1.21-0.4-1.89-0.4c-1.05,0-1.58,0.2-1.58,0.59c0,0.54,0.61,0.88,1.82,1.05
			c1.18,0.13,2.32,0.46,3.43,1.02c0.52,0.25,0.95,0.68,1.3,1.3c0.35,0.62,0.52,1.39,0.52,2.32c0,0.93-0.17,1.72-0.52,2.37
			c-0.35,0.65-0.83,1.14-1.46,1.46c-1.14,0.55-2.58,0.83-4.3,0.83C45.1,20.12,43.44,19.62,41.85,18.62z"/>
	</g>
</g>
</svg>
