<?xml version="1.0" encoding="utf-8"?>
<!-- Generator: Adobe Illustrator 24.3.0, SVG Export Plug-In . SVG Version: 6.00 Build 0)  -->
<svg version="1.1" id="Layer_1" xmlns="http://www.w3.org/2000/svg" xmlns:xlink="http://www.w3.org/1999/xlink" x="0px" y="0px"
	 viewBox="0 0 500 303.38" style="enable-background:new 0 0 500 303.38;" xml:space="preserve">
<style type="text/css">
	.st0{fill:#E4EBF7;}
	.st1{fill:#FFFFFF;}
	.st2{fill:#4E8FB7;}
	.st3{fill:#70B2DD;}
	.st4{fill:#ABDAF7;}
	.st5{fill:#F49187;}
	.st6{fill:url(#SVGID_1_);}
	.st7{opacity:0.5;fill:#F6613A;}
	.st8{fill:#FEB19E;}
	.st9{fill:#FF856A;}
	.st10{fill:url(#SVGID_2_);}
	.st11{fill:#FFC7AE;}
	.st12{fill:#525559;}
	.st13{fill:#FFFFFF;stroke:#F230DB;stroke-width:1.9355;stroke-miterlimit:10;}
	.st14{fill:#90C6E0;}
	.st15{opacity:0.35;fill:#90C6E0;}
	.st16{opacity:0.35;fill:#70B2DD;}
</style>
<g>
	<g>
		<path class="st0" d="M495.89,211.83c-0.14,0.77-0.27,1.53-0.41,2.28c-9.74,54.74-38.23,78.79-38.23,78.79H29.8
			c0,0-26.15-48.06-14.65-90c0.17-0.64,0.35-1.28,0.54-1.9c7.57-24.97,28.92-47.46,77.69-55.92c10.49-1.82,20.15-3.56,29.05-5.23
			c1.26-0.25,2.48-0.48,3.7-0.72c30.95-5.92,52.53-11.21,68.94-17.25c0,0,0,0,0.02,0c1.2-0.45,2.38-0.91,3.54-1.35
			c33.35-13.12,44.75-30.17,74.63-64.82c2.32-2.69,4.8-5.32,7.43-7.92c0.58-0.58,1.16-1.14,1.76-1.68
			c16.12-15.33,37.53-28.55,60.6-36.19c0.62-0.21,1.24-0.43,1.86-0.62c29.56-9.37,61.67-9.5,88.82,6.89
			c1.03,0.62,2.05,1.26,3.08,1.94c21.5,14.19,39.62,39.25,50.44,78.95C500.18,144.57,500.72,182.49,495.89,211.83z"/>
		<g>
			<path class="st1" d="M452.82,106.85c-6.15,31.03-27.31,55.97-62.87,74.19c-69.87,35.75-97.68,80.48-108.68,111.87h-2.03
				c0.02-0.06,0.04-0.12,0.06-0.17c11.01-31.76,39-77.21,109.76-113.42c35.01-17.92,55.82-42.43,61.86-72.83
				c6.21-31.36-4.32-64.24-17.19-90.27c1.03,0.62,2.05,1.26,3.08,1.94C449.2,44,458.9,76.13,452.82,106.85z"/>
			<path class="st1" d="M495.89,211.83c-0.14,0.77-0.27,1.53-0.41,2.28c-25.03,11.52-56.94,23.88-97.38,36.19
				c-32.01,9.74-54.48,24.02-67.07,42.6h-2.32c12.68-19.49,35.75-34.39,68.83-44.46C438.57,235.96,470.76,223.44,495.89,211.83z"/>
			<path class="st1" d="M347.51,41c-0.02,33.74-9.93,79.67-56.94,107.01c-19.92,11.59-42.29,15.95-64.7,15.95
				c-30.43,0-60.91-8.03-85.41-16.99c-6.21-2.26-12.25-4.66-18.02-7.1c1.26-0.25,2.48-0.48,3.7-0.72
				c48.41,19.96,113.92,36.02,163.47,7.2c46.22-26.88,55.96-72.14,55.97-105.35c0-11.17-1.05-21.76-2.52-31.06
				c0.62-0.21,1.24-0.43,1.86-0.62C346.43,18.8,347.51,29.6,347.51,41z"/>
			<path class="st1" d="M277.56,106.36c-9.43,12.45-26.11,18.68-49.84,18.68c-9.7,0-20.59-1.05-32.63-3.14
				c1.2-0.45,2.38-0.91,3.54-1.35c38.92,6.25,64.9,1.12,77.38-15.35c11.19-14.73,9.97-36.66,4.68-57.39
				c0.58-0.58,1.16-1.14,1.76-1.68C288.09,67.57,289.5,90.63,277.56,106.36z"/>
			<path class="st1" d="M244.48,292.91h-1.99c-4.1-16.2-11.71-33.7-25.59-47.9c-22.74-23.28-57.27-33.02-102.62-28.9
				c-41.52,3.75-74.73-0.68-99.14-13.2c0.17-0.64,0.35-1.28,0.54-1.9c24.12,12.48,57.08,16.9,98.42,13.16
				c45.99-4.16,81.02,5.77,104.19,29.5C232.58,258.3,240.34,276.3,244.48,292.91z"/>
		</g>
	</g>
	<g>
		<path class="st2" d="M78.15,274.67c0,0,11.13-24.92-14.52-44.27s-31.45-33.39-31.45-33.39s-8.66,45.45,7.02,67.02v31.21h37.96
			L78.15,274.67z"/>
		<path class="st3" d="M55.2,293.54c0,0-1.26-17.42,16.09-29.08c17.34-11.66,17.09-23.42,17.09-23.42s13.32,33.36-3.52,52.5H55.2z"
			/>
		<path class="st4" d="M59.05,293.54c0,0,2.68-23.47-19.22-36.05c-21.9-12.58-26.5-28.79-26.5-28.79s-12.1,40.89,7.74,64.84H59.05z"
			/>
	</g>
	<g>
		<g>
			<g>
				<path class="st5" d="M194.76,246.61c-6.75,11.26-15.62,21.99-26.34,32.25v11.7h26.17c0,0,8.27-4.45,24.83-17.11
					C219.42,273.45,224.85,237.25,194.76,246.61z"/>
				<path class="st5" d="M359.28,268.87c0,0-1.22,23.23-7.03,24.68c-5.81,1.45-29.6-20.09-29.6-20.09l-2.71-10.28l17.63-12.86
					C337.57,250.32,358.56,256.77,359.28,268.87z"/>
			</g>
			<g>
				<linearGradient id="SVGID_1_" gradientUnits="userSpaceOnUse" x1="283.9868" y1="278.9909" x2="266.5672" y2="173.1834">
					<stop  offset="0" style="stop-color:#F79239"/>
					<stop  offset="1" style="stop-color:#F7C759"/>
				</linearGradient>
				<path class="st6" d="M359.28,268.87c-5.57-10.65-39.93-2.9-39.93-2.9l24.45,24.6H233.93c3.64-12.66,1.47-43.47,1.47-43.47
					c-0.02,0.23-0.06,0.45-0.1,0.68c-1.61,12.37-8.15,18.91-8.15,18.91c-0.46,6.31-7.74,6.77-7.74,6.77
					c-0.66-5.81-1.99-10.37-3.74-13.95c-7.14-14.77-20.92-12.89-20.92-12.89c-1.47-7.74,6.77-9.68,6.77-9.68
					s10.14-59.03,24.91-70.65c14.77-11.61,38.85-17.42,38.85-17.42l24.79-1.68c0,0,48.62,9.68,58.3,26.36
					c9.68,16.68,7.99,79.84,7.99,79.84C364.12,259.67,359.28,268.87,359.28,268.87z"/>
				<path class="st7" d="M319.35,265.96c0,0,4.11-35.81-9.19-67.02c0,0,2.18,47.42-17.18,60.73
					c-19.36,13.31-52.26,10.65-60.48,33.87l72.58-0.65L319.35,265.96z"/>
				<path class="st7" d="M235.31,247.77c-1.61,12.37-8.15,18.91-8.15,18.91c-0.46,6.31-7.74,6.77-7.74,6.77
					c-0.66-5.81-1.99-10.37-3.74-13.95c3.85-3.72,8.23-9.46,10.76-17.88c5.13-16.96,1.86-35.38,1.63-36.7
					C232.25,220.77,234.53,240.22,235.31,247.77z"/>
			</g>
		</g>
		<path class="st8" d="M287.9,278.3c0,0,27.34-19.11,50.56-11.37s21.29,23.71,13.79,26.61h-57.9L287.9,278.3z"/>
		<g>
			<path class="st8" d="M295.19,148.05c0,0-5.69,31.94-22.63,32.11c-14.79,0.14-11.36-19.26-10.26-24.19
				c0.15-0.74,0.27-1.14,0.27-1.14l-6.14-23.38l32.57-17.25l0.66,3.58v0.06L295.19,148.05z"/>
			<path class="st9" d="M262.31,155.97c0.15-0.74,0.27-1.14,0.27-1.14l-6.14-23.38l32.57-17.25l0.66,3.58v0.06
				C293.95,155.97,262.91,155.97,262.31,155.97z"/>
			<linearGradient id="SVGID_2_" gradientUnits="userSpaceOnUse" x1="217.0135" y1="84.6705" x2="298.8551" y2="84.6705">
				<stop  offset="0" style="stop-color:#3F2323"/>
				<stop  offset="1" style="stop-color:#5E3434"/>
			</linearGradient>
			<path class="st10" d="M293.34,102.78c0,0,4.27-8.15,5.32-18.99c0.97-9.92-1.81-12.22-5.93-12.22c0,0-2.18-11.25-7.38-15.12
				c-5.2-3.87-26.37,1.81-34.48,6.65c-8.1,4.84-14.03-8.49-17.78-7.93c-3.75,0.56-4.48,10.84-1.57,15.43c0,0-6.77-3.75-7.86-7.62
				c-1.09-3.87-8.83,3.15-6.05,17.54c2.78,14.4,9.19,16.21,9.19,16.21s1.21,15.24,13.67,16.94c12.46,1.69,45.36-1.21,45.36-1.21
				L293.34,102.78z"/>
			<path class="st8" d="M235.4,97.33c0,0,6.05,41.37,21.29,46.69c15.24,5.32,27.98-10.95,29.92-15.3
				c1.94-4.35,2.75-13.48,2.75-13.48s5.19,1.21,5.8-7.99c0.6-9.19-7.38-14.64-9.31,1.21c0,0-7.46-4.11-5.2-18.15
				c0,0-8.55,8.06-20.48,8.06c-11.94,0-1.61-8.06-1.61-8.06S249.99,98.22,235.4,97.33z"/>
		</g>
		<g>
			<g>
				<rect x="231.28" y="288.22" class="st4" width="99.36" height="5.32"/>
				<rect x="299.99" y="288.22" class="st3" width="30.65" height="5.32"/>
				<path class="st11" d="M313.86,288.38c0,0-8.79-13.11-21.97-12.9c-9.97,0.16-10.34,6.45-10.34,6.45s-6.55-0.78-6.72,6.45H313.86z
					"/>
			</g>
			<g>
				<path class="st8" d="M190.31,287.58c0,0,0.48-7.26-2.74-8.23c-3.23-0.97-5.65,1.77-5.65,1.77s-2.42-10.65-11.45-10.97
					c-9.03-0.32-25.32,8.87-15.32,17.42H190.31z"/>
				<path class="st3" d="M213.53,290.56c0,1.65-1.34,2.98-2.98,2.98H156.2c-1.65,0-2.98-1.34-2.98-2.98s1.34-2.98,2.98-2.98h54.35
					C212.2,287.58,213.53,288.92,213.53,290.56z"/>
				<path class="st4" d="M197.41,290.56c0,1.65-1.34,2.98-2.98,2.98H156.2c-1.65,0-2.98-1.34-2.98-2.98s1.34-2.98,2.98-2.98h38.23
					C196.08,287.58,197.41,288.92,197.41,290.56z"/>
				<path class="st12" d="M183.38,282.78l-9.64-31.48c-0.43-1.4-1.89-2.21-3.3-1.83l0,0c-1.56,0.41-2.41,2.08-1.85,3.59l11.52,30.57
					C180.11,283.62,182.05,284.71,183.38,282.78z"/>
			</g>
		</g>
	</g>
	<g>
		<path class="st13" d="M115.51,204.45c1.05,6.35-1.24,12.02-5.1,12.66c-3.87,0.64-7.85-3.99-8.9-10.34s1.24-12.02,5.1-12.66
			C110.48,193.46,114.46,198.09,115.51,204.45z"/>
		<path class="st14" d="M174.32,260.41H71.14c-4.53,0-8.57-2.79-10.26-6.99c-12.08-30.16-21-59.48-24.62-87.41
			c-0.85-6.62,4.3-12.46,10.95-12.46h104.59c5.48,0,10.08,4.01,10.9,9.41c3.93,25.88,11.61,53.61,22.03,82.74
			C187.29,252.86,181.95,260.41,174.32,260.41z"/>
		<path class="st4" d="M170.14,260.41h-99c-4.53,0-8.57-2.79-10.26-6.99c-12.08-30.16-21-59.48-24.62-87.41
			c-0.85-6.62,4.3-12.46,10.95-12.46h100.39c5.48,0,10.08,4.01,10.92,9.41c3.91,25.88,11.59,53.61,22.01,82.74
			C183.11,252.86,177.75,260.41,170.14,260.41z"/>
		<g>
			<path class="st14" d="M165.06,293.54h-39.64c-5.75,0-10.88-3.66-12.75-9.1l-11.86-41.46c6.56,0.02,13.01-0.02,19.34-0.02
				c2.11,0,4.22,0,6.31,0.02l9.45,32.25c1.34,3.64,4.55,6.27,8.36,6.87l14.83,2.32c2.5,0.39,4.49,2.28,5.03,4.74L165.06,293.54z"/>
			<path class="st15" d="M144.25,282.11l-3.35-0.31c-4.72-0.41-8.81-3.43-10.59-7.82l-10.18-31.01c2.11,0,4.22,0,6.31,0.02
				l9.45,32.25C137.22,278.87,140.44,281.51,144.25,282.11z"/>
		</g>
		<path class="st1" d="M114.72,205.81c1.47,6.13-0.41,11.84-4.2,12.75c-3.79,0.91-8.05-3.32-9.52-9.46s0.41-11.84,4.2-12.75
			C108.98,195.45,113.25,199.68,114.72,205.81z"/>
	</g>
	<g>
		<rect x="-1.46" y="293.54" class="st3" width="471.29" height="9.68"/>
		<rect x="365.32" y="293.54" class="st2" width="104.52" height="9.68"/>
	</g>
	<g>
		<polygon class="st3" points="420.48,254.03 415.96,225.96 401.61,227.74 406.93,255.64 		"/>
		<path class="st2" d="M420.06,251.45l4.97-34.64c0.16-1.08,1.17-1.83,2.25-1.65l0,0c1.05,0.18,1.77,1.17,1.61,2.22l-5.51,35.84h2.1
			l7.39-27.46c0.28-1.05,1.36-1.69,2.42-1.42l0,0c1.08,0.27,1.73,1.37,1.45,2.45l-6.91,26.43l-6.94,3.23L420.06,251.45z"/>
		<path class="st4" d="M434.67,251.45v35.73c0,3.16-2.56,5.73-5.73,5.73H408.3c-3.16,0-5.73-2.57-5.73-5.73v-35.73H434.67z"/>
		<rect x="402.57" y="251.45" class="st14" width="32.1" height="8.38"/>
	</g>
	<g>
		<circle class="st16" cx="402.37" cy="77.3" r="45.66"/>
		
			<ellipse transform="matrix(0.8972 -0.4416 0.4416 0.8972 8.6086 184.9328)" class="st3" cx="401.61" cy="73.97" rx="42.96" ry="42.96"/>
		
			<ellipse transform="matrix(0.1493 -0.9888 0.9888 0.1493 268.5048 460.0339)" class="st4" cx="401.61" cy="73.97" rx="31.61" ry="31.61"/>
		<path class="st3" d="M419.41,72.54h-15.57V51.5c0-1.66-1.35-3.01-3.01-3.01c-1.66,0-3.01,1.35-3.01,3.01v26.56h2.07h3.94h15.57
			c1.52,0,2.76-1.24,2.76-2.76C422.16,73.77,420.93,72.54,419.41,72.54z"/>
	</g>
</g>
</svg>
