<?xml version="1.0" encoding="utf-8"?>
<!-- Generator: Adobe Illustrator 24.3.0, SVG Export Plug-In . SVG Version: 6.00 Build 0)  -->
<svg version="1.1" id="Layer_1" xmlns="http://www.w3.org/2000/svg" xmlns:xlink="http://www.w3.org/1999/xlink" x="0px" y="0px"
	 viewBox="0 0 750 500" style="enable-background:new 0 0 750 500;" xml:space="preserve">
<style type="text/css">
	.st0{fill:#ECECEC;}
	.st1{fill:#FFFFFF;}
	.st2{fill:#2B454E;}
	.st3{fill:#FFC800;}
	.st4{fill:#DCDCDC;}
	.st5{fill:#A8A8A8;}
	.st6{fill:#1A2E35;}
	.st7{display:none;fill:#375A64;}
	.st8{display:none;}
	.st9{display:inline;fill:#375A64;}
	.st10{fill:#ED776A;}
	.st11{fill:#C36358;}
	.st12{fill:#FF99BC;}
	.st13{fill:#375A64;}
	.st14{display:none;fill:#FFFFFF;}
	.st15{font-family:'FredokaOne-Regular';}
	.st16{font-size:26.807px;}
	.st17{font-size:16.7576px;}
</style>
<g>
	<path class="st0" d="M692.17,306.44l-13.12,0.28l-6.66,0.11c-2.23,0.05-4.46,0.04-6.69,0.05l-0.44,0l0-0.45l-0.05-11.19l0-0.5
		l0.5,0l13.24,0.06c4.41,0.01,8.83,0.11,13.24,0.16l0.28,0l0,0.27c-0.02,1.9-0.09,3.79-0.13,5.65L692.17,306.44z M692.17,306.44
		l-0.14-5.65c-0.05-1.86-0.11-3.7-0.13-5.54l0.27,0.27c-4.41,0.05-8.83,0.16-13.24,0.16l-13.24,0.06l0.5-0.5l-0.05,11.19l-0.45-0.45
		c2.18,0.02,4.36,0.01,6.55,0.05l6.58,0.11L692.17,306.44z"/>
	<path class="st0" d="M677.4,320.55l-13.12,0.28l-6.66,0.11c-2.23,0.05-4.46,0.04-6.69,0.05l-0.44,0l0-0.45l-0.05-11.19l0-0.5l0.5,0
		l13.24,0.06c4.41,0,8.83,0.11,13.24,0.16l0.28,0l0,0.27c-0.02,1.9-0.09,3.79-0.13,5.65L677.4,320.55z M677.4,320.55l-0.14-5.65
		c-0.05-1.86-0.11-3.7-0.13-5.54l0.27,0.27c-4.41,0.05-8.83,0.16-13.24,0.16l-13.24,0.06l0.5-0.5l-0.05,11.19l-0.45-0.45
		c2.18,0.02,4.36,0.01,6.55,0.05l6.58,0.11L677.4,320.55z"/>
	<path class="st0" d="M706.94,320.55l-13.12,0.28l-6.66,0.11c-2.23,0.05-4.46,0.04-6.69,0.05l-0.44,0l0-0.45l-0.05-11.19l0-0.5
		l0.5,0l13.24,0.06c4.41,0,8.83,0.11,13.24,0.16l0.28,0l0,0.27c-0.02,1.9-0.09,3.79-0.13,5.65L706.94,320.55z M706.94,320.55
		l-0.14-5.65c-0.05-1.86-0.11-3.7-0.13-5.54l0.27,0.27c-4.41,0.05-8.83,0.16-13.24,0.16l-13.24,0.06l0.5-0.5l-0.05,11.19l-0.45-0.45
		c2.18,0.02,4.36,0.01,6.55,0.05l6.58,0.11L706.94,320.55z"/>
	<path class="st0" d="M314.59,173.28l-13.12,0.28l-6.66,0.11c-2.23,0.05-4.46,0.04-6.69,0.06l-0.44,0l0-0.45l-0.05-11.19l0-0.5
		l0.5,0l13.24,0.06c4.41,0,8.83,0.11,13.24,0.16l0.28,0l0,0.27c-0.02,1.9-0.09,3.79-0.13,5.65L314.59,173.28z M314.59,173.28
		l-0.14-5.65c-0.05-1.86-0.11-3.7-0.13-5.54l0.27,0.27c-4.41,0.05-8.83,0.16-13.24,0.16l-13.24,0.06l0.5-0.5l-0.05,11.19l-0.45-0.45
		c2.18,0.02,4.36,0.01,6.55,0.05l6.58,0.11L314.59,173.28z"/>
	<path class="st0" d="M299.82,187.39l-13.12,0.28l-6.66,0.11c-2.23,0.05-4.46,0.04-6.69,0.06l-0.44,0l0-0.45l-0.05-11.19l0-0.5
		l0.5,0l13.24,0.06c4.41,0.01,8.83,0.11,13.24,0.16l0.28,0l0,0.27c-0.02,1.9-0.09,3.79-0.13,5.65L299.82,187.39z M299.82,187.39
		l-0.14-5.65c-0.05-1.86-0.11-3.7-0.13-5.54l0.27,0.27c-4.41,0.05-8.83,0.16-13.24,0.16l-13.24,0.06l0.5-0.5l-0.05,11.19l-0.45-0.45
		c2.18,0.02,4.36,0.01,6.55,0.05l6.58,0.11L299.82,187.39z"/>
	<path class="st0" d="M329.36,187.39l-13.12,0.28l-6.66,0.11c-2.23,0.05-4.46,0.04-6.69,0.06l-0.44,0l0-0.45l-0.05-11.19l0-0.5
		l0.5,0l13.24,0.06c4.41,0.01,8.83,0.11,13.24,0.16l0.28,0l0,0.27c-0.02,1.9-0.09,3.79-0.13,5.65L329.36,187.39z M329.36,187.39
		l-0.14-5.65c-0.05-1.86-0.11-3.7-0.13-5.54l0.27,0.27c-4.41,0.05-8.83,0.16-13.24,0.16l-13.24,0.06l0.5-0.5l-0.05,11.19l-0.45-0.45
		c2.18,0.02,4.36,0.01,6.55,0.05l6.58,0.11L329.36,187.39z"/>
	<path class="st0" d="M98.68,247.32l-13.12,0.28l-6.66,0.11c-2.23,0.05-4.46,0.04-6.69,0.05l-0.44,0l0-0.45l-0.05-11.19l0-0.5l0.5,0
		l13.24,0.06c4.41,0.01,8.83,0.11,13.24,0.16l0.28,0l0,0.27c-0.02,1.9-0.09,3.79-0.13,5.65L98.68,247.32z M98.68,247.32l-0.14-5.65
		c-0.05-1.86-0.11-3.7-0.13-5.54l0.27,0.27c-4.41,0.05-8.83,0.16-13.24,0.16l-13.24,0.06l0.5-0.5l-0.05,11.19l-0.45-0.45
		c2.18,0.02,4.36,0.01,6.55,0.05l6.58,0.11L98.68,247.32z"/>
	<path class="st0" d="M537.66,173.27l-13.12,0.28l-6.66,0.11c-2.23,0.05-4.46,0.04-6.69,0.05l-0.44,0l0-0.45l-0.05-11.19l0-0.5
		l0.5,0l13.24,0.06c4.41,0.01,8.83,0.11,13.24,0.16l0.28,0l0,0.27c-0.02,1.9-0.09,3.79-0.13,5.65L537.66,173.27z M537.66,173.27
		l-0.14-5.65c-0.05-1.86-0.11-3.7-0.13-5.54l0.27,0.27c-4.41,0.05-8.83,0.16-13.24,0.16l-13.24,0.06l0.5-0.5l-0.05,11.19l-0.45-0.45
		c2.18,0.02,4.36,0.01,6.55,0.05l6.58,0.11L537.66,173.27z"/>
	<path class="st0" d="M690.64,64.6l-13.12,0.28l-6.66,0.11c-2.23,0.05-4.46,0.04-6.69,0.06l-0.44,0l0-0.45l-0.05-11.19l0-0.5l0.5,0
		l13.24,0.06c4.41,0.01,8.83,0.11,13.24,0.16l0.28,0l0,0.27c-0.02,1.9-0.09,3.79-0.13,5.65L690.64,64.6z M690.64,64.6l-0.14-5.65
		c-0.05-1.86-0.11-3.7-0.13-5.54l0.27,0.27c-4.41,0.05-8.83,0.16-13.24,0.16l-13.24,0.06l0.5-0.5L664.6,64.6l-0.45-0.45
		c2.18,0.02,4.36,0.01,6.55,0.06l6.58,0.11L690.64,64.6z"/>
	<path class="st0" d="M705.41,78.71l-13.12,0.28l-6.66,0.11c-2.23,0.05-4.46,0.04-6.69,0.06l-0.44,0l0-0.45l-0.05-11.19l0-0.5l0.5,0
		l13.24,0.06c4.41,0,8.83,0.11,13.24,0.16l0.28,0l0,0.27c-0.02,1.9-0.09,3.79-0.13,5.65L705.41,78.71z M705.41,78.71l-0.14-5.65
		c-0.05-1.86-0.11-3.7-0.13-5.54l0.27,0.27c-4.41,0.05-8.83,0.16-13.24,0.16l-13.24,0.06l0.5-0.5l-0.05,11.19l-0.45-0.45
		c2.18,0.02,4.36,0.01,6.55,0.05l6.58,0.11L705.41,78.71z"/>
	<path class="st0" d="M686.95,189.21l-13.12,0.28l-6.66,0.11c-2.23,0.05-4.46,0.04-6.69,0.06l-0.44,0l0-0.45l-0.05-11.19l0-0.5
		l0.5,0l13.24,0.06c4.41,0.01,8.83,0.11,13.24,0.16l0.28,0l0,0.27c-0.02,1.9-0.09,3.79-0.13,5.65L686.95,189.21z M686.95,189.21
		l-0.14-5.65c-0.05-1.86-0.11-3.7-0.13-5.54l0.27,0.27c-4.41,0.05-8.83,0.16-13.24,0.16l-13.24,0.06l0.5-0.5l-0.05,11.19l-0.45-0.45
		c2.18,0.02,4.36,0.01,6.55,0.05l6.58,0.11L686.95,189.21z"/>
	<path class="st0" d="M701.72,203.32l-13.12,0.28l-6.66,0.11c-2.23,0.05-4.46,0.04-6.69,0.05l-0.44,0l0-0.45l-0.05-11.19l0-0.5
		l0.5,0l13.24,0.06c4.41,0.01,8.83,0.11,13.24,0.16l0.28,0l0,0.27c-0.02,1.9-0.09,3.79-0.13,5.65L701.72,203.32z M701.72,203.32
		l-0.14-5.65c-0.05-1.86-0.11-3.7-0.13-5.54l0.27,0.27c-4.41,0.05-8.83,0.16-13.24,0.16l-13.24,0.06l0.5-0.5l-0.05,11.19l-0.45-0.45
		c2.18,0.02,4.36,0.01,6.55,0.05l6.58,0.11L701.72,203.32z"/>
	<path class="st0" d="M69.13,64.61l-13.12,0.28L49.35,65c-2.23,0.05-4.46,0.04-6.69,0.06l-0.44,0l0-0.45l-0.05-11.19l0-0.5l0.5,0
		l13.24,0.06c4.41,0.01,8.83,0.11,13.24,0.16l0.28,0l0,0.27c-0.02,1.9-0.09,3.79-0.13,5.65L69.13,64.61z M69.13,64.61l-0.14-5.65
		c-0.05-1.86-0.11-3.7-0.13-5.54l0.27,0.27c-4.41,0.05-8.83,0.16-13.24,0.16l-13.24,0.06l0.5-0.5L43.1,64.61l-0.45-0.45
		c2.18,0.02,4.36,0.01,6.55,0.06l6.58,0.11L69.13,64.61z"/>
</g>
<g>
	<g>
		<g>
			<rect x="178.25" y="55.43" class="st1" width="118.54" height="79.88"/>
			<path class="st0" d="M297.29,135.81H177.75V54.93h119.54V135.81z M178.75,134.81h117.54V55.93H178.75V134.81z"/>
		</g>
	</g>
	<g>
		<path class="st2" d="M189.71,61.48c0,1.51-1.22,2.73-2.73,2.73c-1.51,0-2.73-1.22-2.73-2.73c0-1.51,1.22-2.73,2.73-2.73
			C188.48,58.75,189.71,59.97,189.71,61.48z"/>
		<path class="st0" d="M200.85,61.48c0,1.51-1.22,2.73-2.73,2.73c-1.51,0-2.73-1.22-2.73-2.73c0-1.51,1.22-2.73,2.73-2.73
			C199.63,58.75,200.85,59.97,200.85,61.48z"/>
		<path class="st3" d="M212,61.48c0,1.51-1.22,2.73-2.73,2.73c-1.51,0-2.73-1.22-2.73-2.73c0-1.51,1.22-2.73,2.73-2.73
			C210.78,58.75,212,59.97,212,61.48z"/>
	</g>
	<rect x="178.25" y="66.97" class="st0" width="118.54" height="1"/>
</g>
<g>
	<path class="st0" d="M199.8,160.8c0-1.25,0.17-4.58,0.17-5.99c0-6.08-2.16-8.83-7.83-8.99c-2.67-0.17-4.25-1.75-4.25-4
		c0-2.25,1.58-3.83,4.25-4c5.66-0.25,7.83-2.92,7.83-9.08c0-1.42-0.17-4.75-0.17-5.99c0-8.08,3.41-13.24,16.32-16.07
		c2.58-0.58,4.58,1,4.58,3.41c0,2-1.33,3.08-2.33,3.41c-8.08,2.5-9.24,5.08-9.24,10.74c0,1.67,0.17,4.41,0.17,6.16
		c0,6.49-3.16,9.66-8.66,11.41c5.58,1.83,8.66,4.91,8.66,11.41c0,1.75-0.17,4.5-0.17,6.16c0,5.66,1.17,8.24,9.24,10.74
		c1,0.33,2.33,1.42,2.33,3.41c0,2.42-2,4-4.58,3.42C203.21,174.12,199.8,168.96,199.8,160.8z"/>
	<path class="st0" d="M248.6,122.74c0,1.25-0.17,4.58-0.17,5.99c0,6.16,2.25,8.83,7.91,9.08c2.58,0.17,4.16,1.75,4.16,4
		c0,2.25-1.58,3.83-4.16,4c-5.66,0.17-7.91,2.92-7.91,8.99c0,1.42,0.17,4.75,0.17,5.99c0,8.16-3.41,13.32-16.32,16.16
		c-2.58,0.58-4.58-1-4.58-3.42c0-2,1.33-3.08,2.41-3.41c7.99-2.5,9.16-5.08,9.16-10.74c0-1.67-0.17-4.41-0.17-6.16
		c0-6.5,3.16-9.66,8.66-11.41c-5.58-1.83-8.66-4.91-8.66-11.41c0-1.75,0.17-4.5,0.17-6.16c0-5.66-1.17-8.24-9.16-10.74
		c-1.08-0.33-2.41-1.42-2.41-3.41c0-2.41,2-4,4.58-3.41C245.18,109.5,248.6,114.67,248.6,122.74z"/>
</g>
<g>
	<path class="st0" d="M194.48,301.1c1.34,1.4,1.34,3.5,0,4.84c-0.7,0.65-1.51,0.97-2.37,0.97c-0.92,0-1.78-0.32-2.48-0.97
		l-15.12-15.34c-0.16-0.05-0.21-0.16-0.27-0.32c-0.05-0.05-0.16-0.11-0.16-0.11c-0.11-0.16-0.11-0.27-0.16-0.43
		c-0.11-0.05-0.16-0.16-0.16-0.22c-0.05-0.11-0.05-0.27-0.11-0.32c0-0.16-0.11-0.22-0.11-0.27c0-0.16,0-0.27,0-0.38
		c0-0.11-0.05-0.16-0.05-0.32c0-0.05,0.05-0.21,0.05-0.27c0-0.11,0-0.27,0-0.38c0-0.11,0.11-0.16,0.11-0.22
		c0.05-0.16,0.05-0.27,0.11-0.43c0-0.05,0.05-0.05,0.05-0.11c0.11-0.16,0.16-0.38,0.27-0.49c0,0,0-0.11,0.11-0.11
		c0.05-0.11,0.16-0.27,0.32-0.38l15.12-15.34c1.34-1.29,3.55-1.29,4.84,0c1.34,1.35,1.34,3.5,0,4.84l-12.76,12.86L194.48,301.1z"/>
	<path class="st0" d="M208.2,302.82l13.19-31.38c0.65-1.51,2.37-2.21,3.93-1.56c1.45,0.59,2.15,2.37,1.51,3.82l-13.19,31.43
		c-0.48,1.13-1.61,1.78-2.75,1.78c-0.32,0-0.75-0.05-1.08-0.21C208.26,306.1,207.55,304.33,208.2,302.82z"/>
	<path class="st0" d="M252.87,290.17c0,0,0,0.05-0.05,0.05c-0.11,0.11-0.21,0.27-0.38,0.38l-15.12,15.34
		c-0.65,0.65-1.56,0.97-2.42,0.97c-0.92,0-1.72-0.32-2.42-0.97c-1.34-1.35-1.34-3.44,0-4.84l12.76-12.86l-12.76-12.86
		c-1.34-1.35-1.34-3.5,0-4.84c1.29-1.29,3.5-1.29,4.84,0l15.12,15.34c0.16,0.11,0.27,0.27,0.38,0.38c0.05,0,0.05,0.11,0.05,0.11
		c0.11,0.22,0.22,0.32,0.27,0.49c0,0.05,0.05,0.05,0.05,0.11c0.05,0.16,0.05,0.27,0.16,0.48c0,0.05,0.05,0.05,0.05,0.16
		c0,0.11,0,0.27,0,0.38c0,0.05,0.05,0.22,0.05,0.27c0,0.05-0.05,0.22-0.05,0.27c0,0.16,0,0.27,0,0.43c0,0.05-0.05,0.05-0.05,0.11
		c-0.11,0.21-0.11,0.38-0.16,0.48c0,0.05-0.05,0.05-0.05,0.16C253.09,289.79,252.98,289.95,252.87,290.17z"/>
</g>
<path class="st0" d="M586.3,135.55c0,6.8-5.26,12.38-11.95,12.87v0.04h-73.09c-8.38,0-15.17-6.79-15.17-15.17
	c0-7.9,6.04-14.39,13.75-15.1c0.44-13.73,11.7-24.73,25.54-24.73c11.01,0,20.4,6.97,23.99,16.74c2.04-1.03,4.34-1.6,6.78-1.6
	c8.06,0,14.66,6.29,15.14,14.23c0.68-0.11,1.38-0.17,2.1-0.17C580.52,122.64,586.3,128.42,586.3,135.55z"/>
<g>
	<path class="st0" d="M657.68,311.27l8.29-13.37l-4.12-2.55c-1.2-0.74-1.83-2.11-1.71-3.52c0.06-0.76,0.09-1.53,0.07-2.3
		c-0.03-1.43,0.69-2.76,1.95-3.44l4.24-2.28l-7.44-13.87l-4.24,2.28c-1.22,0.65-2.71,0.59-3.84-0.21c-0.69-0.48-1.4-0.92-2.13-1.32
		c-1.22-0.66-1.95-1.97-1.9-3.36l0.15-4.81l-15.73-0.49l-0.15,4.83c-0.04,1.39-0.87,2.64-2.13,3.23c-0.37,0.17-0.73,0.36-1.09,0.55
		c-0.36,0.19-0.71,0.4-1.06,0.61c-1.19,0.72-2.67,0.73-3.85,0l-4.12-2.55l-8.29,13.37l4.13,2.56c1.2,0.74,1.82,2.11,1.7,3.51
		c-0.07,0.76-0.09,1.52-0.08,2.29c0.03,1.43-0.69,2.76-1.95,3.43l-4.25,2.28l7.44,13.87l4.25-2.28c1.26-0.67,2.77-0.54,3.94,0.27
		c0.63,0.44,1.28,0.84,1.95,1.2c1.24,0.68,2.03,1.95,1.98,3.36l-0.15,4.86l15.72,0.49l0.15-4.83c0.04-1.41,0.91-2.64,2.18-3.24
		c0.35-0.17,0.7-0.34,1.04-0.53c0.34-0.18,0.68-0.38,1.01-0.57c1.21-0.73,2.72-0.77,3.92-0.03L657.68,311.27z M645.79,300.46
		c-6.93,4.92-16.52,2.03-19.57-5.91c-2.07-5.4-0.19-11.68,4.53-15.03c6.93-4.93,16.54-2.02,19.59,5.91
		C652.41,290.83,650.51,297.11,645.79,300.46z"/>
	<path class="st0" d="M570.83,343.06l9.55-5.51l-1.69-2.92c-0.5-0.86-0.45-1.92,0.09-2.75c0.3-0.46,0.57-0.94,0.82-1.43
		c0.45-0.88,1.34-1.45,2.33-1.45h3.37v-11.02h-3.37c-0.99,0-1.88-0.57-2.33-1.45c-0.25-0.49-0.53-0.97-0.82-1.43
		c-0.54-0.83-0.59-1.89-0.09-2.75l1.69-2.92l-9.55-5.51l-1.69,2.93c-0.5,0.86-1.44,1.33-2.43,1.28c-0.27-0.01-0.54-0.02-0.81-0.02
		c-0.27,0-0.54,0.01-0.81,0.02c-0.99,0.05-1.93-0.42-2.42-1.28l-1.7-2.94l-9.55,5.51l1.69,2.93c0.5,0.86,0.45,1.92-0.1,2.75
		c-0.3,0.46-0.57,0.93-0.82,1.42c-0.45,0.88-1.34,1.45-2.33,1.45h-3.37v11.02h3.37c0.99,0,1.88,0.57,2.33,1.45
		c0.25,0.49,0.52,0.96,0.82,1.42c0.54,0.83,0.59,1.89,0.1,2.75l-1.69,2.93l9.55,5.51l1.69-2.93c0.49-0.86,1.44-1.33,2.42-1.28
		c0.27,0.01,0.54,0.02,0.82,0.02c0.27,0,0.54-0.01,0.81-0.02c0.99-0.05,1.94,0.42,2.43,1.28L570.83,343.06z M565.9,332.52
		c-4.99,0-9.02-4.04-9.02-9.02c0-4.99,4.04-9.03,9.02-9.03c4.99,0,9.03,4.05,9.03,9.03C574.93,328.49,570.89,332.52,565.9,332.52z"
		/>
	<path class="st0" d="M86.11,105.06c0.86,0.5,1.33,1.44,1.28,2.43c-0.01,0.27-0.02,0.54-0.02,0.81c0,0.27,0.01,0.55,0.02,0.82
		c0.05,0.99-0.42,1.93-1.28,2.42l-2.93,1.69l5.51,9.55l2.93-1.69c0.86-0.5,1.92-0.45,2.75,0.1c0.46,0.3,0.93,0.57,1.42,0.82
		c0.88,0.45,1.45,1.34,1.45,2.33v3.37h11.03v-3.37c0-0.99,0.57-1.88,1.45-2.33c0.49-0.25,0.96-0.52,1.42-0.82
		c0.83-0.54,1.89-0.59,2.75-0.1l2.93,1.69l5.51-9.55l-2.94-1.7c-0.86-0.49-1.33-1.43-1.28-2.42c0.01-0.27,0.02-0.54,0.02-0.81
		c0-0.27-0.01-0.54-0.02-0.81c-0.05-0.99,0.42-1.94,1.28-2.43l2.94-1.69l-5.51-9.55l-2.92,1.69c-0.86,0.5-1.92,0.45-2.75-0.09
		c-0.46-0.3-0.94-0.57-1.43-0.82c-0.88-0.45-1.45-1.34-1.45-2.33V88.9H97.24v3.37c0,0.99-0.57,1.88-1.45,2.33
		c-0.49,0.25-0.97,0.53-1.43,0.82c-0.83,0.54-1.89,0.59-2.75,0.09l-2.92-1.69l-5.51,9.55L86.11,105.06z M102.75,99.28
		c4.99,0,9.03,4.05,9.03,9.03s-4.05,9.02-9.03,9.02c-4.99,0-9.02-4.04-9.02-9.02S97.76,99.28,102.75,99.28z"/>
</g>
<g>
	<polygon class="st4" points="382.07,420.97 494.03,420.97 471.71,291.12 387.99,291.12 	"/>
	<polygon class="st5" points="382.07,420.97 391.89,420.97 397.4,291.12 387.99,291.12 	"/>
</g>
<g>
	<polygon class="st4" points="369.69,420.97 257.74,420.97 280.06,291.12 363.78,291.12 	"/>
	<polygon class="st5" points="369.69,420.97 359.88,420.97 354.37,291.12 363.78,291.12 	"/>
</g>
<g>
	<g>
		<g>
			<rect x="530.93" y="217.65" class="st1" width="103.1" height="65.77"/>
			<path class="st0" d="M634.67,284.06h-104.4V217h104.4V284.06z M531.58,282.76h101.79V218.3H531.58V282.76z"/>
		</g>
		<g>
			<rect x="530.93" y="217.65" class="st3" width="103.1" height="12.44"/>
			<path class="st0" d="M634.67,230.74h-104.4V217h104.4V230.74z M531.58,229.43h101.79V218.3H531.58V229.43z"/>
		</g>
	</g>
	<g>
		<path class="st5" d="M542.6,223.96c0,1.73-1.4,3.13-3.13,3.13c-1.73,0-3.13-1.4-3.13-3.13s1.4-3.13,3.13-3.13
			C541.2,220.83,542.6,222.23,542.6,223.96z"/>
		<path class="st0" d="M555.38,223.96c0,1.73-1.4,3.13-3.13,3.13c-1.73,0-3.13-1.4-3.13-3.13s1.4-3.13,3.13-3.13
			C553.98,220.83,555.38,222.23,555.38,223.96z"/>
		<path class="st1" d="M568.16,223.96c0,1.73-1.4,3.13-3.13,3.13c-1.73,0-3.13-1.4-3.13-3.13s1.4-3.13,3.13-3.13
			C566.76,220.83,568.16,222.23,568.16,223.96z"/>
	</g>
	<g>
		<path class="st0" d="M581.66,249.64c0.53,1.08,0.8,2.29,0.8,3.62s-0.27,2.53-0.8,3.61c-0.53,1.07-1.22,1.93-2.06,2.56
			c-1.7,1.31-3.46,1.96-5.28,1.96h-3.84v3.47c0,0.47-0.02,0.82-0.05,1.06c-0.03,0.24-0.13,0.51-0.29,0.81
			c-0.29,0.55-1.08,0.83-2.39,0.83c-1.43,0-2.27-0.38-2.52-1.14c-0.12-0.35-0.18-0.88-0.18-1.6v-17.03c0-0.47,0.02-0.82,0.05-1.06
			c0.03-0.23,0.13-0.51,0.29-0.81c0.29-0.55,1.08-0.83,2.39-0.83h6.57c1.8,0,3.55,0.66,5.25,1.96
			C580.44,247.69,581.13,248.55,581.66,249.64z M576.17,255.28c0.59-0.45,0.89-1.13,0.89-2.03s-0.3-1.58-0.89-2.04
			c-0.59-0.46-1.21-0.69-1.84-0.69h-3.84v5.43h3.87C574.97,255.96,575.57,255.73,576.17,255.28z"/>
		<path class="st0" d="M584.79,264.43c-0.53-0.65-0.8-1.24-0.8-1.76c0-0.52,0.44-1.21,1.32-2.07c0.51-0.49,1.05-0.74,1.63-0.74
			c0.57,0,1.37,0.51,2.39,1.53c0.29,0.35,0.7,0.68,1.23,1s1.02,0.48,1.47,0.48c1.9,0,2.85-0.78,2.85-2.33
			c0-0.47-0.26-0.86-0.78-1.18c-0.52-0.32-1.17-0.55-1.95-0.69c-0.78-0.14-1.62-0.37-2.52-0.69c-0.9-0.32-1.74-0.69-2.52-1.12
			s-1.43-1.11-1.95-2.04c-0.52-0.93-0.78-2.05-0.78-3.36c0-1.8,0.67-3.37,2.01-4.71c1.34-1.34,3.17-2.01,5.48-2.01
			c1.23,0,2.35,0.16,3.36,0.48c1.01,0.32,1.71,0.64,2.1,0.97l0.77,0.58c0.63,0.59,0.95,1.09,0.95,1.5c0,0.41-0.25,0.97-0.74,1.69
			c-0.7,1.02-1.41,1.53-2.15,1.53c-0.43,0-0.96-0.2-1.6-0.61c-0.06-0.04-0.18-0.14-0.35-0.31s-0.33-0.3-0.48-0.4
			c-0.43-0.27-0.98-0.4-1.64-0.4c-0.67,0-1.22,0.16-1.66,0.48c-0.44,0.32-0.66,0.76-0.66,1.32s0.26,1.02,0.78,1.37
			c0.52,0.35,1.17,0.58,1.95,0.71c0.78,0.12,1.63,0.31,2.55,0.57s1.77,0.57,2.55,0.94c0.78,0.37,1.43,1.01,1.95,1.92
			c0.52,0.91,0.78,2.03,0.78,3.36s-0.27,2.5-0.8,3.51c-0.53,1.01-1.23,1.8-2.09,2.35c-1.66,1.08-3.43,1.63-5.31,1.63
			c-0.96,0-1.87-0.12-2.73-0.35c-0.86-0.24-1.56-0.53-2.09-0.88c-1.08-0.65-1.84-1.29-2.27-1.9L584.79,264.43z"/>
	</g>
</g>
<g>
	<g>
		<g>
			<rect x="96.64" y="224.29" class="st1" width="103.1" height="65.77"/>
			<path class="st0" d="M200.39,290.71H95.99v-67.07h104.4V290.71z M97.29,289.41h101.79v-64.46H97.29V289.41z"/>
		</g>
		<g>
			<rect x="96.64" y="224.29" class="st3" width="103.1" height="12.44"/>
			<path class="st0" d="M200.39,237.38H95.99v-13.74h104.4V237.38z M97.29,236.08h101.79v-11.13H97.29V236.08z"/>
		</g>
	</g>
	<g>
		<path class="st5" d="M108.31,230.6c0,1.73-1.4,3.13-3.13,3.13c-1.73,0-3.13-1.4-3.13-3.13c0-1.73,1.4-3.13,3.13-3.13
			C106.91,227.47,108.31,228.88,108.31,230.6z"/>
		<path class="st0" d="M121.1,230.6c0,1.73-1.4,3.13-3.13,3.13c-1.73,0-3.13-1.4-3.13-3.13c0-1.73,1.4-3.13,3.13-3.13
			C119.69,227.47,121.1,228.88,121.1,230.6z"/>
		<path class="st1" d="M133.88,230.6c0,1.73-1.4,3.13-3.13,3.13c-1.73,0-3.13-1.4-3.13-3.13c0-1.73,1.4-3.13,3.13-3.13
			C132.48,227.47,133.88,228.88,133.88,230.6z"/>
	</g>
	<g>
		<path class="st0" d="M115.89,261.32c0.03-6.86,5.78-12.44,12.71-12.47c3.05,0,5.82,1,8,2.7c0.83,0.69,0.97,1.91,0.35,2.77
			c-0.69,0.87-1.98,1-2.77,0.38c-1.52-1.25-3.43-1.91-5.58-1.91c-2.39,0-4.61,0.97-6.23,2.49c-1.56,1.59-2.53,3.67-2.53,6.03
			c0,2.36,0.97,4.5,2.53,6.03c1.63,1.52,3.84,2.49,6.23,2.49c2.15,0,4.02-0.66,5.58-1.91c0.8-0.59,2.08-0.45,2.77,0.38
			c0.62,0.87,0.48,2.11-0.35,2.77c-2.18,1.7-4.95,2.7-8,2.7C121.67,273.79,115.92,268.22,115.89,261.32z"/>
		<path class="st0" d="M149.1,263.51h-4.92c-1.04,0-1.91-0.83-1.91-1.91c0-1.04,0.87-1.91,1.91-1.91h4.92v-4.81
			c0-1.11,0.87-1.97,1.98-1.97c1.07,0,1.97,0.87,1.97,1.97v4.81h4.92c1.04,0,1.9,0.87,1.9,1.91c0,1.07-0.87,1.91-1.9,1.91h-4.92
			v4.82c0,1.11-0.9,1.97-1.97,1.97c-1.11,0-1.98-0.87-1.98-1.97V263.51z"/>
		<path class="st0" d="M170.58,263.51h-4.92c-1.04,0-1.91-0.83-1.91-1.91c0-1.04,0.87-1.91,1.91-1.91h4.92v-4.81
			c0-1.11,0.87-1.97,1.97-1.97c1.07,0,1.98,0.87,1.98,1.97v4.81h4.92c1.04,0,1.91,0.87,1.91,1.91c0,1.07-0.87,1.91-1.91,1.91h-4.92
			v4.82c0,1.11-0.9,1.97-1.98,1.97c-1.11,0-1.97-0.87-1.97-1.97V263.51z"/>
	</g>
</g>
<g>
	<g>
		<g>
			<rect x="263.16" y="66.21" class="st6" width="223.81" height="141.2"/>
			<path class="st0" d="M487.62,208.06H262.51V65.55h225.11V208.06z M263.81,206.76h222.5V66.86h-222.5V206.76z"/>
		</g>
		<g>
			<rect x="263.16" y="66.21" class="st3" width="223.81" height="12.44"/>
			<path class="st0" d="M487.62,79.29H262.51V65.55h225.11V79.29z M263.81,77.99h222.5V66.86h-222.5V77.99z"/>
		</g>
	</g>
	<g>
		<path class="st5" d="M274.83,72.51c0,1.73-1.4,3.13-3.13,3.13c-1.73,0-3.13-1.4-3.13-3.13s1.4-3.13,3.13-3.13
			C273.43,69.38,274.83,70.79,274.83,72.51z"/>
		<path class="st0" d="M287.62,72.51c0,1.73-1.4,3.13-3.13,3.13c-1.73,0-3.13-1.4-3.13-3.13s1.4-3.13,3.13-3.13
			C286.21,69.38,287.62,70.79,287.62,72.51z"/>
		<path class="st1" d="M300.4,72.51c0,1.73-1.4,3.13-3.13,3.13s-3.13-1.4-3.13-3.13s1.4-3.13,3.13-3.13S300.4,70.79,300.4,72.51z"/>
	</g>
	<g>
		<rect x="276.5" y="103.38" class="st0" width="6.65" height="2.43"/>
		<rect x="288" y="103.38" class="st0" width="107.4" height="2.43"/>
		<rect x="399.48" y="103.38" class="st3" width="12.63" height="2.43"/>
		<rect x="419.69" y="135.89" class="st0" width="12.63" height="2.43"/>
		<rect x="414.86" y="103.38" class="st5" width="42.58" height="2.43"/>
		<rect x="283.15" y="109.88" class="st0" width="6.65" height="2.43"/>
		<rect x="294.48" y="109.88" class="st5" width="50.06" height="2.43"/>
		<rect x="397.76" y="135.89" class="st5" width="18.93" height="2.43"/>
		<rect x="288" y="129.39" class="st5" width="47.81" height="2.43"/>
		<rect x="294.48" y="116.38" class="st3" width="33.54" height="2.43"/>
		<rect x="407.93" y="122.88" class="st5" width="33.54" height="2.43"/>
		<rect x="331.74" y="116.38" class="st5" width="84.68" height="2.43"/>
		<rect x="288" y="135.89" class="st3" width="105.43" height="2.43"/>
		<rect x="413.45" y="109.88" class="st3" width="55.4" height="2.43"/>
		<rect x="347.68" y="109.88" class="st0" width="63.02" height="2.43"/>
		<rect x="439.69" y="116.38" class="st0" width="21.53" height="2.43"/>
		<rect x="283.15" y="116.38" class="st0" width="6.65" height="2.43"/>
		<rect x="276.5" y="122.88" class="st5" width="6.65" height="2.43"/>
		<rect x="288" y="122.88" class="st0" width="39.3" height="2.43"/>
		<rect x="294.48" y="142.39" class="st0" width="39.3" height="2.43"/>
		<rect x="398.88" y="148.89" class="st3" width="50.62" height="2.43"/>
		<rect x="336.97" y="142.39" class="st3" width="70.53" height="2.43"/>
		<rect x="330.02" y="148.89" class="st0" width="65.43" height="2.43"/>
		<rect x="294.48" y="148.89" class="st5" width="11.38" height="2.43"/>
		<rect x="338.51" y="129.39" class="st0" width="73.6" height="2.43"/>
		<rect x="414.86" y="129.39" class="st3" width="47.77" height="2.43"/>
		<rect x="331.29" y="122.88" class="st3" width="73.54" height="2.43"/>
		<rect x="276.5" y="129.39" class="st0" width="6.65" height="2.43"/>
		<rect x="276.5" y="135.89" class="st0" width="6.65" height="2.43"/>
		<rect x="283.15" y="142.39" class="st5" width="6.65" height="2.43"/>
		<rect x="283.15" y="148.89" class="st0" width="6.65" height="2.43"/>
		<rect x="276.5" y="154.33" class="st0" width="6.65" height="2.43"/>
		<rect x="288" y="154.33" class="st0" width="77.97" height="2.43"/>
		<rect x="283.15" y="160.83" class="st0" width="6.65" height="2.43"/>
		<rect x="294.48" y="160.83" class="st5" width="50.06" height="2.43"/>
		<rect x="288" y="180.33" class="st5" width="47.81" height="2.43"/>
		<rect x="294.48" y="167.33" class="st3" width="33.54" height="2.43"/>
		<rect x="331.74" y="167.33" class="st5" width="84.68" height="2.43"/>
		<rect x="288" y="186.83" class="st3" width="105.43" height="2.43"/>
		<rect x="413.45" y="160.83" class="st3" width="55.4" height="2.43"/>
		<rect x="347.68" y="160.83" class="st0" width="63.02" height="2.43"/>
		<rect x="439.69" y="167.33" class="st0" width="21.53" height="2.43"/>
		<rect x="283.15" y="167.33" class="st0" width="6.65" height="2.43"/>
		<rect x="276.5" y="173.83" class="st5" width="6.65" height="2.43"/>
		<rect x="288" y="173.83" class="st0" width="39.3" height="2.43"/>
		<rect x="338.51" y="180.33" class="st0" width="73.6" height="2.43"/>
		<rect x="331.29" y="173.83" class="st3" width="73.54" height="2.43"/>
		<rect x="276.5" y="180.33" class="st0" width="6.65" height="2.43"/>
		<g>
			<path class="st3" d="M280.61,96.99c0.23,0.24,0.23,0.59,0,0.82c-0.12,0.11-0.25,0.16-0.4,0.16c-0.16,0-0.3-0.05-0.42-0.16
				l-2.56-2.6c-0.03-0.01-0.04-0.03-0.05-0.05c-0.01-0.01-0.03-0.02-0.03-0.02c-0.02-0.03-0.02-0.05-0.03-0.07
				c-0.02-0.01-0.03-0.03-0.03-0.04c-0.01-0.02-0.01-0.05-0.02-0.05c0-0.03-0.02-0.04-0.02-0.05c0-0.03,0-0.05,0-0.06
				c0-0.02-0.01-0.03-0.01-0.05c0-0.01,0.01-0.04,0.01-0.05c0-0.02,0-0.05,0-0.06c0-0.02,0.02-0.03,0.02-0.04
				c0.01-0.03,0.01-0.05,0.02-0.07c0-0.01,0.01-0.01,0.01-0.02c0.02-0.03,0.03-0.06,0.05-0.08c0,0,0-0.02,0.02-0.02
				c0.01-0.02,0.03-0.05,0.05-0.06l2.56-2.6c0.23-0.22,0.6-0.22,0.82,0c0.23,0.23,0.23,0.59,0,0.82l-2.16,2.18L280.61,96.99z"/>
			<path class="st3" d="M282.93,97.28l2.24-5.32c0.11-0.26,0.4-0.37,0.67-0.26c0.25,0.1,0.37,0.4,0.26,0.65l-2.24,5.33
				c-0.08,0.19-0.27,0.3-0.47,0.3c-0.05,0-0.13-0.01-0.18-0.04C282.94,97.84,282.82,97.53,282.93,97.28z"/>
			<path class="st3" d="M290.51,95.13C290.51,95.13,290.51,95.14,290.51,95.13c-0.03,0.03-0.05,0.05-0.07,0.07l-2.56,2.6
				c-0.11,0.11-0.26,0.16-0.41,0.16c-0.16,0-0.29-0.05-0.41-0.16c-0.23-0.23-0.23-0.58,0-0.82l2.16-2.18l-2.16-2.18
				c-0.23-0.23-0.23-0.59,0-0.82c0.22-0.22,0.59-0.22,0.82,0l2.56,2.6c0.03,0.02,0.05,0.05,0.06,0.06c0.01,0,0.01,0.02,0.01,0.02
				c0.02,0.04,0.04,0.05,0.05,0.08c0,0.01,0.01,0.01,0.01,0.02c0.01,0.03,0.01,0.05,0.03,0.08c0,0.01,0.01,0.01,0.01,0.03
				c0,0.02,0,0.04,0,0.06c0,0.01,0.01,0.04,0.01,0.05c0,0.01-0.01,0.04-0.01,0.05c0,0.03,0,0.05,0,0.07c0,0.01-0.01,0.01-0.01,0.02
				c-0.02,0.04-0.02,0.06-0.03,0.08c0,0.01-0.01,0.01-0.01,0.03C290.54,95.07,290.53,95.1,290.51,95.13z"/>
		</g>
	</g>
</g>
<rect x="637.32" y="238.9" class="st7" width="70.23" height="26"/>
<rect x="161.71" y="198.28" class="st7" width="70.23" height="26"/>
<rect x="619.23" y="102.61" class="st7" width="70.23" height="26"/>
<g class="st8">
	<rect x="557.1" y="180.68" class="st9" width="57.88" height="26"/>
</g>
<g>
	<polygon class="st6" points="602.65,294.56 607.04,305.17 602.66,306.98 598.24,296.31 590.99,301.93 590.99,272.06 611.9,293.18 	
		"/>
	<g>
		<path class="st6" d="M590.99,268.8c-0.21-0.5-0.26-1-0.27-1.5c0.01-0.5,0.05-1,0.27-1.5c0.21,0.5,0.26,1,0.27,1.5
			C591.25,267.8,591.2,268.3,590.99,268.8z"/>
		<path class="st6" d="M588.4,269.87c-0.5-0.21-0.89-0.53-1.25-0.87c-0.35-0.36-0.67-0.75-0.87-1.25c0.5,0.21,0.89,0.53,1.25,0.87
			C587.88,268.98,588.2,269.37,588.4,269.87z"/>
		<path class="st6" d="M587.33,272.46c-0.5,0.21-1,0.26-1.5,0.27c-0.5-0.01-1-0.05-1.5-0.27c0.5-0.21,1-0.26,1.5-0.27
			C586.33,272.2,586.83,272.25,587.33,272.46z"/>
		<path class="st6" d="M588.4,275.05c-0.21,0.5-0.53,0.89-0.87,1.25c-0.36,0.35-0.75,0.67-1.25,0.87c0.2-0.5,0.53-0.89,0.87-1.25
			C587.51,275.57,587.9,275.25,588.4,275.05z"/>
		<path class="st6" d="M594.65,272.46c0.5-0.21,1-0.26,1.5-0.27c0.5,0.01,1,0.05,1.5,0.27c-0.5,0.21-1,0.26-1.5,0.27
			C595.65,272.72,595.15,272.67,594.65,272.46z"/>
		<path class="st6" d="M593.58,269.87c0.21-0.5,0.53-0.89,0.87-1.25c0.36-0.35,0.75-0.67,1.25-0.87c-0.2,0.5-0.53,0.89-0.87,1.25
			C594.47,269.35,594.08,269.67,593.58,269.87z"/>
	</g>
</g>
<g>
	<g>
		<path class="st6" d="M444.13,231.08c-13.77,11.8-9.93,29.02-15.68,38.35c-3.52,5.71-14.97,11.74-17.24,18.32
			c-3.74,10.81,5.42,14.69,3.37,20.57c-2.9,8.32-14.05,7.68-16.06,21.29c-2.01,13.62,12.98,28.1,48.53,32.03
			c35.56,3.92,55.09-9.1,56.37-20.65c1.27-11.55-10.55-15.4-11.36-24.03c-0.51-5.51,6.79-9.35,7.16-19.5
			c0.37-10.15-9.52-13.45-10.93-22.06c-1.42-8.66,3.14-29.56-9.52-40.25C466.11,224.46,450.93,225.26,444.13,231.08z"/>
		<path class="st6" d="M445.73,231.39c-3.92,2.76-6.91,6.31-9.14,10.55c-2.32,4.4-3.85,9.17-5.08,13.98
			c-0.73,2.84-1.4,5.75-2.76,8.37c-1.18,2.27-2.89,4.19-4.77,5.89c-3.85,3.48-8.44,6.12-11.89,10.03c-3.27,3.7-5.82,8.66-4.51,13.7
			c0.71,2.74,2.52,4.98,3.64,7.54c1.06,2.43,1.49,5.44-0.59,7.46c-1.78,1.72-4.36,2.51-6.38,3.92c-1.98,1.38-3.75,3.09-5.19,5.03
			c-2.93,3.97-4.2,8.8-3.27,13.68c2.09,11.06,12.47,17.35,22.05,21.31c1.34,0.55,2.68,1.09,4.02,1.62c0.21,0.08,0.38-0.22,0.17-0.31
			c-9.62-4.3-20.77-9.35-24.47-20.1c-1.66-4.84-1.12-9.96,1.66-14.27c1.33-2.07,3.1-3.89,5.08-5.35c1.93-1.43,4.17-2.3,6.13-3.66
			c1.99-1.37,3.14-3.39,3.02-5.84c-0.12-2.6-1.39-4.86-2.65-7.07c-1.33-2.33-2.46-4.69-2.27-7.45c0.18-2.58,1.37-5.02,2.85-7.11
			c2.99-4.24,7.42-7.02,11.4-10.23c4-3.23,7.19-6.95,8.65-11.97c0.74-2.54,1.19-5.15,1.83-7.71c0.59-2.38,1.28-4.73,2.12-7.03
			c1.67-4.55,4.05-8.95,7.52-12.39c0.91-0.9,1.87-1.71,2.94-2.41C445.97,231.5,445.85,231.31,445.73,231.39z"/>
		<path class="st6" d="M505.01,332.51c-0.44-1.87-1.27-3.67-2.46-5.18c-1.24-1.57-2.73-2.89-4.1-4.34c-1.3-1.37-2.53-2.91-2.91-4.8
			c-0.45-2.27,0.5-4.45,1.57-6.41c1.12-2.05,2.36-4,3.18-6.2c0.79-2.12,1.23-4.37,1.35-6.63c0.26-4.73-1.13-9.22-3.58-13.22
			c-1.21-1.99-2.58-3.87-3.8-5.85c-1.35-2.18-2.42-4.45-3.15-6.91c-1.6-5.35-1.95-11-3.26-16.43c-1.34-5.56-3.34-10.95-5.78-16.13
			c-0.06-0.13-0.25-0.01-0.19,0.12c2.21,4.66,3.86,9.55,5.05,14.57c1.13,4.76,1.56,9.61,2.4,14.41c0.41,2.35,0.94,4.7,1.8,6.93
			c0.81,2.09,1.92,4.04,3.09,5.94c2.4,3.92,4.89,7.78,5.55,12.43c0.66,4.6-0.12,9.21-2.29,13.31c-1.87,3.54-4.49,7.43-2.85,11.57
			c1.38,3.5,4.73,5.6,6.94,8.51c2.45,3.2,3.16,7.32,2.41,11.24c-1.91,9.96-11.89,14.9-21.23,15.39c-0.29,0.02-0.28,0.46,0.01,0.45
			c8.12-0.1,16.96-3.67,20.77-11.27C505.29,340.51,505.92,336.37,505.01,332.51z"/>
	</g>
	<g>
		<g>
			<path class="st10" d="M456.44,320.89c9.01,35.77,17.91,63.14,28.1,69.84c8.22,5.41,19.78,9.2,31.65,11.86
				c13.94,3.1,28.38,4.66,38.5,5.5c3.99,0.33,7.3,0.54,9.66,0.71c5.83,0.37,15.36-38.09,11.24-42.78c-0.95-1.07-4.79-1.9-10.17-2.58
				c-18.13-2.27-53.83-2.81-55.95-4.84c-2.21-2.12-20.41-27.61-36.01-47.63C462.68,297.12,451.44,301.06,456.44,320.89z"/>
			<g>
				<path class="st10" d="M552.67,404.91c0.72,0.33,11.01,4.8,17.32,6.38c4.71,1.18,18.36,4.21,20.18-0.85
					c1.24-3.45-6.58-6.18-12.06-8.23c-2.89-1.08-6.51-3.93-5.74-5.79c1.35-3.25,8.79-0.31,13.72,2.31
					c9.52,5.07,22.29,14.36,27.8,9.42c2.08-1.87-0.53-5.03-4.31-8.08c6.07,3.5,12.5,6.32,14.9,4.33c1.38-1.13,1.39-2.61,0.54-4.27
					c1.85,0.53,3.47,0.35,4.55-0.88c1.85-2.09,0.8-5.03-1.42-8.01c0.67-0.1,1.27-0.46,1.71-1.21c3.85-6.37-17.24-23.49-24.36-24.9
					c-20.97-4.17-43.02-1.56-43.02-1.56C554.56,370.41,552.65,404.9,552.67,404.91z"/>
				<g>
					<path class="st6" d="M582.52,384.41c4.92,0.59,9.86,2.16,14.06,4.83c4.97,3.15,9,7.56,13.62,11.16
						c0.12,0.1-0.04,0.29-0.16,0.19c-2.18-1.87-4.56-3.53-6.82-5.31c-2.2-1.74-4.36-3.56-6.68-5.15c-4.25-2.9-8.94-4.87-14.04-5.64
						C582.45,384.48,582.47,384.4,582.52,384.41z"/>
					<path class="st6" d="M586.07,375.44c5.52,1.29,11.17,2.6,16.34,4.99c5.65,2.62,10.17,7.07,14.6,11.35
						c2.66,2.57,5.27,5.2,7.81,7.88c0.11,0.11-0.04,0.3-0.16,0.19c-4.5-4.42-9.13-8.72-13.9-12.86c-4.48-3.9-9.43-6.82-15.05-8.73
						c-3.17-1.08-6.42-1.91-9.66-2.74C585.99,375.52,586.01,375.43,586.07,375.44z"/>
					<path class="st6" d="M591.62,367.51c5.35,0.89,10.01,1.66,14.82,4.33c6.36,3.54,12.6,9.66,14.79,11.83
						c2.42,2.4,4.76,4.88,7.06,7.39c0.09,0.1-0.08,0.27-0.18,0.17c-5.25-5.49-10.87-10.68-16.79-15.44
						c-2.83-2.28-5.88-4.24-9.27-5.55c-3.36-1.3-6.92-1.98-10.44-2.68C591.59,367.54,591.6,367.51,591.62,367.51z"/>
				</g>
			</g>
		</g>
		<g>
			<g>
				<path class="st3" d="M463.04,356.95L495.18,338c0,0-13.72-22.16-25.44-32.63c-11.72-10.46-16.45-2.25-14.67,12.95
					C456.85,333.52,463.04,356.95,463.04,356.95z"/>
			</g>
			<g>
				<g>
					<g>
						<g>
							<path class="st6" d="M490.12,333.18c-5.15,2.63-18.9,10.2-27.17,16.34c-0.05,0.04,0.07,0.25,0.13,0.22
								c7.67-4.01,22.33-13.15,27.22-16.24C490.39,333.44,490.22,333.13,490.12,333.18z"/>
						</g>
					</g>
				</g>
			</g>
			<path class="st6" d="M492.54,339.56l-29.49,17.39c0,0-6.19-23.42-7.98-38.63c-1.14-9.81,0.41-16.71,4.82-17.55L492.54,339.56z"/>
		</g>
	</g>
	<g>
		<path class="st3" d="M494.09,420.86H387.82c0,0,23.08-89.14,44.44-114.23c0.48-0.58,0.97-1.12,1.47-1.64
			c0.1-0.12,0.19-0.2,0.29-0.31c1.84-1.93,3.77-3.37,5.71-4.41c0.37-0.2,0.75-0.39,1.14-0.56c8.23-3.78,16.92-0.65,23.19,4.72
			c1.99,1.7,24.52,31.01,26.51,42.18c1.72,9.86-4.94,20.46-4.94,20.46L494.09,420.86z"/>
		<g>
			<path class="st6" d="M469.68,363.25c-4.51,0.5-9.03,1.16-13.42,2.33c-2.18,0.58-4.33,1.26-6.47,1.98
				c-1.07,0.36-2.14,0.69-3.22,1.01c-1.11,0.33-2.3,0.64-3.46,0.68c-0.1,0-0.1,0.16,0,0.16c1.13,0.02,2.21,0.04,3.33-0.09
				c1.07-0.12,2.13-0.36,3.17-0.63c2.22-0.57,4.42-1.24,6.63-1.83c4.47-1.19,8.94-2.38,13.48-3.24
				C469.94,363.59,469.89,363.23,469.68,363.25z"/>
			<path class="st6" d="M480.9,367.16c-3.71-0.35-7.5-0.52-11.23-0.44c-1.88,0.04-3.74,0.19-5.6,0.38c-0.89,0.09-1.78,0.2-2.67,0.33
				c-0.98,0.13-1.94,0.4-2.92,0.52c-0.1,0.01-0.1,0.17,0,0.16c0.93-0.08,1.87-0.02,2.8-0.05c0.93-0.03,1.87-0.07,2.8-0.1
				c1.87-0.06,3.74-0.1,5.61-0.18c3.74-0.16,7.47-0.28,11.22-0.31C481.11,367.47,481.09,367.18,480.9,367.16z"/>
		</g>
	</g>
	<g>
		<g>
			<path class="st10" d="M426.2,311.79c-20.01,28.15-45.96,76.98-32.61,85.96c21.95,14.77,82.33,18.74,96.13,19.08
				c5.96,0.15,14.09-39.46,9.69-44.06c-4.4-4.6-67.62-2.15-68.42-5.96c-0.46-2.16,7.28-22.12,11.2-46.06
				C446.71,293.14,431.84,303.86,426.2,311.79z"/>
			<g>
				<path class="st10" d="M488.81,370.58c0,0,18.03-1.85,29.88-2.51c6.61-0.37,18,0.02,22.98,1.97
					c7.45,2.92,36.73,19.89,32.77,27.08c-3.59,6.51-26.89-11.26-26.89-11.26s25.11,15.85,19.35,22.9
					c-5.76,7.04-29.42-16.54-29.42-16.54s25.43,16.87,18.34,23.19c-5.36,4.78-27.99-15.37-27.99-15.37s21.76,14.65,16.46,19.8
					c-5.85,5.69-27.91-11.6-27.91-11.6c-15.67,10.83-27.55,9.57-35.9,7.68C478.44,415.44,488.81,370.58,488.81,370.58z"/>
				<g>
					<path class="st6" d="M539.21,379.81c3.02,1.76,6.08,3.51,8.93,5.53c2.85,2.02,5.63,4.14,8.28,6.41
						c6.5,5.58,9.69,10.09,9.47,9.83c-5.39-6.08-15.48-13.46-18.33-15.48c-2.84-2.01-5.59-4.17-8.43-6.19
						C539.06,379.86,539.14,379.77,539.21,379.81z"/>
					<path class="st6" d="M531.74,389.97c3.75,2.41,7.57,4.66,11.22,7.24c3.63,2.56,8.6,6.33,12.05,9.13
						c0.27,0.22,0.07,0.69-0.21,0.48c-3.55-2.67-8.8-6.27-12.38-8.9c-3.57-2.61-7.07-5.39-10.74-7.87
						C531.62,390.01,531.68,389.93,531.74,389.97z"/>
					<path class="st6" d="M523.76,397.53c5.93,3.39,11.22,7.86,16.31,12.38c0.25,0.22-0.02,0.29-0.29,0.07
						c-5.34-4.22-9.51-7.56-16.14-12.25C523.54,397.67,523.63,397.46,523.76,397.53z"/>
					<path class="st6" d="M486.21,370.25c8.23-0.84,32.4-3.2,40.67-3.35c7.29-0.13,13.46,0.86,19.94,4.32
						c13.9,7.4,23.3,16.77,25.68,19.59c1.44,1.71,3.57,4.45,2.07,6.65c-1.82,2.67-9.64,0.98-18.33-5.51
						c-0.31-0.23-0.15-0.41,0.17-0.2c12.1,8.04,16.48,6.56,17.51,4.89c0.66-1.08-0.23-2.75-1.04-4.02
						c-1.17-1.84-2.89-3.46-4.49-4.92c-5.51-5.03-12-9.5-18.42-13.29c-7.38-4.35-14.98-6.48-23.55-6.37
						c-8.47,0.11-31.74,2.54-40.21,2.53C486.03,370.57,486.04,370.27,486.21,370.25z"/>
					<path class="st6" d="M567.88,405c-0.68-2.21-2.49-4.1-3.95-5.83c-1.8-2.14-3.75-4.23-5.95-5.97c-0.1-0.08-0.24,0.05-0.14,0.14
						c1.85,1.86,3.68,3.71,5.3,5.78c0.88,1.13,1.7,2.29,2.44,3.51c0.71,1.17,1.54,2.52,1.37,3.95c-0.33,2.73-3.73,2.99-5.81,2.46
						c-1.35-0.35-2.66-0.88-3.92-1.46c-1.31-0.6-3.76-2.17-4.92-3.03c-0.14-0.1-0.45-0.03-0.31,0.08c3.27,2.57,9.51,7.97,13.93,5.35
						C567.7,408.93,568.49,406.98,567.88,405z"/>
				</g>
			</g>
		</g>
		<g>
			<g>
				<path class="st3" d="M401.26,341.12l35.11,12.65c0,0,8.31-24.71,8.88-40.41c0.57-15.7-8.76-14.1-19.33-3.03
					C415.34,321.4,401.26,341.12,401.26,341.12z"/>
			</g>
			<g>
				<g>
					<g>
						<g>
							<path class="st6" d="M436.84,346.8c-5.31-2.29-19.92-8.04-29.92-10.48c-0.06-0.01-0.15,0.22-0.09,0.24
								c7.98,3.34,24.38,8.8,29.88,10.59C436.81,347.18,436.94,346.84,436.84,346.8z"/>
						</g>
					</g>
				</g>
				<path class="st6" d="M443.62,333.5c0.01-0.05-0.06-0.08-0.09-0.03c-0.63,1.21-1.19,2.44-1.73,3.7c0.61-2.74,1.16-5.5,1.64-8.26
					c0.02-0.1-0.12-0.12-0.15-0.03c-2.36,8.1-4.91,16.15-7.09,24.29c-0.9-0.04-1.8-0.1-2.69-0.22c-0.15-0.02-0.2,0.2-0.05,0.23
					c0.97,0.24,1.93,0.54,2.87,0.87c0.21,0.07,0.51,0.05,0.61-0.2c1.73-4.61,3.12-9.35,4.28-14.15c0.37-0.73,0.73-1.47,1.04-2.22
					C442.81,336.16,443.27,334.86,443.62,333.5z"/>
			</g>
		</g>
	</g>
	<g>
		<path class="st1" d="M450.01,296.43c-7.97,1.47-8.05,10.27-5.76,16.69c2.28,6.42,7.29,14.09,11.47,14.29
			c4.18,0.2,5.98-10.16,5.98-10.16s5.28,7.07,8.61,5.11c3.32-1.95-1.73-14.48-5.79-18.62C458.63,297.73,454.24,295.65,450.01,296.43
			z"/>
		<g>
			<g>
				<path class="st10" d="M445.27,300.95c0.17,1.9,7.23,15.09,15.69,15.9c2.76,0.26,4.84-14.72,4.84-14.72l0.41-1.07l5.68-14.99
					l-16.52-14.28l-2.41-1.92c0,0-1.28,4.2-2.83,9.45c-0.07,0.24-0.15,0.49-0.22,0.75c-0.1,0.29-0.19,0.57-0.26,0.85
					c-0.24,0.78-0.48,1.58-0.71,2.38c-0.17,0.61-0.35,1.2-0.51,1.85c-0.18,0.64-0.33,1.27-0.51,1.92
					C446.32,293.45,445.21,300.14,445.27,300.95z"/>
				<path class="st6" d="M450.13,279.32c2.67,12.96,11.79,19.4,16.07,21.74l5.68-14.99l-16.52-14.28l-2.41-1.92
					C452.97,269.87,451.68,274.07,450.13,279.32z"/>
			</g>
			<g>
				<path class="st10" d="M496.52,264.35c-1.45,28.1-18.44,30.4-24.5,30.08c-5.5-0.29-24.19-1.98-25.65-30.07
					c-1.46-28.1,12.06-36.3,24.67-36.3C483.66,228.05,497.97,236.25,496.52,264.35z"/>
				<g>
					<path class="st6" d="M492.81,259.29c-0.65-0.13-1.23-0.35-1.87-0.54c-0.71-0.21-1.3-0.31-1.8-0.91
						c-0.27-0.32-0.2-0.93,0.09-1.22c0.67-0.67,1.61-0.62,2.48-0.4c0.94,0.24,1.61,0.67,2.19,1.45
						C494.46,258.44,493.67,259.46,492.81,259.29z"/>
					<path class="st6" d="M474.83,258.09c0.66-0.03,1.27-0.16,1.93-0.26c0.74-0.11,1.34-0.12,1.91-0.64
						c0.31-0.28,0.33-0.89,0.09-1.22c-0.57-0.76-1.5-0.85-2.4-0.76c-0.97,0.1-1.69,0.43-2.38,1.12
						C473.32,257,473.96,258.13,474.83,258.09z"/>
					<g>
						<g>
							<path class="st6" d="M477.69,265.04c-0.01-0.07-0.15,0.08-0.16,0.16c-0.04,1.92-0.4,4.1-2.16,4.65
								c-0.05,0.02-0.05,0.11,0.01,0.11C477.51,269.78,477.96,266.87,477.69,265.04z"/>
							<path class="st6" d="M476.08,262.96c-3.07-0.39-3.62,5.77-0.78,6.13C478.1,269.44,478.65,263.29,476.08,262.96z"/>
						</g>
						<path class="st6" d="M474.84,263.18c-0.57,0.3-1.15,0.87-1.81,0.87c-0.76,0.01-1.27-0.69-1.7-1.35
							c-0.05-0.07-0.1-0.02-0.11,0.06c-0.12,1.18,0.22,2.43,1.47,2.72c1.14,0.26,2.06-0.71,2.46-1.87
							C475.24,263.4,475.07,263.06,474.84,263.18z"/>
					</g>
					<g>
						<g>
							<path class="st6" d="M488.15,265.57c0.02-0.07,0.14,0.1,0.13,0.18c-0.25,1.9-0.21,4.12,1.46,4.92
								c0.05,0.02,0.04,0.12-0.03,0.1C487.64,270.28,487.61,267.34,488.15,265.57z"/>
							<path class="st6" d="M490.05,263.75c3.09,0.07,2.73,6.24-0.13,6.18C487.1,269.87,487.46,263.69,490.05,263.75z"/>
						</g>
						<path class="st6" d="M491.31,264.23c0.47,0.36,0.92,0.98,1.5,1.05c0.67,0.08,1.21-0.56,1.68-1.17
							c0.05-0.06,0.09-0.01,0.09,0.07c-0.04,1.18-0.5,2.39-1.64,2.55c-1.05,0.15-1.75-0.91-1.96-2.1
							C490.94,264.41,491.12,264.09,491.31,264.23z"/>
					</g>
					<path class="st6" d="M476.27,279.75c0.39,0.51,0.76,1.18,1.45,1.33c0.65,0.15,1.47-0.05,2.11-0.2
						c0.06-0.02,0.12,0.06,0.07,0.11c-0.59,0.66-1.69,0.98-2.55,0.7c-0.84-0.27-1.16-1.07-1.27-1.88
						C476.06,279.69,476.21,279.67,476.27,279.75z"/>
					<g>
						<path class="st6" d="M484.41,274.39c0,0,0.17,2.88,0.07,4.23c-0.01,0.13-4.99,0.75-6.88-2.72c-0.08-0.14,0.1-0.26,0.21-0.17
							c1.67,1.44,3.61,1.93,5.71,2.13c0.12-0.37-0.46-4.93-0.25-4.93c0.74-0.01,2.15,0.61,3,0.93c-0.19-6.02-1.33-11.95-1.43-17.95
							c0-0.21,0.31-0.25,0.36-0.06c1.64,6.14,2.01,13.06,2.36,19.26C487.62,275.88,484.93,274.66,484.41,274.39z"/>
					</g>
				</g>
				<path class="st6" d="M448.39,265.5c6.88,0.66,11.64-20.11,12.2-22.66c-0.27,1.63-1.65,10.26-1.03,10.69
					c0.16,0.1,0.94,0.04,2.2-0.12l0.02,0c0.13-0.98,0.35-2.03,0.66-3.06c0.12-0.47,0.04,1.07,0.06,2.97
					c0.4-0.06,0.84-0.13,1.31-0.19c0.19-1.87,0.61-4.17,1.52-6.5c0.31-0.79,0.04,2.92,0.4,6.24c4.89-0.65,11.93-1.42,18.33-0.79
					c1.71,0.16,3.18,0.38,4.48,0.61c0.35-2.55,0.41-5.32,0.52-4.71c0.35,1.75,0.45,3.46,0.44,4.89c0.7,0.13,1.35,0.27,1.93,0.4
					c0.65-3.59-0.3-9.58,0.16-8.62c1.76,3.71,2.21,7.41,2.31,9.35c2.4,0.8,3.02,1.37,3.17,0.74c0.27-1.14,0.2-11.43-6.69-19.88
					c-7.49-9.18-24.28-13.46-35.54-2.32c0,0-8.6,4.12-10.95,12.29C441.53,252.99,444.42,265.11,448.39,265.5z"/>
				<g>
					<g>
						<path class="st10" d="M450.93,264.65c0,0-4.87-9.54-9.12-7.92c-4.25,1.62-1.43,14.86,2.97,17.23
							c4.39,2.37,6.67-1.66,6.67-1.66L450.93,264.65z"/>
						<path class="st6" d="M442.71,260.5c-0.07-0.02-0.1,0.09-0.04,0.12c3.07,1.77,4.36,5.02,5.12,8.31
							c-0.8-1.34-2.02-2.18-3.79-1.25c-0.09,0.05-0.03,0.19,0.06,0.19c1.37-0.1,2.3,0.26,3.05,1.45c0.53,0.84,0.83,1.86,1.17,2.79
							c0.11,0.31,0.66,0.23,0.59-0.12c-0.01-0.03-0.01-0.05-0.02-0.08C449.52,267.78,447.1,261.54,442.71,260.5z"/>
					</g>
				</g>
			</g>
		</g>
	</g>
</g>
<g>
	<g>
		<g>
			<g>
				<path class="st11" d="M288.67,309.04c-7.13,31.04-21.55,70.33-32.7,78.26c-8.99,6.4-56.15,17.66-58.78,17.94
					c-6.51,0.66-19.37-45.34-12.62-47.21c8.5-2.35,48.92-3.61,51.22-5.97c2.39-2.47,17.09-22.39,33.75-45.46
					C281.03,290.65,293.09,289.78,288.67,309.04z"/>
				<g>
					<path class="st11" d="M202.42,402.71c-0.78,0.39-11.79,5.93-18.6,7.91c-5.08,1.47-19.82,5.32-21.99-0.11
						c-1.49-3.7,6.91-6.99,12.8-9.44c3.1-1.29,6.93-4.54,6.01-6.53c-1.6-3.49-9.58,0.02-14.84,3.07
						c-10.16,5.9-23.68,16.52-29.89,11.37c-2.34-1.95,0.38-5.49,4.36-8.97c-6.46,4.05-13.36,7.38-16.05,5.32
						c-1.54-1.17-1.61-2.78-0.76-4.62c-2,0.65-3.76,0.52-4.99-0.78c-2.1-2.2-1.08-5.44,1.22-8.77c-0.74-0.08-1.4-0.45-1.91-1.25
						c-4.45-6.78,17.82-26.26,25.52-28.08c22.66-5.39,46.76-3.42,46.76-3.42C198.98,365.49,202.43,402.69,202.42,402.71z"/>
					<g>
						<path class="st6" d="M169.1,381.85c-5.34,0.84-10.59,2.83-15.11,5.82c-5.74,3.79-9.55,8.23-14.37,12.7
							c-0.13,0.12,0.05,0.32,0.18,0.2c2.3-2.12,11.81-10.11,14.27-11.92c4.51-3.33,9.54-5.66,15.06-6.7
							C169.18,381.93,169.16,381.84,169.1,381.85z"/>
						<path class="st6" d="M164.88,372.24c-5.95,1.63-12.06,3.27-17.58,6.09c-6.05,3.08-10.78,8.11-15.44,12.94
							c-2.79,2.9-5.53,5.87-8.19,8.9c-0.11,0.13,0.06,0.33,0.18,0.2c4.72-5,9.59-9.86,14.61-14.55c4.72-4.42,9.99-7.8,16.04-10.11
							c3.41-1.3,6.91-2.33,10.4-3.36C164.96,372.32,164.94,372.22,164.88,372.24z"/>
						<path class="st6" d="M158.52,363.83c-5.79,1.19-10.83,2.2-15.96,5.3c-6.78,4.1-13.33,11.02-15.63,13.47
							c-2.54,2.71-4.98,5.5-7.38,8.33c-0.1,0.11,0.1,0.29,0.2,0.17c5.49-6.18,11.41-12.06,17.65-17.48
							c2.98-2.59,6.23-4.85,9.87-6.42c3.6-1.55,7.46-2.43,11.26-3.34C158.55,363.86,158.54,363.82,158.52,363.83z"/>
					</g>
				</g>
			</g>
			<g>
				<path class="st5" d="M236.14,347.53l43.47-1.84c0,0,7.89-21.54,10.8-40.66c2.9-19.12-13.39-12.26-29.52,8.34
					S236.14,347.53,236.14,347.53z"/>
				<path class="st6" d="M281.09,336.25c-9.4-0.24-18.83,0.18-28.23,0.78c-2.66,0.17-5.32,0.4-7.96,0.7c-0.07,0.01-0.08,0.12,0,0.12
					c4.7,0.02,9.39-0.15,14.09-0.29c4.71-0.14,9.43-0.33,14.13-0.6c2.66-0.16,5.31-0.31,7.97-0.52
					C281.2,336.42,281.21,336.25,281.09,336.25z"/>
				<path class="st4" d="M267.35,308.19c-0.24,0.19-0.45,0.28-0.7,0.34c-0.48,0.09-0.95-0.05-1.29-0.39
					c-0.02-0.02-0.04-0.04-0.07-0.06c-0.16,0.19-0.32,0.36-0.48,0.55c0.02,0.01,0.03,0.02,0.04,0.03c0.49,0.51,1.33,0.71,1.97,0.41
					c0.33-0.12,0.6-0.38,0.77-0.63c0.17-0.25,0.35-0.49,0.5-0.76C267.84,307.83,267.6,308.02,267.35,308.19z M276.93,342.11
					c-0.06-0.3-0.09-0.59-0.18-0.89c-0.08,0.3-0.12,0.59-0.18,0.89c-0.04,0.31-0.1,0.53-0.23,0.75c-0.25,0.41-0.7,0.67-1.15,0.67
					c-0.71-0.01-1.44,0.45-1.69,1.1c-0.15,0.32-0.15,0.71-0.09,1c0.02,0.1,0.04,0.22,0.06,0.32l0.24-0.01
					c0.02-0.1,0.03-0.21,0.05-0.31c0.04-0.3,0.11-0.52,0.25-0.74c0.28-0.4,0.71-0.64,1.19-0.63c0.74-0.01,1.42-0.5,1.66-1.16
					C277,342.77,276.98,342.38,276.93,342.11z M265.2,324.63c-0.06-0.29-0.1-0.59-0.19-0.88c-0.07,0.29-0.11,0.59-0.18,0.88
					c-0.03,0.31-0.09,0.53-0.22,0.75c-0.26,0.42-0.71,0.67-1.16,0.67c-0.71-0.01-1.43,0.45-1.68,1.11c-0.15,0.31-0.16,0.7-0.1,0.99
					c0.06,0.29,0.1,0.59,0.19,0.88c0.08-0.29,0.11-0.59,0.18-0.88c0.03-0.3,0.11-0.52,0.25-0.73c0.27-0.42,0.71-0.65,1.19-0.64
					c0.73,0,1.42-0.5,1.65-1.16C265.27,325.29,265.25,324.91,265.2,324.63z M257.4,342.24c-0.25,0.2-0.44,0.31-0.68,0.37
					c-0.48,0.11-0.98-0.02-1.3-0.34c-0.49-0.51-1.33-0.71-1.97-0.42c-0.32,0.12-0.6,0.39-0.77,0.63c-0.17,0.26-0.35,0.49-0.5,0.76
					c0.27-0.16,0.5-0.33,0.75-0.5c0.24-0.19,0.45-0.29,0.7-0.34c0.48-0.09,0.95,0.04,1.29,0.39c0.53,0.51,1.37,0.65,2,0.34
					c0.31-0.12,0.58-0.41,0.74-0.64c0.17-0.26,0.35-0.49,0.51-0.76C257.89,341.9,257.65,342.08,257.4,342.24z M280.85,329.03
					c-0.24,0.2-0.44,0.31-0.68,0.37c-0.47,0.11-0.96-0.01-1.29-0.34c-0.5-0.51-1.34-0.7-1.98-0.4c-0.32,0.11-0.6,0.38-0.77,0.63
					c-0.17,0.25-0.34,0.48-0.5,0.75c0.27-0.15,0.51-0.33,0.76-0.5c0.24-0.19,0.45-0.29,0.68-0.34c0.49-0.09,0.96,0.04,1.3,0.39
					c0.52,0.51,1.36,0.65,1.99,0.34c0.32-0.12,0.59-0.41,0.75-0.64c0.17-0.25,0.35-0.49,0.5-0.76
					C281.33,328.69,281.11,328.86,280.85,329.03z M283.26,314.9c-0.3-0.03-0.52-0.1-0.73-0.25c-0.41-0.27-0.65-0.71-0.64-1.18
					c0-0.74-0.5-1.43-1.16-1.66c-0.32-0.13-0.71-0.12-0.99-0.06c-0.29,0.05-0.59,0.09-0.88,0.18c0.29,0.08,0.59,0.11,0.88,0.18
					c0.31,0.03,0.53,0.09,0.75,0.23c0.42,0.25,0.67,0.7,0.67,1.15c-0.01,0.71,0.45,1.43,1.11,1.69c0.31,0.13,0.7,0.15,0.99,0.09
					c0.29-0.06,0.59-0.1,0.88-0.19C283.86,314.99,283.55,314.96,283.26,314.9z M248.14,334.07c-0.3-0.04-0.52-0.11-0.73-0.25
					c-0.41-0.27-0.64-0.71-0.63-1.19c0-0.15-0.02-0.3-0.07-0.44c-0.21,0.29-0.4,0.57-0.61,0.85v0.01c0.12,0.57,0.53,1.07,1.06,1.28
					c0.31,0.15,0.7,0.16,0.99,0.09c0.3-0.06,0.59-0.09,0.89-0.18C248.73,334.16,248.44,334.13,248.14,334.07z M281.42,294.84
					c0.02,0.13,0.04,0.27,0.07,0.4c0.05,0.27,0.07,0.66-0.06,0.99c-0.23,0.66-0.92,1.15-1.66,1.16c-0.48-0.01-0.91,0.23-1.19,0.63
					c-0.13,0.21-0.21,0.44-0.24,0.74c-0.06,0.29-0.1,0.59-0.19,0.88c-0.08-0.29-0.11-0.59-0.18-0.88c-0.05-0.29-0.04-0.67,0.09-1
					c0.25-0.65,0.99-1.12,1.69-1.1c0.46,0,0.9-0.26,1.15-0.67c0.13-0.22,0.2-0.44,0.23-0.75c0.02-0.1,0.04-0.2,0.05-0.3
					L281.42,294.84z"/>
			</g>
		</g>
		<g>
			<path class="st5" d="M247.13,420.97h110.95c1.22-2.24-16.96-99.43-54.38-126.8c-8.3-6.07-23.03-2.17-27.13,3.74
				C255.99,327.58,247.13,420.97,247.13,420.97z"/>
			<path class="st4" d="M294.19,338.5c0.3-0.08,0.59-0.12,0.89-0.18c0.27-0.05,0.67-0.07,0.98,0.07c0.67,0.23,1.16,0.92,1.17,1.66
				c-0.01,0.48,0.23,0.92,0.63,1.19c0.21,0.14,0.43,0.21,0.73,0.25c0.3,0.06,0.59,0.1,0.89,0.18c-0.3,0.08-0.59,0.12-0.89,0.18
				c-0.29,0.05-0.67,0.05-0.99-0.09c-0.66-0.25-1.12-0.98-1.11-1.69c0-0.46-0.26-0.9-0.67-1.15c-0.22-0.13-0.43-0.19-0.75-0.23
				C294.78,338.62,294.49,338.59,294.19,338.5z M311.43,397.17c0.31,0.03,0.53,0.1,0.75,0.23c0.41,0.25,0.68,0.7,0.67,1.15
				c-0.01,0.71,0.45,1.44,1.11,1.69c0.32,0.14,0.7,0.15,0.99,0.1c0.3-0.06,0.59-0.1,0.89-0.18c-0.3-0.08-0.59-0.12-0.89-0.18
				c-0.3-0.03-0.52-0.11-0.73-0.25c-0.41-0.27-0.64-0.71-0.63-1.19c-0.01-0.73-0.5-1.43-1.17-1.66c-0.32-0.13-0.71-0.12-0.98-0.07
				c-0.3,0.06-0.59,0.1-0.89,0.18C310.84,397.08,311.13,397.11,311.43,397.17z M331.78,341.84c0.31,0.03,0.53,0.1,0.75,0.23
				c0.41,0.25,0.68,0.7,0.67,1.15c-0.01,0.71,0.45,1.44,1.11,1.69c0.32,0.14,0.7,0.15,0.99,0.1c0.3-0.06,0.59-0.1,0.89-0.18
				c-0.3-0.08-0.59-0.12-0.89-0.18c-0.3-0.03-0.52-0.11-0.73-0.25c-0.41-0.27-0.64-0.71-0.63-1.19c-0.01-0.73-0.5-1.43-1.17-1.66
				c-0.32-0.13-0.71-0.12-0.98-0.07c-0.3,0.06-0.59,0.1-0.89,0.18C331.19,341.75,331.49,341.78,331.78,341.84z M279.75,312.1
				c0.31,0.03,0.53,0.1,0.75,0.23c0.41,0.25,0.68,0.7,0.67,1.15c-0.01,0.71,0.45,1.44,1.11,1.69c0.32,0.14,0.7,0.15,0.99,0.1
				c0.3-0.06,0.59-0.1,0.89-0.18c-0.3-0.08-0.59-0.12-0.89-0.18c-0.3-0.03-0.52-0.11-0.73-0.25c-0.41-0.27-0.64-0.71-0.63-1.19
				c-0.01-0.73-0.5-1.43-1.17-1.66c-0.32-0.13-0.71-0.12-0.98-0.07c-0.3,0.06-0.59,0.1-0.89,0.18
				C279.16,312,279.45,312.04,279.75,312.1z M311.78,311.43c0.31,0.03,0.53,0.1,0.75,0.23c0.41,0.25,0.68,0.7,0.67,1.15
				c-0.01,0.71,0.45,1.44,1.11,1.69c0.32,0.14,0.7,0.15,0.99,0.1c0.3-0.06,0.59-0.1,0.89-0.18c-0.3-0.08-0.59-0.12-0.89-0.18
				c-0.3-0.03-0.52-0.11-0.73-0.25c-0.41-0.27-0.64-0.71-0.63-1.19c-0.01-0.73-0.5-1.43-1.17-1.66c-0.32-0.13-0.71-0.12-0.98-0.07
				c-0.3,0.06-0.59,0.1-0.89,0.18C311.18,311.33,311.48,311.37,311.78,311.43z M271.89,363.15c0.31,0.03,0.53,0.1,0.75,0.23
				c0.41,0.25,0.68,0.7,0.67,1.15c-0.01,0.71,0.45,1.44,1.11,1.69c0.32,0.14,0.7,0.15,0.99,0.09c0.3-0.06,0.59-0.1,0.89-0.18
				c-0.3-0.08-0.59-0.12-0.89-0.18c-0.3-0.03-0.52-0.11-0.73-0.25c-0.41-0.27-0.64-0.71-0.63-1.19c-0.01-0.73-0.5-1.43-1.17-1.66
				c-0.32-0.13-0.71-0.12-0.98-0.07c-0.3,0.06-0.59,0.1-0.89,0.18C271.3,363.06,271.59,363.09,271.89,363.15z M306.81,416.74
				c0.31,0.03,0.53,0.1,0.75,0.23c0.41,0.25,0.68,0.7,0.67,1.15c-0.01,0.71,0.45,1.44,1.11,1.69c0.32,0.14,0.7,0.15,0.99,0.1
				c0.3-0.06,0.59-0.1,0.89-0.18c-0.3-0.08-0.59-0.12-0.89-0.18c-0.3-0.03-0.52-0.11-0.73-0.25c-0.41-0.27-0.64-0.71-0.63-1.19
				c-0.01-0.73-0.5-1.43-1.17-1.66c-0.32-0.13-0.71-0.12-0.98-0.07c-0.3,0.06-0.59,0.1-0.89,0.18
				C306.22,416.65,306.52,416.68,306.81,416.74z M289.62,387.95c0.31,0.03,0.53,0.1,0.75,0.23c0.41,0.25,0.68,0.7,0.67,1.15
				c-0.01,0.71,0.45,1.44,1.11,1.69c0.32,0.14,0.7,0.15,0.99,0.1c0.3-0.06,0.59-0.1,0.89-0.18c-0.3-0.08-0.59-0.12-0.89-0.18
				c-0.3-0.03-0.52-0.11-0.73-0.25c-0.41-0.27-0.64-0.71-0.63-1.19c-0.01-0.73-0.5-1.43-1.17-1.66c-0.32-0.13-0.71-0.12-0.98-0.07
				c-0.3,0.06-0.59,0.1-0.89,0.18C289.03,387.85,289.32,387.89,289.62,387.95z M250.24,417.47c-0.3-0.04-0.52-0.11-0.73-0.25
				c-0.41-0.27-0.65-0.7-0.63-1.19c-0.01-0.68-0.44-1.34-1.05-1.6c-0.03,0.24-0.06,0.46-0.07,0.68c0.25,0.25,0.4,0.58,0.39,0.93
				c-0.01,0.7,0.45,1.43,1.11,1.68c0.31,0.15,0.7,0.16,0.99,0.1c0.3-0.06,0.59-0.1,0.89-0.18
				C250.83,417.56,250.54,417.52,250.24,417.47z M257.8,393.18c0.31,0.03,0.53,0.1,0.75,0.23c0.41,0.25,0.68,0.7,0.67,1.15
				c-0.01,0.71,0.45,1.44,1.11,1.69c0.32,0.14,0.7,0.15,0.99,0.1c0.3-0.06,0.59-0.1,0.89-0.18c-0.3-0.08-0.59-0.12-0.89-0.18
				c-0.3-0.03-0.52-0.11-0.73-0.25c-0.41-0.27-0.64-0.71-0.63-1.19c-0.01-0.73-0.5-1.43-1.17-1.66c-0.32-0.13-0.71-0.12-0.98-0.07
				c-0.3,0.06-0.59,0.1-0.89,0.18C257.21,393.09,257.51,393.12,257.8,393.18z M304.26,363.86c0.31,0.03,0.53,0.1,0.75,0.23
				c0.41,0.25,0.68,0.7,0.67,1.15c-0.01,0.71,0.45,1.44,1.11,1.69c0.32,0.14,0.7,0.15,0.99,0.1c0.3-0.06,0.59-0.1,0.89-0.18
				c-0.3-0.08-0.59-0.12-0.89-0.18c-0.3-0.03-0.52-0.11-0.73-0.25c-0.41-0.27-0.64-0.71-0.63-1.19c-0.01-0.73-0.5-1.43-1.17-1.66
				c-0.32-0.13-0.71-0.12-0.98-0.07c-0.3,0.06-0.59,0.1-0.89,0.18C303.67,363.76,303.97,363.8,304.26,363.86z M344.94,403.29
				c0.31,0.03,0.53,0.1,0.75,0.23c0.41,0.25,0.68,0.7,0.67,1.15c-0.01,0.71,0.45,1.44,1.11,1.69c0.32,0.14,0.7,0.15,0.99,0.1
				c0.3-0.06,0.59-0.1,0.89-0.18c-0.3-0.08-0.59-0.12-0.89-0.18c-0.3-0.03-0.52-0.11-0.73-0.25c-0.41-0.27-0.64-0.71-0.63-1.19
				c-0.01-0.73-0.5-1.43-1.17-1.66c-0.32-0.13-0.71-0.12-0.98-0.07c-0.3,0.06-0.59,0.1-0.89,0.18
				C344.35,403.19,344.65,403.23,344.94,403.29z M328.79,379.22c0.31,0.03,0.53,0.1,0.75,0.23c0.41,0.25,0.68,0.7,0.67,1.15
				c-0.01,0.71,0.45,1.44,1.11,1.69c0.32,0.14,0.7,0.15,0.99,0.09c0.3-0.06,0.59-0.1,0.89-0.18c-0.3-0.08-0.59-0.12-0.89-0.18
				c-0.3-0.03-0.52-0.11-0.73-0.25c-0.41-0.27-0.64-0.71-0.63-1.19c-0.01-0.73-0.5-1.43-1.17-1.66c-0.32-0.13-0.71-0.12-0.98-0.07
				c-0.3,0.06-0.59,0.1-0.89,0.18C328.2,379.12,328.5,379.16,328.79,379.22z M280.85,329.03c-0.25,0.2-0.44,0.31-0.69,0.37
				c-0.47,0.11-0.97-0.01-1.29-0.34c-0.49-0.51-1.33-0.7-1.98-0.41c-0.32,0.12-0.6,0.39-0.77,0.63c-0.17,0.25-0.35,0.49-0.5,0.75
				c0.27-0.15,0.5-0.33,0.75-0.5c0.24-0.19,0.45-0.29,0.69-0.34c0.48-0.09,0.96,0.04,1.29,0.39c0.52,0.51,1.36,0.66,2,0.35
				c0.32-0.13,0.59-0.42,0.74-0.65c0.17-0.25,0.35-0.49,0.5-0.75C281.34,328.68,281.1,328.87,280.85,329.03z M328.66,363.43
				c-0.25,0.2-0.44,0.31-0.69,0.37c-0.47,0.11-0.97-0.01-1.29-0.34c-0.49-0.51-1.33-0.7-1.98-0.41c-0.32,0.12-0.6,0.39-0.77,0.63
				c-0.17,0.25-0.35,0.49-0.5,0.75c0.27-0.15,0.5-0.33,0.75-0.5c0.24-0.19,0.45-0.29,0.69-0.34c0.48-0.09,0.96,0.05,1.29,0.39
				c0.52,0.51,1.36,0.66,2,0.35c0.32-0.13,0.59-0.42,0.74-0.65c0.17-0.25,0.35-0.49,0.5-0.75
				C329.14,363.08,328.91,363.26,328.66,363.43z M298.82,299.39c-0.25,0.2-0.44,0.31-0.69,0.37c-0.47,0.11-0.97-0.01-1.29-0.34
				c-0.49-0.51-1.33-0.7-1.98-0.41c-0.32,0.12-0.6,0.39-0.77,0.63c-0.17,0.25-0.35,0.49-0.5,0.75c0.27-0.15,0.5-0.33,0.75-0.5
				c0.24-0.19,0.45-0.29,0.69-0.34c0.48-0.09,0.96,0.05,1.29,0.39c0.52,0.51,1.36,0.66,2,0.35c0.32-0.13,0.59-0.42,0.74-0.65
				c0.17-0.25,0.35-0.49,0.5-0.75C299.31,299.04,299.08,299.22,298.82,299.39z M298.24,318.36c-0.03,0.31-0.1,0.53-0.23,0.75
				c-0.25,0.41-0.7,0.68-1.15,0.67c-0.71-0.01-1.44,0.45-1.69,1.11c-0.14,0.32-0.15,0.7-0.09,0.99c0.06,0.3,0.1,0.59,0.18,0.89
				c0.08-0.3,0.12-0.59,0.18-0.89c0.03-0.3,0.11-0.52,0.25-0.73c0.27-0.41,0.71-0.64,1.19-0.63c0.73-0.01,1.43-0.5,1.66-1.17
				c0.13-0.32,0.12-0.71,0.07-0.98c-0.06-0.3-0.1-0.59-0.18-0.89C298.33,317.77,298.3,318.06,298.24,318.36z M291.2,370.33
				c-0.03,0.31-0.1,0.53-0.23,0.75c-0.25,0.41-0.7,0.68-1.15,0.67c-0.71-0.01-1.44,0.45-1.69,1.11c-0.14,0.32-0.15,0.7-0.1,0.99
				c0.06,0.3,0.1,0.59,0.18,0.89c0.08-0.3,0.12-0.59,0.18-0.89c0.03-0.3,0.11-0.52,0.25-0.73c0.27-0.41,0.71-0.64,1.19-0.63
				c0.73-0.01,1.43-0.5,1.66-1.17c0.13-0.32,0.12-0.71,0.07-0.98c-0.06-0.3-0.1-0.59-0.18-0.89
				C291.29,369.74,291.26,370.04,291.2,370.33z M328.08,325.05c-0.05,0.01-0.09,0.01-0.15,0.01c-0.71-0.01-1.44,0.44-1.69,1.11
				c-0.14,0.31-0.15,0.69-0.09,0.99c0.06,0.3,0.09,0.59,0.18,0.89c0.08-0.3,0.12-0.59,0.18-0.89c0.03-0.31,0.11-0.52,0.24-0.73
				c0.28-0.41,0.71-0.65,1.19-0.64c0.17,0,0.32-0.03,0.48-0.08C328.31,325.49,328.19,325.27,328.08,325.05z M327.82,409
				c-0.03,0.31-0.1,0.53-0.23,0.75c-0.25,0.41-0.7,0.68-1.15,0.67c-0.71-0.01-1.44,0.45-1.69,1.11c-0.14,0.32-0.15,0.7-0.09,0.99
				c0.06,0.3,0.1,0.59,0.18,0.89c0.08-0.3,0.12-0.59,0.18-0.89c0.03-0.3,0.11-0.52,0.25-0.73c0.27-0.41,0.71-0.64,1.19-0.63
				c0.73-0.01,1.43-0.5,1.66-1.17c0.13-0.32,0.12-0.71,0.07-0.98c-0.06-0.3-0.1-0.59-0.18-0.89
				C327.92,408.41,327.88,408.71,327.82,409z M343.69,361.89c-0.01,0.03-0.02,0.05-0.04,0.07c-0.25,0.42-0.69,0.68-1.16,0.67
				c-0.7-0.01-1.43,0.45-1.68,1.11c-0.15,0.31-0.16,0.7-0.1,0.99c0.06,0.3,0.1,0.59,0.18,0.89c0.08-0.3,0.12-0.59,0.18-0.89
				c0.04-0.3,0.11-0.52,0.25-0.73c0.27-0.41,0.7-0.65,1.19-0.64c0.55,0,1.1-0.3,1.42-0.73c0,0,0,0,0-0.01
				C343.86,362.39,343.77,362.14,343.69,361.89z M262.54,372.19c-0.03,0.31-0.1,0.53-0.23,0.75c-0.25,0.41-0.7,0.68-1.15,0.67
				c-0.71-0.01-1.44,0.45-1.69,1.11c-0.14,0.32-0.15,0.7-0.1,0.99c0.06,0.3,0.1,0.59,0.18,0.89c0.08-0.3,0.12-0.59,0.18-0.89
				c0.03-0.3,0.11-0.52,0.25-0.73c0.27-0.41,0.71-0.64,1.19-0.63c0.73-0.01,1.43-0.5,1.66-1.17c0.13-0.32,0.12-0.71,0.07-0.98
				c-0.06-0.3-0.1-0.59-0.18-0.89C262.64,371.6,262.6,371.9,262.54,372.19z M264.49,325.62c-0.16,0.52-0.31,1.03-0.47,1.54
				c0.18-0.18,0.31-0.39,0.4-0.62C264.54,326.24,264.53,325.88,264.49,325.62z M281.14,295.24c-0.03,0.31-0.1,0.53-0.23,0.75
				c-0.25,0.41-0.7,0.68-1.15,0.67c-0.71-0.01-1.44,0.45-1.69,1.11c-0.14,0.32-0.15,0.7-0.1,0.99c0.06,0.3,0.1,0.59,0.18,0.89
				c0.08-0.3,0.12-0.59,0.18-0.89c0.03-0.3,0.11-0.52,0.25-0.73c0.27-0.41,0.71-0.64,1.19-0.63c0.73-0.01,1.43-0.5,1.66-1.17
				c0.13-0.32,0.12-0.71,0.07-0.98c-0.06-0.3-0.1-0.59-0.18-0.89C281.23,294.65,281.2,294.94,281.14,295.24z M276.57,342.11
				c-0.03,0.31-0.1,0.53-0.23,0.75c-0.25,0.41-0.7,0.68-1.15,0.67c-0.71-0.01-1.44,0.45-1.69,1.11c-0.14,0.32-0.15,0.7-0.1,0.99
				c0.06,0.3,0.1,0.59,0.18,0.89c0.08-0.3,0.12-0.59,0.18-0.89c0.03-0.3,0.11-0.52,0.25-0.73c0.27-0.41,0.71-0.64,1.19-0.63
				c0.73-0.01,1.43-0.5,1.66-1.17c0.13-0.32,0.12-0.71,0.07-0.98c-0.06-0.3-0.1-0.59-0.18-0.89
				C276.67,341.52,276.63,341.81,276.57,342.11z M317.58,348.41c-0.03,0.31-0.1,0.53-0.23,0.75c-0.25,0.41-0.7,0.68-1.15,0.67
				c-0.71-0.01-1.44,0.45-1.69,1.11c-0.14,0.32-0.15,0.7-0.09,0.99c0.06,0.3,0.1,0.59,0.18,0.89c0.08-0.3,0.12-0.59,0.18-0.89
				c0.03-0.3,0.11-0.52,0.25-0.73c0.27-0.41,0.71-0.64,1.19-0.63c0.73-0.01,1.43-0.5,1.66-1.17c0.13-0.32,0.12-0.71,0.07-0.98
				c-0.06-0.3-0.1-0.59-0.18-0.89C317.67,347.82,317.64,348.11,317.58,348.41z M279.68,401.04c-0.03,0.31-0.1,0.53-0.23,0.75
				c-0.25,0.41-0.7,0.68-1.15,0.67c-0.71-0.01-1.44,0.45-1.69,1.11c-0.14,0.32-0.15,0.7-0.09,0.99c0.06,0.3,0.1,0.59,0.18,0.89
				c0.08-0.3,0.12-0.59,0.18-0.89c0.03-0.3,0.11-0.52,0.25-0.73c0.27-0.41,0.71-0.64,1.19-0.63c0.73-0.01,1.43-0.5,1.66-1.17
				c0.13-0.32,0.12-0.71,0.07-0.98c-0.06-0.3-0.1-0.59-0.18-0.89C279.77,400.45,279.74,400.74,279.68,401.04z M311.48,332.14
				c0.25-0.2,0.44-0.31,0.69-0.37c0.47-0.11,0.97,0.01,1.29,0.34c0.49,0.51,1.33,0.7,1.98,0.41c0.32-0.12,0.6-0.39,0.77-0.63
				c0.17-0.25,0.35-0.49,0.5-0.75c-0.27,0.15-0.5,0.33-0.75,0.5c-0.24,0.19-0.45,0.29-0.69,0.34c-0.48,0.09-0.96-0.04-1.29-0.39
				c-0.52-0.51-1.36-0.66-2-0.35c-0.32,0.13-0.59,0.42-0.74,0.65c-0.17,0.25-0.35,0.49-0.5,0.75
				C311,332.49,311.23,332.31,311.48,332.14z M287.56,353.81c0.25-0.2,0.44-0.31,0.69-0.37c0.47-0.11,0.97,0.01,1.29,0.34
				c0.49,0.51,1.33,0.7,1.98,0.41c0.32-0.12,0.6-0.39,0.77-0.63c0.17-0.25,0.35-0.49,0.5-0.75c-0.27,0.15-0.5,0.33-0.75,0.5
				c-0.24,0.19-0.45,0.29-0.69,0.34c-0.48,0.09-0.96-0.04-1.29-0.39c-0.52-0.51-1.36-0.66-2-0.35c-0.32,0.13-0.59,0.42-0.74,0.65
				c-0.17,0.25-0.35,0.49-0.5,0.75C287.07,354.16,287.31,353.98,287.56,353.81z M271.35,385.73c0.25-0.2,0.44-0.31,0.69-0.37
				c0.47-0.11,0.97,0.01,1.29,0.34c0.49,0.51,1.33,0.7,1.98,0.41c0.32-0.12,0.6-0.39,0.77-0.63c0.17-0.25,0.35-0.49,0.5-0.75
				c-0.27,0.15-0.5,0.33-0.75,0.5c-0.24,0.19-0.45,0.29-0.69,0.34c-0.48,0.09-0.96-0.05-1.29-0.39c-0.52-0.51-1.36-0.66-2-0.35
				c-0.32,0.13-0.59,0.42-0.74,0.65c-0.17,0.25-0.35,0.49-0.5,0.75C270.87,386.08,271.1,385.9,271.35,385.73z M278.36,418.9
				c0.25-0.2,0.44-0.31,0.69-0.37c0.47-0.11,0.97,0.01,1.29,0.34c0.49,0.51,1.33,0.7,1.98,0.41c0.32-0.12,0.6-0.39,0.77-0.63
				c0.17-0.25,0.35-0.49,0.5-0.75c-0.27,0.15-0.5,0.33-0.75,0.5c-0.24,0.19-0.45,0.29-0.69,0.34c-0.48,0.09-0.96-0.05-1.29-0.39
				c-0.52-0.51-1.36-0.66-2-0.35c-0.32,0.13-0.59,0.42-0.74,0.65c-0.17,0.25-0.35,0.49-0.5,0.75
				C277.87,419.25,278.11,419.07,278.36,418.9z M309.72,382.45c0.25-0.2,0.44-0.31,0.69-0.37c0.47-0.11,0.97,0.01,1.29,0.34
				c0.49,0.51,1.33,0.7,1.98,0.41c0.32-0.12,0.6-0.39,0.77-0.63c0.17-0.25,0.35-0.49,0.5-0.75c-0.27,0.15-0.5,0.33-0.75,0.5
				c-0.24,0.19-0.45,0.29-0.69,0.34c-0.48,0.09-0.96-0.05-1.29-0.39c-0.52-0.51-1.36-0.66-2-0.35c-0.32,0.13-0.59,0.42-0.74,0.65
				c-0.17,0.25-0.35,0.49-0.5,0.75C309.23,382.8,309.47,382.62,309.72,382.45z M331.3,395.66c0.25-0.2,0.44-0.31,0.69-0.37
				c0.47-0.11,0.97,0.01,1.29,0.34c0.49,0.51,1.33,0.7,1.98,0.41c0.32-0.12,0.6-0.39,0.77-0.63c0.17-0.25,0.35-0.49,0.5-0.75
				c-0.27,0.15-0.5,0.33-0.75,0.5c-0.24,0.19-0.45,0.29-0.69,0.34c-0.48,0.09-0.96-0.04-1.29-0.39c-0.52-0.51-1.36-0.66-2-0.35
				c-0.32,0.13-0.59,0.42-0.74,0.65c-0.17,0.25-0.35,0.49-0.5,0.75C330.82,396.01,331.05,395.83,331.3,395.66z M295,405.69
				c0.25-0.2,0.44-0.31,0.69-0.37c0.47-0.11,0.97,0.01,1.29,0.34c0.49,0.51,1.33,0.7,1.98,0.41c0.32-0.12,0.6-0.39,0.77-0.63
				c0.17-0.25,0.35-0.49,0.5-0.75c-0.27,0.15-0.5,0.33-0.75,0.5c-0.24,0.19-0.45,0.29-0.69,0.34c-0.48,0.09-0.96-0.04-1.29-0.39
				c-0.52-0.51-1.36-0.66-2-0.35c-0.32,0.13-0.59,0.42-0.74,0.65c-0.17,0.25-0.35,0.49-0.5,0.75
				C294.51,406.04,294.74,405.86,295,405.69z M341.82,418.9c0.25-0.2,0.44-0.31,0.69-0.37c0.47-0.11,0.97,0.01,1.29,0.34
				c0.49,0.51,1.33,0.7,1.98,0.41c0.32-0.12,0.6-0.39,0.77-0.63c0.17-0.25,0.35-0.49,0.5-0.75c-0.27,0.15-0.5,0.33-0.75,0.5
				c-0.24,0.19-0.45,0.29-0.69,0.34c-0.48,0.09-0.96-0.05-1.29-0.39c-0.52-0.51-1.36-0.66-2-0.35c-0.32,0.13-0.59,0.42-0.74,0.65
				c-0.17,0.25-0.35,0.49-0.5,0.75C341.34,419.25,341.57,419.07,341.82,418.9z M350.18,383c-0.22-0.06-0.42-0.18-0.58-0.35
				c-0.52-0.51-1.36-0.66-2-0.34c-0.31,0.13-0.58,0.42-0.74,0.65c-0.17,0.25-0.35,0.48-0.5,0.75c0.27-0.15,0.5-0.33,0.75-0.5
				c0.25-0.19,0.44-0.3,0.68-0.37c0.47-0.11,0.98,0.02,1.29,0.34c0.32,0.34,0.8,0.54,1.28,0.55
				C350.31,383.48,350.24,383.24,350.18,383z M261.58,410.26c0.25-0.2,0.44-0.31,0.69-0.37c0.47-0.11,0.97,0.01,1.29,0.34
				c0.49,0.51,1.33,0.7,1.98,0.41c0.32-0.12,0.6-0.39,0.77-0.63c0.17-0.25,0.35-0.49,0.5-0.75c-0.27,0.15-0.5,0.33-0.75,0.5
				c-0.24,0.19-0.45,0.29-0.69,0.34c-0.48,0.09-0.96-0.05-1.29-0.39c-0.52-0.51-1.36-0.66-2-0.35c-0.32,0.13-0.59,0.42-0.74,0.65
				c-0.17,0.25-0.35,0.49-0.5,0.75C261.1,410.61,261.33,410.43,261.58,410.26z M258.91,354.56c0.25-0.2,0.44-0.31,0.69-0.37
				c0.47-0.11,0.97,0.01,1.29,0.34c0.49,0.51,1.33,0.7,1.98,0.41c0.32-0.12,0.6-0.39,0.77-0.63c0.17-0.25,0.35-0.49,0.5-0.75
				c-0.27,0.15-0.5,0.33-0.75,0.5c-0.24,0.19-0.45,0.29-0.69,0.34c-0.48,0.09-0.96-0.05-1.29-0.39c-0.52-0.51-1.36-0.66-2-0.35
				c-0.32,0.13-0.59,0.42-0.74,0.65c-0.17,0.25-0.35,0.49-0.5,0.75C258.42,354.91,258.66,354.73,258.91,354.56z"/>
			<path class="st6" d="M264.76,323.76c-1.02,3.69-2.01,7.38-2.96,11.08c0.12-1.62,0.3-3.23,0.51-4.83c0.01-0.1-0.13-0.14-0.15-0.04
				c-0.41,2-0.61,4.02-0.66,6.05c-1.14,4.46-2.22,8.94-3.21,13.45c-1.9,8.63-3.59,17.33-4.99,26.05c-0.79,4.92-1.4,9.87-2.24,14.78
				c-0.02,0.09,0.13,0.13,0.15,0.04c0.77-4.35,1.8-8.68,2.75-13.01c0.94-4.29,1.86-8.59,2.75-12.9c1.79-8.65,3.69-17.29,5.47-25.94
				c1-4.88,1.94-9.77,2.95-14.64C265.16,323.63,264.82,323.55,264.76,323.76z"/>
		</g>
		<g>
			<g>
				<path class="st11" d="M317.9,303.78c17.91,19.19,60.53,91.19,46.71,104.47c-13.91,13.37-90.49-4.59-112.03-14.86
					c-6.41-3.05,17.94-43,25.47-43.93c6.27-0.78,38.32,13.89,39.25,12.04c1.05-2.08-6.23-15.46-13.94-43.3
					C294.47,286.09,309.99,295.3,317.9,303.78z"/>
				<g>
					<path class="st11" d="M246.22,336.56c-15.57-2.17-19.9-0.34-32.07-9.14c-7.99-5.78-15.1-3.16-10.55,6.02
						c7.45,15.02,26.95,22.04,34.42,22.53L246.22,336.56z"/>
					<g>
						<path class="st11" d="M287.59,351.56c0,0-17.5-9.72-33.86-13.67c-11.32-2.73-36.6-5.94-60.79,19.01
							c-5.74,5.92-9.72,18.42,3.16,12.16c9.15-4.45,13.61-10.03,19.4-11.65c0,0-3.18,16.5,2.98,22.02
							c2.75,2.47,10.41,9.02,17.11,13.27c0,0,1.32-1.21,2.77-2.98c0,0,6.23,4.61,17.97,3.49L287.59,351.56z"/>
					</g>
					<g>
						<path class="st11" d="M242.51,337c-5.41,2.82-16.78,8.99-24.32,17.28c-8.38,9.2-22.04,29.18-15.18,35.3
							c5.03,4.48,10.91-2.69,10.91-2.69s-3.91,9.45,1.52,12.51c4.95,2.79,9.17-3.03,9.17-3.03s-1.38,6.14,3.9,7.9
							c6.35,2.12,8.21-11.09,16.5-14.5C246.86,389,242.51,337,242.51,337z"/>
						<g>
							<g>
								<path class="st6" d="M229.38,361.51c-4.65,3.49-13.19,14.12-15.55,25.13c-0.05,0.25,0.11,0.42,0.2,0.21
									c5.18-11.57,12.2-21.31,15.43-25.26C229.51,361.54,229.43,361.47,229.38,361.51z"/>
							</g>
							<g>
								<path class="st6" d="M238.42,370.24c-3.71,3.42-12.02,14.77-14.02,26.02c-0.04,0.25,0.13,0.42,0.22,0.19
									c4.91-12.32,10.91-22,13.9-26.14C238.55,370.26,238.47,370.19,238.42,370.24z"/>
							</g>
						</g>
					</g>
				</g>
				<path class="st6" d="M215.49,357.3c-5.07,1.49-8.38,3.98-12.66,6.96c-2.12,1.47-4.27,2.91-6.54,4.14
					c-2.07,1.12-5.12,2.81-7.32,1.06c-1.23-0.97-1.21-2.75-0.93-4.15c0.31-1.57,0.91-3.08,1.84-4.38c0.05-0.07-0.07-0.15-0.12-0.08
					c-0.86,1.16-1.6,2.39-2.1,3.75c-0.45,1.23-0.81,2.66-0.46,3.96c0.75,2.8,4.05,3.17,6.38,2.4c1.4-0.46,2.72-1.2,3.99-1.93
					c1.23-0.71,2.43-1.47,3.6-2.26c2.41-1.63,4.73-3.4,7.12-5.05c2.63-1.82,4.45-2.71,7.26-4.23
					C215.66,357.42,215.59,357.27,215.49,357.3z"/>
				<path class="st6" d="M204.87,375.16c1.31-2.89,8.42-14.95,10.73-17.73c0.06-0.07-0.04-0.16-0.1-0.1
					c-3.96,3.75-10.31,13.71-11.79,16.9c-1.46,3.15-3.15,7.18-3.15,10.7c0,5.3,3.52,6.31,4.82,6.57c1.55,0.31,3.12-0.02,4.51-0.74
					c1.55-0.8,3.05-2.47,4.09-3.84c0.05-0.07-0.04-0.17-0.1-0.1c-1.84,2.09-4.89,4.15-7.77,3.77c-1.25-0.16-2.52-0.73-3.28-1.77
					c-0.9-1.22-0.97-2.82-0.85-4.27C202.24,381.25,203.52,378.13,204.87,375.16z"/>
				<path class="st6" d="M224.4,396.25c-0.74,0.63-2.26,2.83-4.67,3.3c-1.77,0.34-3.62,0.18-4.97-1.11
					c-1.33-1.26-1.83-3.04-1.91-4.82c-0.05-1.01,0.76-5.36,1.11-6.67c0.03-0.1-0.1-0.15-0.13-0.05c-0.77,2.34-1.59,4.89-1.59,7.18
					c0,1.91,0.6,3.95,2.03,5.29c1.48,1.38,3.64,1.86,5.55,1.15c0.94-0.35,3.93-2.26,4.79-4.15
					C224.62,396.32,224.43,396.23,224.4,396.25z"/>
				<path class="st6" d="M244.5,388.82c-0.83,0.49-1.55,1.23-2.25,1.9c-0.74,0.72-1.46,1.46-2.16,2.22
					c-1.4,1.52-2.61,3.25-3.67,5.02c-1.07,1.8-2.06,3.8-3.8,5.05c-1.71,1.22-4.06,1.42-5.8,0.14c-0.91-0.66-1.52-1.61-1.81-2.69
					c-0.3-1.11-0.5-2.47-0.34-3.62c0.01-0.1-0.13-0.12-0.14-0.02c-0.09,1.12-0.39,2.15-0.26,3.29c0.11,1,0.44,1.98,1.04,2.79
					c1.23,1.66,3.41,2.39,5.41,2.02c2.21-0.41,3.84-2.07,5.04-3.87c1.34-2.01,2.44-4.14,3.87-6.09c0.75-1.03,1.49-2.06,2.32-3.03
					c0.86-1.01,1.89-1.91,2.68-2.97C244.68,388.88,244.6,388.76,244.5,388.82z"/>
				<path class="st6" d="M250.7,393.34c-1.67-0.14-5.51-0.78-8.54-1.77c-0.09-0.03-0.21,0.22-0.13,0.27
					c1.13,0.62,3.5,1.24,4.21,1.39c1.42,0.29,2.98,0.42,4.44,0.27C250.76,393.49,250.8,393.35,250.7,393.34z"/>
				<path class="st6" d="M346.3,375.5c-4.47-3.05-9.24-5.68-14.1-8.06c-4.81-2.35-9.86-4.18-14.96-5.8
					c-2.91-0.92-5.86-1.71-8.81-2.51c-0.09-0.02-0.12,0.11-0.04,0.14c5.15,1.54,10.18,3.55,15.11,5.67
					c4.91,2.12,9.77,4.32,14.6,6.62c2.73,1.3,5.4,2.73,8.09,4.12C346.32,375.76,346.41,375.58,346.3,375.5z"/>
			</g>
			<g>
				<path class="st5" d="M354.6,349.03l-43.49-1.44c0,0-8.09-21.47-11.18-40.56c-3.08-19.09,12.56-13.27,28.89,7.18
					C345.15,334.65,354.6,349.03,354.6,349.03z"/>
				<path class="st4" d="M315.95,331.64c-0.24,0.18-0.44,0.29-0.69,0.34c-0.48,0.09-0.95-0.05-1.28-0.4c-0.53-0.51-1.37-0.66-2-0.34
					c-0.32,0.13-0.59,0.42-0.75,0.65c-0.17,0.25-0.35,0.48-0.5,0.75c0.27-0.15,0.5-0.33,0.76-0.5c0.24-0.19,0.43-0.3,0.68-0.37
					c0.47-0.11,0.97,0.02,1.29,0.34c0.49,0.51,1.33,0.7,1.97,0.42c0.32-0.13,0.6-0.39,0.77-0.64c0.17-0.25,0.35-0.48,0.5-0.75
					C316.43,331.29,316.2,331.48,315.95,331.64z M329.67,323.65c-0.06-0.3-0.1-0.59-0.18-0.89c-0.08,0.3-0.12,0.59-0.18,0.89
					c-0.04,0.31-0.09,0.53-0.22,0.74c-0.26,0.42-0.7,0.68-1.16,0.67c-0.71-0.01-1.44,0.44-1.69,1.11c-0.14,0.31-0.15,0.69-0.09,0.99
					c0.06,0.3,0.09,0.59,0.18,0.89c0.08-0.3,0.12-0.59,0.18-0.89c0.03-0.31,0.11-0.52,0.24-0.73c0.28-0.41,0.71-0.65,1.19-0.64
					c0.73-0.01,1.42-0.5,1.65-1.16C329.73,324.31,329.71,323.92,329.67,323.65z M314.39,299.73c0,0.11,0.01,0.21,0.03,0.31
					c0.06,0.29,0.09,0.58,0.18,0.88c0.08-0.3,0.12-0.59,0.18-0.88c0-0.01,0-0.01,0-0.02C314.65,299.92,314.52,299.83,314.39,299.73z
					 M345.39,335.9c-0.33-0.01-0.64-0.15-0.86-0.38c-0.49-0.51-1.33-0.69-1.98-0.41c-0.32,0.12-0.6,0.39-0.77,0.63
					c-0.17,0.26-0.35,0.49-0.5,0.76c0.27-0.15,0.5-0.33,0.76-0.5c0.23-0.19,0.44-0.3,0.68-0.34c0.48-0.1,0.96,0.05,1.29,0.39
					c0.46,0.46,1.18,0.62,1.78,0.43C345.68,336.3,345.54,336.11,345.39,335.9z M315.29,314.23c-0.3-0.04-0.53-0.11-0.74-0.24
					c-0.41-0.28-0.64-0.71-0.63-1.19c-0.01-0.74-0.5-1.43-1.16-1.66c-0.32-0.13-0.71-0.12-0.99-0.06c-0.3,0.06-0.59,0.1-0.89,0.18
					c0.3,0.07,0.59,0.11,0.89,0.18c0.31,0.04,0.53,0.09,0.75,0.22c0.42,0.26,0.67,0.7,0.67,1.16c-0.01,0.7,0.44,1.44,1.11,1.69
					c0.31,0.14,0.69,0.15,0.99,0.09c0.29-0.06,0.58-0.09,0.88-0.18C315.88,314.33,315.58,314.29,315.29,314.23z M335.3,344.65
					c-0.3-0.04-0.52-0.11-0.73-0.25c-0.41-0.27-0.65-0.7-0.64-1.19c-0.01-0.73-0.5-1.42-1.16-1.65c-0.31-0.13-0.71-0.12-0.98-0.06
					c-0.3,0.06-0.59,0.09-0.89,0.18c0.3,0.08,0.59,0.12,0.89,0.18c0.31,0.03,0.53,0.09,0.74,0.22c0.42,0.25,0.68,0.69,0.67,1.16
					c-0.01,0.7,0.44,1.43,1.11,1.68c0.31,0.15,0.69,0.16,0.99,0.1c0.3-0.06,0.59-0.1,0.89-0.18
					C335.89,344.74,335.59,344.7,335.3,344.65z"/>
				<g>
					<path class="st6" d="M312.9,347.44c-0.23,0-1.76-0.27-1.77-0.27c-0.11-0.57-2.59-9.54-3.24-11.49
						c-1.33-3.98-2.89-7.89-4.4-11.8c-0.05-0.12-0.24-0.07-0.2,0.06c0.98,3.37,1.9,6.75,2.91,10.11c-0.3-0.48-0.6-0.96-0.89-1.44
						c-0.59-1-1.1-2.03-1.65-3.05c-0.05-0.09-0.19-0.02-0.16,0.07c0.43,1.41,1.14,2.75,1.92,4c0.34,0.54,0.73,1.05,1.13,1.54
						c0.09,0.28,0.17,0.56,0.25,0.84c0.62,1.96,3.8,11.68,3.96,11.69c0.04,0,1.61,0.04,2.1,0.04
						C312.97,347.74,313.02,347.44,312.9,347.44z"/>
					<path class="st6" d="M347.56,340.61c-9.38-0.7-18.82-0.75-28.24-0.61c-2.66,0.04-5.33,0.14-7.99,0.31
						c-0.07,0-0.09,0.11-0.01,0.12c4.69,0.25,9.39,0.31,14.09,0.4c4.71,0.09,9.43,0.14,14.15,0.09c2.66-0.03,5.32-0.05,7.98-0.13
						C347.66,340.79,347.67,340.62,347.56,340.61z"/>
				</g>
			</g>
		</g>
		<path class="st4" d="M277.35,295c-2.89,2.42-5.79,11.45-4.19,17.42c1.59,5.97,4.75,9.81,10.19,9.33
			c5.43-0.48,15.86-4.63,22.66-16.81C312.81,292.76,291.56,283.11,277.35,295z"/>
		<g>
			<g>
				<g>
					<path class="st11" d="M281.26,315.06c6.42,1.89,18.12-7.45,22.96-15.26c0.33-0.54-0.77-22.75-0.54-27.17
						c0.05-0.91-28.11,5.25-28.11,5.25s2.23,9.42,1.77,17.13C277.3,295.64,275.06,313.23,281.26,315.06z"/>
				</g>
				<path class="st6" d="M304.19,294.14c-14.79,2.19-22.82-2.24-27.04-6.49c-0.51-5.31-1.56-9.79-1.56-9.79s28.15-6.15,28.11-5.24
					C303.53,275.67,303.99,287.11,304.19,294.14z"/>
			</g>
			<g>
				<g>
					<path class="st11" d="M268.7,236.98c-4.11,9.44-2.18,38.31,4.06,45.41c9.04,10.3,25.47,13.06,34.62,1.82
						c8.87-10.9,5.7-48.47-1.42-55.09C295.47,219.38,274.77,223.03,268.7,236.98z"/>
				</g>
				<g>
					<g>
						<path class="st6" d="M294.82,257.32c-0.02-0.07-0.15,0.1-0.14,0.18c0.18,1.94,0.06,4.19-1.66,4.95
							c-0.05,0.02-0.04,0.12,0.02,0.11C295.17,262.12,295.3,259.13,294.82,257.32z"/>
						<path class="st6" d="M292.95,255.39c-3.14-0.04-3,6.24-0.09,6.29C295.73,261.72,295.59,255.43,292.95,255.39z"/>
					</g>
					<g>
						<path class="st6" d="M305.58,257.37c0.01-0.07,0.15,0.09,0.15,0.17c-0.02,1.95,0.29,4.18,2.07,4.79
							c0.06,0.02,0.05,0.12-0.01,0.11C305.63,262.18,305.25,259.21,305.58,257.37z"/>
						<path class="st6" d="M307.27,255.29c3.13-0.31,3.52,5.97,0.62,6.26C305.04,261.83,304.65,255.55,307.27,255.29z"/>
					</g>
					<path class="st6" d="M290.41,252.57c0.85-0.24,1.6-0.59,2.42-0.91c0.92-0.36,1.7-0.55,2.29-1.4c0.32-0.46,0.16-1.26-0.25-1.6
						c-0.96-0.81-2.2-0.65-3.33-0.26c-1.23,0.42-2.06,1.06-2.74,2.16C288.12,251.62,289.28,252.88,290.41,252.57z"/>
					<path class="st6" d="M309.63,252.07c-0.88-0.12-1.66-0.38-2.51-0.59c-0.96-0.24-1.75-0.33-2.45-1.09
						c-0.37-0.41-0.32-1.22,0.04-1.62c0.85-0.93,2.1-0.93,3.27-0.69c1.27,0.26,2.18,0.78,3,1.78
						C311.77,250.82,310.79,252.23,309.63,252.07z"/>
					<path class="st6" d="M292.91,275.43c0.48,0.45,0.96,1.06,1.67,1.11c0.68,0.04,1.47-0.28,2.08-0.54
						c0.06-0.02,0.12,0.04,0.09,0.1c-0.49,0.76-1.54,1.25-2.45,1.11c-0.89-0.13-1.34-0.89-1.57-1.69
						C292.69,275.41,292.84,275.36,292.91,275.43z"/>
					<g>
						<g>
							<path class="st6" d="M294.82,269.55c1.13,1.67,2.75,2.55,4.49,2.85c0.78,0.14,1.59,0.15,2.39,0.05
								c0.16-0.01,0.31-0.03,0.45-0.06c0.14-0.02,0.27-0.04,0.43-0.08c0.23-0.04,0.35-0.23,0.38-0.45l0-0.01
								c0-0.07-0.01-0.13-0.02-0.2c0,0,0,0,0-0.01l-0.01-0.17c0.01-1.5-0.19-3.78-0.19-3.78c0.55,0.26,3.38,1.46,3.32,0.67
								c-0.54-6.48-1.13-13.68-3.03-20.02c-0.05-0.21-0.38-0.16-0.35,0.06c0.27,6.25,1.63,12.4,2,18.67
								c-0.9-0.32-2.37-0.91-3.15-0.88c-0.21,0.07,0.46,4.4,0.4,5.07c0,0,0,0.03-0.01,0.07c-2.51,0.38-4.43-0.34-6.91-1.98
								C294.85,269.26,294.7,269.39,294.82,269.55z"/>
						</g>
					</g>
					<g>
						<path class="st6" d="M300.8,271.71c0,0-1.29,1.82-3.1,2.51c-0.67,0.26-1.39,0.37-2.15,0.18c-1.57-0.37-1.64-1.8-1.38-3.03
							c0.21-1.01,0.65-1.89,0.65-1.89S297.16,271.57,300.8,271.71z"/>
						<path class="st12" d="M297.71,274.23c-0.67,0.26-1.39,0.37-2.15,0.18c-1.57-0.37-1.64-1.8-1.38-3.03
							C295.85,271.51,297.53,272.61,297.71,274.23z"/>
					</g>
				</g>
				<g>
					<path class="st6" d="M267.79,259.37c7.35,0.32,9.41-12.96,9.41-12.96s12.72-1.47,15-10.89c0,0,11.62,8.21,21.2,5.24
						c9.58-2.97,8.1-13.72,7.17-16.05c-0.94-2.33-6.36,1.66-6.36,1.66s-0.31-6.06-1.9-6.75c-1.58-0.69-3.5,2.88-3.5,2.88
						s-11.94-4.64-22.97-4.85c-11.02-0.2-17,10.64-17,10.64s-5.95,0.97-8.05,5.01C258.69,237.34,263.1,259.17,267.79,259.37z"/>
					<path class="st6" d="M292.13,233.69c-0.15,1.96-0.59,3.87-1.41,5.58c-0.85,1.69-2.09,3.16-3.68,4.16
						c-1.6,0.99-3.44,1.52-5.32,1.87c-0.95,0.14-1.92,0.19-2.89,0.27c-0.97,0.01-1.95-0.02-2.94,0.02c0.96,0.18,1.94,0.3,2.93,0.45
						c0.99,0.01,1.99,0.05,2.98-0.01c1.99-0.18,3.99-0.72,5.75-1.79c1.73-1.12,3.09-2.78,3.83-4.67
						C292.11,237.69,292.37,235.65,292.13,233.69z"/>
					<path class="st6" d="M268.7,229.8c0.89-3.06,2.46-5.92,4.72-8.08c2.23-2.18,5.15-3.55,8.23-3.94c0.77-0.07,1.54-0.27,2.32-0.23
						l2.35,0.07c1.56,0.12,3.11,0.47,4.66,0.73c1.52,0.45,3.07,0.8,4.57,1.32c1.49,0.55,2.98,1.13,4.49,1.65
						c-1.42-0.72-2.88-1.39-4.33-2.09c-1.48-0.62-3.03-1.06-4.55-1.6c-3.12-0.75-6.39-1.33-9.65-0.79
						c-3.23,0.49-6.37,1.96-8.61,4.37C270.64,223.58,269.2,226.64,268.7,229.8z"/>
				</g>
				<g>
					<path class="st3" d="M290.5,266.42c-3.7-0.38-6.83-3.23-7.4-7.08c-0.67-4.55,2.48-8.8,7.03-9.47c4.55-0.67,8.8,2.48,9.47,7.03
						l0,0c0.67,4.55-2.48,8.8-7.03,9.47C291.87,266.48,291.17,266.49,290.5,266.42z M292.09,250.93c-0.59-0.06-1.19-0.05-1.8,0.04
						c-3.94,0.58-6.67,4.26-6.09,8.2c0.58,3.94,4.26,6.68,8.2,6.09c3.94-0.58,6.67-4.26,6.09-8.2
						C298.01,253.73,295.3,251.27,292.09,250.93z"/>
					<path class="st3" d="M309.64,266.05c-3.17-0.33-5.72-3.88-5.78-8.23c-0.03-2.2,0.57-4.28,1.68-5.86
						c1.15-1.64,2.72-2.55,4.41-2.57c1.7-0.03,3.29,0.84,4.48,2.45c1.16,1.55,1.81,3.61,1.84,5.8c0.06,4.6-2.67,8.38-6.09,8.43
						C310,266.07,309.82,266.07,309.64,266.05z M310.38,250.53c-0.14-0.01-0.28-0.02-0.42-0.02c-1.33,0.02-2.57,0.76-3.52,2.1
						c-0.98,1.39-1.5,3.24-1.48,5.2c0.06,3.98,2.38,7.19,5.2,7.15c2.81-0.04,5.05-3.31,4.99-7.3c-0.03-1.96-0.6-3.79-1.62-5.15
						C312.66,251.34,311.56,250.65,310.38,250.53z"/>
					<path class="st3" d="M299.34,257.87l-0.73-0.84c1.25-1.08,4.15-2.55,6.22-0.4l-0.8,0.77
						C302.18,255.47,299.45,257.78,299.34,257.87z"/>
					<path class="st3" d="M262.21,260.55l-1-0.5c0.23-0.47,2.34-4.56,4.82-5c2.32-0.4,17.29,0.78,17.92,0.84l-0.09,1.11
						c-4.29-0.35-15.84-1.17-17.64-0.85C264.59,256.44,262.77,259.42,262.21,260.55z"/>
				</g>
				<g>
					<path class="st11" d="M272.1,260.72c0,0-5.54-9.77-9.92-7.87c-4.37,1.89-0.81,15.63,3.9,17.91c4.71,2.28,6.9-2.04,6.9-2.04
						L272.1,260.72z"/>
					<path class="st6" d="M263.31,256.75c-0.08-0.01-0.1,0.09-0.04,0.13c3.29,1.71,4.79,5.05,5.75,8.46
						c-0.9-1.36-2.22-2.19-4.03-1.14c-0.09,0.06-0.02,0.2,0.08,0.19c1.43-0.17,2.42,0.17,3.26,1.38c0.6,0.86,0.96,1.91,1.35,2.87
						c0.13,0.32,0.7,0.21,0.62-0.15c-0.01-0.03-0.01-0.05-0.02-0.08C270.76,264.06,267.95,257.64,263.31,256.75z"/>
				</g>
			</g>
		</g>
	</g>
</g>
<polygon class="st6" points="55.62,420.97 135.41,420.73 215.21,420.64 374.8,420.47 534.38,420.64 614.18,420.73 693.97,420.97 
	614.18,421.22 534.38,421.3 374.8,421.47 215.21,421.3 135.41,421.22 "/>
<g>
	<g>
		<rect x="509.19" y="418.46" class="st13" width="111.19" height="4.99"/>
		<rect x="509.19" y="418.46" class="st6" width="55.97" height="4.99"/>
	</g>
	<g>
		<g>
			<polygon class="st2" points="563.86,423.44 672.22,423.44 687.54,349.84 579.17,349.84 			"/>
		</g>
		<path class="st1" d="M617.3,388.29c-0.42,3.99,2.47,7.22,6.46,7.22s7.56-3.23,7.98-7.22c0.42-3.99-2.47-7.22-6.46-7.22
			C621.29,381.06,617.72,384.3,617.3,388.29z"/>
	</g>
</g>
<g>
	<g>
		<g>
			<g>
				
					<rect x="222.7" y="416.15" transform="matrix(-1 -1.224647e-16 1.224647e-16 -1 451.5332 836.307)" class="st13" width="6.14" height="4.01"/>
			</g>
			<g>
				
					<rect x="214.73" y="415.88" transform="matrix(-1 -1.224647e-16 1.224647e-16 -1 435.6032 835.7769)" class="st13" width="6.14" height="4.01"/>
			</g>
			<g>
				
					<rect x="206.77" y="415.62" transform="matrix(-1 -1.224647e-16 1.224647e-16 -1 419.6733 835.2469)" class="st13" width="6.14" height="4.01"/>
			</g>
			<g>
				
					<rect x="198.8" y="415.35" transform="matrix(-1 -1.224647e-16 1.224647e-16 -1 403.7433 834.7168)" class="st13" width="6.14" height="4.01"/>
			</g>
			<g>
				
					<rect x="190.84" y="415.09" transform="matrix(-1 -1.224647e-16 1.224647e-16 -1 387.8132 834.1868)" class="st13" width="6.14" height="4.01"/>
			</g>
			<g>
				
					<rect x="182.87" y="414.82" transform="matrix(-1 -1.224647e-16 1.224647e-16 -1 371.8833 833.6569)" class="st13" width="6.14" height="4.01"/>
			</g>
			<g>
				
					<rect x="174.91" y="414.56" transform="matrix(-1 -1.224647e-16 1.224647e-16 -1 355.9533 833.127)" class="st13" width="6.14" height="4.01"/>
			</g>
			<g>
				
					<rect x="166.94" y="414.29" transform="matrix(-1 -1.224647e-16 1.224647e-16 -1 340.0233 832.5969)" class="st13" width="6.14" height="4.01"/>
			</g>
			<g>
				
					<rect x="158.98" y="414.03" transform="matrix(-1 -1.224647e-16 1.224647e-16 -1 324.0934 832.067)" class="st13" width="6.14" height="4.01"/>
			</g>
		</g>
		<polygon class="st2" points="157.47,422.46 230.34,422.46 230.34,417.59 157.47,415.55 		"/>
	</g>
	<g>
		<g>
			<polygon class="st13" points="86.35,403.22 206.65,403.22 187.51,313.66 67.22,313.66 			"/>
			<polygon class="st2" points="81.9,403.22 202.2,403.22 183.07,313.66 62.77,313.66 			"/>
			<path class="st6" d="M122.09,353.25c0.65,4.11,4.51,7.44,8.62,7.44c4.11,0,6.91-3.33,6.26-7.44c-0.65-4.11-4.51-7.44-8.62-7.44
				C124.24,345.82,121.44,349.15,122.09,353.25z"/>
		</g>
		<g>
			<polygon class="st13" points="115.92,426.61 175.09,426.61 175.09,422.02 115.92,420.1 			"/>
			<polygon class="st13" points="99.84,426.61 131.6,426.61 150.73,376.42 118.97,376.42 			"/>
			<polygon class="st6" points="94.61,426.61 126.37,426.61 145.5,376.42 113.74,376.42 			"/>
		</g>
	</g>
	<g>
		<path class="st2" d="M232.59,427.83c0,0,55.79,0,61,0c5.21,0-2.33-14.82-21.32-20.51C253.27,401.64,226.6,422.27,232.59,427.83z"
			/>
		<g>
			<path class="st6" d="M256.53,427.83c-0.4-1.63-0.94-3.2-1.53-4.73c-0.61-1.53-1.32-3.01-2.17-4.4c-0.81-1.42-1.83-2.69-2.94-3.89
				l-0.86-0.88l-0.94-0.8c-0.59-0.59-1.33-0.97-1.98-1.52c1.53,0.65,3.08,1.45,4.32,2.64c1.27,1.13,2.39,2.46,3.25,3.94
				C255.42,421.12,256.47,424.47,256.53,427.83z"/>
			<path class="st6" d="M249.3,413.73c-1.67,0.9-3.3,1.84-4.91,2.79c-1.61,0.97-3.2,1.95-4.71,3.04c-1.52,1.07-2.97,2.24-4.25,3.57
				c-1.25,1.34-2.39,2.85-2.84,4.7c0.05-1.93,1.04-3.74,2.25-5.22c1.23-1.5,2.7-2.75,4.25-3.87
				C242.23,416.56,245.67,414.84,249.3,413.73z"/>
		</g>
	</g>
</g>
<g>
	<polygon class="st3" points="345.83,391.22 341.44,446.45 311.05,446.45 306.66,391.22 	"/>
	<rect x="303.79" y="386.24" class="st13" width="44.66" height="8.05"/>
	<polygon class="st2" points="345.38,386.24 306.85,386.24 309.1,377.19 343.13,377.19 	"/>
	<path class="st1" d="M336.79,419.32c0,7.17-4.72,12.98-10.55,12.98s-10.55-5.81-10.55-12.98c0-7.17,4.72-12.98,10.55-12.98
		S336.79,412.15,336.79,419.32z"/>
</g>
<g>
	<g>
		<path class="st1" d="M331.62,251.4c-1.92-2.92-2.99-6.2-2.99-9.67c0-12.25,13.46-22.19,30.04-22.19
			c16.59,0,30.03,9.93,30.03,22.19c0,12.25-13.44,22.19-30.03,22.19c-8.04,0-15.33-2.33-20.72-6.14l-10.35,2.63L331.62,251.4z"/>
		<path class="st6" d="M331.62,251.4c-1.82-2.69-2.96-5.87-3.09-9.14c-0.1-3.27,0.7-6.58,2.37-9.42c1.63-2.86,3.97-5.27,6.61-7.21
			c2.64-1.95,5.62-3.42,8.73-4.46c3.11-1.04,6.35-1.67,9.62-1.94c3.27-0.25,6.57-0.04,9.81,0.49c3.24,0.53,6.42,1.5,9.39,2.92
			c2.97,1.41,5.76,3.26,8.11,5.6c2.34,2.33,4.23,5.18,5.23,8.38c1,3.18,1.06,6.68,0.09,9.88c-0.94,3.21-2.79,6.09-5.1,8.45
			c-2.31,2.37-5.08,4.25-8.04,5.7c-5.94,2.88-12.64,3.93-19.16,3.54c-6.52-0.43-13.03-2.42-18.38-6.23L338,258l-10.38,2.52
			l-0.22,0.05l0.09-0.2L331.62,251.4z M331.62,251.4l-3.92,9.05l-0.13-0.15l10.32-2.75l0.1-0.03l0.09,0.06
			c5.33,3.66,11.74,5.56,18.16,5.89c3.22,0.19,6.45-0.08,9.6-0.65c3.15-0.59,6.26-1.53,9.13-2.96c2.87-1.42,5.54-3.26,7.76-5.55
			c2.21-2.28,3.96-5.04,4.84-8.08c0.91-3.03,0.82-6.32-0.12-9.32c-0.93-3.02-2.72-5.75-4.96-8c-2.25-2.26-4.94-4.06-7.82-5.45
			c-2.88-1.39-5.98-2.35-9.15-2.89c-3.16-0.54-6.39-0.73-9.6-0.53c-3.21,0.22-6.39,0.8-9.45,1.79c-3.06,0.98-6,2.39-8.61,4.27
			c-2.61,1.87-4.91,4.2-6.58,6.95c-1.7,2.74-2.55,5.96-2.52,9.19C328.8,245.48,329.86,248.67,331.62,251.4z"/>
	</g>
	<g>
		<path class="st6" d="M369.47,241.73c0,1.72,1.39,3.11,3.11,3.11c1.72,0,3.11-1.39,3.11-3.11s-1.39-3.11-3.11-3.11
			C370.86,238.61,369.47,240.01,369.47,241.73z"/>
		<path class="st6" d="M355.55,241.73c0,1.72,1.39,3.11,3.11,3.11c1.72,0,3.11-1.39,3.11-3.11s-1.39-3.11-3.11-3.11
			C356.94,238.61,355.55,240.01,355.55,241.73z"/>
		<path class="st6" d="M341.63,241.73c0,1.72,1.39,3.11,3.11,3.11c1.72,0,3.11-1.39,3.11-3.11s-1.39-3.11-3.11-3.11
			C343.02,238.61,341.63,240.01,341.63,241.73z"/>
	</g>
</g>
<text transform="matrix(1 0 0 1 633.269 122.4678)" class="st14 st15 st16">css</text>
<text transform="matrix(1 0 0 1 648.2504 257.1808)" class="st14 st15 st17">HTML</text>
<text transform="matrix(1 0 0 1 569.5925 198.9645)" class="st14 st15 st17">PHP</text>
<text transform="matrix(1 0 0 1 186.6442 216.5657)" class="st14 st15 st17">PS</text>
<rect x="59.25" y="169.67" class="st7" width="70.23" height="26"/>
<text transform="matrix(1 0 0 1 83.3105 187.9503)" class="st14 st15 st17">Xd</text>
<rect x="111.86" y="107.82" class="st7" width="70.23" height="26"/>
<text transform="matrix(1 0 0 1 138.4152 126.1041)" class="st14 st15 st17">AI</text>
</svg>
