<?xml version="1.0" encoding="utf-8"?>
<!-- Generator: Adobe Illustrator 24.3.0, SVG Export Plug-In . SVG Version: 6.00 Build 0)  -->
<svg version="1.1" id="Layer_1" xmlns="http://www.w3.org/2000/svg" xmlns:xlink="http://www.w3.org/1999/xlink" x="0px" y="0px"
	 viewBox="0 0 192.62 303.38" style="enable-background:new 0 0 192.62 303.38;" xml:space="preserve">
<style type="text/css">
	.st0{fill:#10457A;}
	.st1{fill:#FFFFFF;}
	.st2{fill:#7DD8FC;}
	.st3{fill:#ED996F;}
	.st4{fill:#062054;}
	.st5{fill:#2168A3;}
	.st6{fill:#1E80C6;}
	.st7{fill:#152D5E;}
	.st8{fill:#1E3564;}
	.st9{fill:#F0F0F0;}
	.st10{opacity:0.3;fill:#ED996F;}
</style>
<g>
	<g>
		<path class="st0" d="M152.13,167.69H64.26c-13.14,0-23.8,10.65-23.8,23.8v87.87c0,13.14,10.66,23.8,23.8,23.8h87.87
			c13.14,0,23.8-10.65,23.8-23.8v-87.87C175.93,178.34,165.27,167.69,152.13,167.69z"/>
		<path class="st1" d="M138.65,167.69H50.78c-13.14,0-23.8,10.65-23.8,23.8v87.87c0,13.14,10.66,23.8,23.8,23.8h87.87
			c13.14,0,23.8-10.65,23.8-23.8v-87.87C162.45,178.34,151.8,167.69,138.65,167.69z"/>
		<g>
			<path class="st2" d="M56.4,206.54H42.08v62.67h10.83v-25.43h3.49c10.56,0,16.47-5.73,16.47-16.2v-4.83
				C72.87,212.27,66.97,206.54,56.4,206.54z M62.04,227.05c0,4.83-1.88,6.8-6,6.8h-3.13v-17.37h3.13c4.12,0,6,1.97,6,6.8V227.05z"/>
			<polygon class="st2" points="99.29,232.42 89.35,232.42 89.35,206.54 78.52,206.54 78.52,269.21 89.35,269.21 89.35,242.45 
				99.29,242.45 99.29,269.21 110.13,269.21 110.13,206.54 99.29,206.54 			"/>
			<path class="st2" d="M133.32,206.54H119v62.67h10.83v-25.43h3.49c10.56,0,16.47-5.73,16.47-16.2v-4.83
				C149.79,212.27,143.89,206.54,133.32,206.54z M138.96,227.05c0,4.83-1.88,6.8-6,6.8h-3.13v-17.37h3.13c4.12,0,6,1.97,6,6.8
				V227.05z"/>
		</g>
	</g>
	<g>
		<path class="st3" d="M162.82,121.01c0.66-3.34,4.28-7.7,5.78-8.01c1.66-0.35-1.52,3.22-1.1,4.32c1.08,2.82,12.73-4.15,12.77-1.83
			c0.05,3.06-4.22,5.6-5.74,6.88c-2.23,1.88-8.89,3-10.7,3.88C163.76,126.42,157.47,125.67,162.82,121.01z"/>
		<g>
			<path class="st4" d="M106.42,44.83c0.86-1.71,1.72-3.42,2.59-5.13c-0.99,0.69-1.98,1.38-2.97,2.07c0.96-1.48,1.56-3.19,1.8-4.94
				c-0.19-0.02-0.4-0.03-0.63-0.04c-3.19-0.1-6.09,1.66-7.84,4.34c-0.58,0.89-1.25,1.71-2.08,2.39c0.58-1.73,0.89-3.54,0.99-5.35
				l0,0c-2.38,0.83-16.21,9.77-16.47,12.63c-0.25,2.75-1.5,10,3.02,20.82c0,0,17.73,2.18,20.55-1.35
				c2.82-3.52,5.17-14.72,5.17-17.85c0-1.63-0.31-5.56-0.71-9.05C108.8,44.05,107.65,44.56,106.42,44.83z"/>
			<path class="st1" d="M71.93,89.24c-6.24,3.15-20.53,43.58-20.62,44.16c-0.64,4,9.75,4.5,9.75,4.5
				c3.81-4.62,13.34-23.94,14.12-26.35C79.59,97.97,71.93,89.24,71.93,89.24z"/>
			<path class="st1" d="M119.21,89.24c6.24,3.15,20.53,43.58,20.62,44.16c0.64,4-9.75,4.5-9.75,4.5
				c-3.81-4.62-13.34-23.94-14.12-26.35C111.54,97.97,119.21,89.24,119.21,89.24z"/>
			<path class="st5" d="M87.74,82.78c-18.07,6.05-20.18,8.35-18.76,13.26c4.26,14.73,5.33,18.84,6.63,23.51
				c1.52,5.47,3.66,18.53,2.62,25.3c-1.67,10.89-0.21,20.27,18.1,19.76c18.9-0.53,16.34-7.66,16.34-22.2
				c0-8.18,2.73-21.24,3.53-28.17c0.61-5.24,2.75-10.53,4.07-23.17c0.37-3.54-12.52-7.45-17.91-8.18
				C95.83,82.02,87.74,82.78,87.74,82.78z"/>
			<path class="st1" d="M163.84,126.25c0,0-18.48,16.25-30.33,13.74c-2.58-0.55-8.93-3.89,2.19-10.32
				c12.7-7.35,27.11-8.69,27.11-8.69L163.84,126.25z"/>
			<path class="st3" d="M28.64,120.57c-0.66-3.34-4.28-7.7-5.78-8.01c-1.66-0.35,1.52,3.22,1.1,4.32
				c-1.08,2.82-12.73-4.15-12.77-1.83c-0.05,3.06,4.22,5.6,5.74,6.88c2.23,1.88,8.89,3,10.7,3.88
				C27.7,125.99,33.98,125.23,28.64,120.57z"/>
			<path class="st1" d="M27.62,125.81c0,0,18.48,16.25,30.33,13.74c2.58-0.55,8.93-3.89-2.19-10.32
				c-12.7-7.35-27.11-8.68-27.11-8.68L27.62,125.81z"/>
			<path class="st4" d="M94.17,169.15c16.26-0.46,30.41-0.96,30.41-0.96c32.62-10.35-8.35-16.98-11.88-22.47
				c-7.46,3.59-22.9,6.43-34.48-0.87c-4.91,8.11-6.35,16.52-6.35,16.52S78.42,169.6,94.17,169.15z"/>
			<path class="st0" d="M125.04,171.32c5.83-1.66,13.42,1.75,17.17-0.17c3.75-1.92,6.05-3.18,5.16-4.9
				c-0.89-1.72-6.11-5.56-10.82-4.32c-6.23,1.64-12.23-0.91-15.12,2.51C118.08,168.44,125.04,171.32,125.04,171.32z"/>
			<g>
				<g>
					<path class="st6" d="M69.1,133.14l5.1,15.59c0.25,0.75,1.01,1.27,1.88,1.27h40.4c0.92,0,1.71-0.58,1.91-1.39l3.87-15.93
						c0.27-1.11-0.67-2.16-1.93-2.15l-49.38,0.33C69.66,130.88,68.73,132.01,69.1,133.14z"/>
					<path class="st1" d="M98.45,141.57c0,0.77-1.29,1.4-2.87,1.4c-1.59,0-2.87-0.63-2.87-1.4s1.29-1.4,2.87-1.4
						C97.16,140.17,98.45,140.8,98.45,141.57z"/>
				</g>
			</g>
			<path class="st7" d="M63.99,147.77c15.3,0.32,55.35,15.26,59.91,15.95c4.56,0.69,5.81,7.64,0.48,7.48
				c-3.53-0.11-52.57,0.93-64.47-4.22c-11.9-5.16-19.65-10.51-13.6-17.93C48.88,145.89,63.99,147.77,63.99,147.77z"/>
			<path class="st0" d="M79.46,171.69c-6.51-0.41-14.03,4.28-18.36,3.23c-4.34-1.05-7.01-1.79-6.35-3.56
				c0.65-1.78,5.57-6.4,10.81-6.17c6.93,0.3,12.65-2.97,16.57-0.63C83.73,165.52,79.46,171.69,79.46,171.69z"/>
			<path class="st8" d="M134.35,143.57c-15.46,1.64-57.64,21.03-62.2,22.12c-4.55,1.09,3.75,6.46,7.31,6.01
				c3.56-0.46,49.17-3.17,60.75-9.34c11.58-6.16,18.95-12.17,12.16-19.04C149.48,140.39,134.35,143.57,134.35,143.57z"/>
			<path class="st9" d="M86.97,81.18c0,0,1.46-1.29,8-1.79c6.55-0.5,7.26,1.79,7.26,1.79v2.68l-15.26,0.41V81.18z"/>
			<g>
				<path class="st3" d="M89.74,70.73c0,11.79-1.87,13.82-1.87,13.82l7.79,15.47l6.64-16.05c0,0-2.27-2.88-2.05-13.79
					C100.62,52.21,89.74,70.73,89.74,70.73z"/>
				<path class="st10" d="M102.23,83.87c-0.37-0.57-2.17-3.86-1.97-13.67c0.06-2.98-0.21-4.89-0.67-6.11
					c-1.14-0.36-2.41-0.62-3.97-0.62c-0.07,0-0.11,0.02-0.18,0.02c-2.77,2.28-5.7,7.25-5.7,7.25c0,7.03-0.66,10.55-1.2,12.28
					c2.11,5.28,4.79,7.93,7.08,7.93C97.63,90.94,100.2,88.26,102.23,83.87z"/>
				<path class="st3" d="M102.72,69.89c-0.29,1.9,0.22,3.33,0.88,3.51c0.69,0.19,1.92-0.57,3.18-2.41c1.02-1.49,1.9-3.31-0.21-3.53
					C104.81,67.27,103.02,67.93,102.72,69.89z"/>
				<path class="st3" d="M86.95,69.89c0.29,1.9-0.22,3.33-0.88,3.51c-0.69,0.19-1.92-0.57-3.18-2.41c-1.02-1.49-1.9-3.31,0.21-3.53
					C84.86,67.27,86.65,67.93,86.95,69.89z"/>
			</g>
			<path class="st3" d="M98.67,54.81C83.7,52.91,83.11,61.11,84.11,68c0.09,0.45,0.19,0.9,0.31,1.36
				c2.56,9.95,6.93,14.92,10.48,14.92c3.4,0,8.2-5.93,10.48-14.92C107.14,62.37,105.92,55.72,98.67,54.81z"/>
			<polygon class="st9" points="92.09,89.04 95.67,100.03 89.8,91.09 			"/>
			<polygon class="st1" points="86.97,81.18 92.09,89.04 89.53,95.09 84.82,84.21 			"/>
			<polygon class="st9" points="98.7,87.44 95.67,100.03 100.22,90.94 			"/>
			<polygon class="st1" points="102.23,81.18 98.7,87.44 99.89,94.1 104.17,83.87 			"/>
			<g>
				<g>
					<g>
						<path class="st4" d="M93.57,67.26c-0.07,0-0.15-0.03-0.2-0.09c-0.11-0.11-0.1-0.29,0.01-0.4c0.55-0.53,1.13-0.79,1.72-0.74
							c0.87,0.06,1.41,0.74,1.43,0.77c0.1,0.12,0.07,0.3-0.05,0.39c-0.12,0.09-0.3,0.08-0.39-0.05c0,0-0.42-0.52-1.04-0.56
							c-0.42-0.03-0.85,0.17-1.29,0.59C93.71,67.23,93.64,67.26,93.57,67.26z"/>
					</g>
				</g>
				<g>
					<g>
						<path class="st4" d="M104.84,68c-0.19,0-0.36-0.01-0.46-0.02c-0.15-0.01-0.27-0.15-0.25-0.3c0.01-0.16,0.15-0.26,0.3-0.25
							c0.51,0.05,1.17-0.01,1.29-0.16c0.1-0.12,0.28-0.13,0.4-0.03c0.12,0.1,0.13,0.28,0.03,0.39C105.89,67.93,105.29,68,104.84,68z
							"/>
					</g>
				</g>
				<g>
					<g>
						<path class="st4" d="M84.84,68.08c-0.4,0-0.81-0.07-1.01-0.31c-0.1-0.12-0.08-0.29,0.04-0.39c0.12-0.1,0.29-0.08,0.39,0.04
							c0.11,0.12,0.75,0.14,1.33,0.03c0.17-0.03,0.3,0.07,0.33,0.22c0.03,0.15-0.07,0.3-0.22,0.33
							C85.54,68.02,85.2,68.08,84.84,68.08z"/>
					</g>
				</g>
				<g>
					<path class="st4" d="M100.46,71.14c-2.34,0-4.24-1.53-4.24-3.42c0-1.88,1.91-3.42,4.24-3.42c2.34,0,4.24,1.53,4.24,3.42
						C104.7,69.6,102.8,71.14,100.46,71.14z M100.46,64.86c-2.03,0-3.68,1.28-3.68,2.85c0,1.58,1.65,2.86,3.68,2.86
						c2.03,0,3.68-1.28,3.68-2.86C104.14,66.14,102.49,64.86,100.46,64.86z"/>
				</g>
				<g>
					<path class="st4" d="M89.61,71.14c-2.34,0-4.24-1.53-4.24-3.42c0-1.88,1.91-3.42,4.24-3.42c2.34,0,4.24,1.53,4.24,3.42
						C93.85,69.6,91.95,71.14,89.61,71.14z M89.61,64.86c-2.03,0-3.68,1.28-3.68,2.85c0,1.58,1.65,2.86,3.68,2.86
						c2.03,0,3.68-1.28,3.68-2.86C93.29,66.14,91.64,64.86,89.61,64.86z"/>
				</g>
			</g>
		</g>
	</g>
	<g>
		<path class="st1" d="M18.1,84.74l-0.2,2.85L6.11,86.74L5.9,89.69l-2.19-0.16l-0.09-5.84L18.1,84.74z"/>
		<path class="st1" d="M19.96,73.93l-0.61,2.79L7.81,74.2l-0.63,2.89l-2.14-0.47l0.74-5.79L19.96,73.93z"/>
		<path class="st1" d="M23.37,63.43l-1.01,2.68l-11.05-4.16l-1.04,2.77l-2.05-0.77l1.57-5.62L23.37,63.43z"/>
		<path class="st1" d="M25.07,48.62c1.47,0.81,2.41,1.83,2.82,3.07c0.41,1.23,0.27,2.49-0.44,3.76c-0.71,1.28-1.7,2.08-2.96,2.39
			c-1.27,0.31-2.63,0.06-4.1-0.75l-3.45-1.9c-1.46-0.81-2.4-1.83-2.82-3.07c-0.42-1.24-0.27-2.49,0.43-3.77
			c0.7-1.27,1.69-2.07,2.96-2.38c1.27-0.31,2.64-0.06,4.1,0.74L25.07,48.62z M19.98,49.07c-0.8-0.44-1.51-0.63-2.12-0.57
			c-0.61,0.06-1.07,0.37-1.37,0.91c-0.3,0.55-0.32,1.1-0.04,1.64c0.28,0.54,0.82,1.04,1.62,1.48l3.95,2.18
			c0.82,0.45,1.53,0.65,2.14,0.59c0.61-0.06,1.07-0.37,1.37-0.93c0.3-0.54,0.31-1.09,0.04-1.63c-0.27-0.54-0.82-1.04-1.64-1.5
			L19.98,49.07z"/>
		<path class="st1" d="M34.51,44.48l-1.73,2.28l-9.42-7.13l-1.79,2.36l-1.75-1.32l3.1-4.95L34.51,44.48z"/>
		<path class="st1" d="M40.35,30.73c1.18,1.19,1.79,2.44,1.84,3.74c0.05,1.3-0.45,2.46-1.48,3.48c-1.05,1.03-2.22,1.52-3.52,1.46
			c-1.3-0.06-2.54-0.68-3.72-1.88l-2.77-2.8c-1.17-1.19-1.78-2.44-1.84-3.74c-0.05-1.3,0.44-2.47,1.48-3.5
			c1.03-1.02,2.21-1.5,3.51-1.44c1.31,0.06,2.55,0.69,3.72,1.88L40.35,30.73z M35.34,29.73c-0.64-0.65-1.27-1.03-1.87-1.15
			c-0.6-0.11-1.13,0.05-1.57,0.49c-0.45,0.44-0.62,0.96-0.51,1.56c0.11,0.6,0.49,1.23,1.13,1.88l3.17,3.21
			c0.66,0.67,1.29,1.06,1.89,1.17c0.6,0.11,1.12-0.06,1.58-0.5c0.44-0.44,0.61-0.96,0.5-1.55c-0.11-0.6-0.49-1.23-1.15-1.9
			L35.34,29.73z"/>
		<path class="st1" d="M50.58,29.42l-2.3,1.7l-7.02-9.5l-2.38,1.76l-1.3-1.76l4.38-3.87L50.58,29.42z"/>
		<path class="st1" d="M60.02,17.91c0.79,1.48,1.03,2.85,0.71,4.11c-0.32,1.26-1.12,2.23-2.41,2.92c-1.29,0.7-2.56,0.83-3.79,0.41
			c-1.23-0.42-2.24-1.37-3.04-2.85l-1.87-3.47c-0.79-1.47-1.03-2.84-0.71-4.11c0.32-1.27,1.12-2.24,2.41-2.94
			c1.28-0.69,2.54-0.82,3.78-0.39c1.24,0.43,2.25,1.38,3.04,2.85L60.02,17.91z M55.49,15.53c-0.43-0.81-0.93-1.35-1.47-1.63
			c-0.55-0.28-1.09-0.27-1.64,0.02c-0.55,0.3-0.86,0.75-0.93,1.36c-0.06,0.61,0.12,1.32,0.56,2.12l2.13,3.97
			c0.44,0.83,0.94,1.38,1.48,1.65c0.54,0.28,1.09,0.27,1.65-0.04c0.55-0.29,0.86-0.74,0.92-1.35c0.07-0.61-0.12-1.32-0.57-2.14
			L55.49,15.53z"/>
		<path class="st1" d="M70.17,19.57l-2.69,0.98l-4.04-11.1l-2.78,1.01l-0.75-2.06l5.29-2.47L70.17,19.57z"/>
		<path class="st1" d="M82.58,11.2c0.34,1.64,0.18,3.02-0.5,4.14c-0.67,1.11-1.72,1.82-3.14,2.11c-1.44,0.3-2.68,0.06-3.74-0.69
			c-1.06-0.76-1.76-1.96-2.1-3.6L72.3,9.3c-0.34-1.64-0.17-3.02,0.5-4.14c0.67-1.12,1.72-1.83,3.15-2.12
			c1.42-0.29,2.67-0.06,3.73,0.71c1.06,0.76,1.77,1.96,2.1,3.6L82.58,11.2z M78.92,7.63c-0.18-0.9-0.5-1.56-0.95-1.98
			C77.53,5.22,77,5.08,76.4,5.2c-0.62,0.13-1.04,0.47-1.28,1.04c-0.23,0.56-0.26,1.3-0.07,2.19l0.91,4.42
			c0.19,0.92,0.51,1.59,0.95,2.01c0.44,0.42,0.97,0.57,1.6,0.44c0.61-0.13,1.03-0.47,1.27-1.03c0.24-0.56,0.26-1.3,0.07-2.22
			L78.92,7.63z"/>
		<path class="st1" d="M94.3,10.35c0.1,1.67-0.26,3.02-1.08,4.02c-0.82,1.01-1.96,1.55-3.41,1.64c-1.46,0.09-2.67-0.32-3.61-1.22
			c-0.94-0.9-1.46-2.19-1.56-3.86L84.4,7c-0.1-1.67,0.26-3.01,1.08-4.02c0.82-1.01,1.96-1.56,3.42-1.65
			c1.45-0.09,2.65,0.32,3.59,1.23c0.95,0.91,1.47,2.2,1.57,3.86L94.3,10.35z M91.19,6.29c-0.06-0.92-0.27-1.62-0.65-2.1
			c-0.38-0.48-0.88-0.71-1.5-0.67c-0.63,0.04-1.1,0.32-1.41,0.84c-0.31,0.52-0.44,1.24-0.39,2.16l0.27,4.5
			c0.06,0.93,0.27,1.64,0.65,2.12c0.38,0.48,0.88,0.7,1.52,0.66c0.62-0.04,1.09-0.32,1.4-0.84c0.31-0.52,0.44-1.25,0.39-2.19
			L91.19,6.29z"/>
		<path class="st1" d="M106.04,11.16c-0.14,1.67-0.68,2.95-1.64,3.83c-0.96,0.88-2.16,1.26-3.61,1.14c-1.46-0.12-2.6-0.69-3.4-1.72
			c-0.8-1.03-1.14-2.37-1-4.05l0.32-3.93c0.14-1.66,0.68-2.94,1.64-3.83c0.96-0.89,2.16-1.27,3.62-1.15
			c1.45,0.12,2.58,0.69,3.38,1.73c0.81,1.03,1.14,2.38,1.01,4.05L106.04,11.16z M103.53,6.7c0.07-0.91-0.04-1.64-0.35-2.17
			c-0.31-0.53-0.77-0.82-1.39-0.87c-0.63-0.05-1.13,0.16-1.52,0.63c-0.38,0.48-0.61,1.17-0.69,2.08l-0.37,4.5
			c-0.08,0.94,0.04,1.66,0.34,2.19c0.31,0.53,0.78,0.82,1.41,0.87c0.62,0.05,1.12-0.16,1.51-0.63c0.38-0.47,0.61-1.17,0.69-2.11
			L103.53,6.7z"/>
		<path class="st1" d="M117.54,13.64c-0.37,1.64-1.1,2.82-2.17,3.56c-1.07,0.74-2.32,0.94-3.74,0.61c-1.43-0.33-2.47-1.06-3.12-2.19
			c-0.65-1.13-0.79-2.51-0.41-4.15l0.88-3.84c0.37-1.63,1.1-2.81,2.17-3.56c1.08-0.74,2.32-0.95,3.75-0.62
			c1.42,0.33,2.45,1.06,3.1,2.19c0.65,1.14,0.79,2.52,0.41,4.15L117.54,13.64z M115.7,8.87c0.21-0.89,0.19-1.63-0.04-2.2
			c-0.23-0.57-0.65-0.92-1.25-1.06c-0.61-0.14-1.14,0-1.59,0.41c-0.45,0.41-0.77,1.07-0.98,1.96l-1.01,4.4
			c-0.21,0.91-0.2,1.65,0.03,2.22c0.23,0.57,0.65,0.92,1.27,1.06c0.61,0.14,1.13,0,1.58-0.41c0.45-0.41,0.77-1.08,0.98-1.99
			L115.7,8.87z"/>
		<path class="st1" d="M128.59,17.76c-0.61,1.56-1.5,2.63-2.66,3.2c-1.17,0.57-2.43,0.6-3.79,0.07c-1.37-0.53-2.29-1.4-2.77-2.61
			c-0.48-1.21-0.41-2.6,0.19-4.16l1.43-3.67c0.6-1.56,1.49-2.63,2.66-3.2c1.17-0.58,2.44-0.6,3.8-0.07c1.36,0.52,2.27,1.4,2.75,2.62
			c0.48,1.22,0.42,2.61-0.19,4.17L128.59,17.76z M127.46,12.78c0.33-0.85,0.43-1.58,0.28-2.18c-0.14-0.6-0.51-1.01-1.09-1.23
			c-0.59-0.23-1.13-0.17-1.63,0.18c-0.5,0.35-0.92,0.95-1.25,1.8l-1.63,4.2c-0.34,0.87-0.44,1.61-0.3,2.2c0.14,0.59,0.51,1,1.1,1.23
			c0.58,0.23,1.12,0.17,1.62-0.17c0.5-0.34,0.92-0.95,1.26-1.82L127.46,12.78z"/>
		<path class="st1" d="M133.98,26.58l-2.49-1.41l5.82-10.28l-2.57-1.46l1.08-1.91l5.32,2.42L133.98,26.58z"/>
		<path class="st1" d="M142.99,32.93l-2.26-1.75l7.23-9.34l-2.34-1.81l1.34-1.73l4.91,3.16L142.99,32.93z"/>
		<path class="st1" d="M151.02,40.51l-1.99-2.05l8.49-8.22l-2.06-2.12l1.58-1.53l4.41,3.83L151.02,40.51z"/>
		<path class="st1" d="M163.68,48.34c-1.36,0.98-2.68,1.4-3.97,1.25c-1.29-0.15-2.36-0.82-3.22-2c-0.86-1.19-1.16-2.42-0.91-3.7
			c0.26-1.28,1.07-2.41,2.42-3.39l3.19-2.31c1.35-0.98,2.68-1.4,3.97-1.25c1.3,0.15,2.37,0.82,3.23,2c0.85,1.18,1.15,2.41,0.89,3.69
			c-0.26,1.28-1.07,2.42-2.42,3.39L163.68,48.34z M165.44,43.54c0.74-0.54,1.22-1.1,1.42-1.68c0.2-0.58,0.12-1.12-0.24-1.63
			c-0.37-0.51-0.86-0.75-1.47-0.74c-0.61,0.02-1.29,0.29-2.03,0.83l-3.65,2.64c-0.76,0.55-1.24,1.11-1.44,1.69
			c-0.2,0.58-0.12,1.12,0.26,1.64c0.36,0.5,0.85,0.75,1.46,0.73c0.61-0.02,1.29-0.3,2.05-0.85L165.44,43.54z"/>
		<path class="st1" d="M163.41,58.65l-1.33-2.53l10.46-5.48l-1.37-2.62l1.94-1.02l3.15,4.92L163.41,58.65z"/>
		<path class="st1" d="M173.34,69.79c-1.58,0.56-2.97,0.58-4.16,0.06c-1.2-0.51-2.03-1.46-2.52-2.83c-0.49-1.38-0.42-2.65,0.18-3.8
			c0.61-1.15,1.7-2,3.29-2.56l3.72-1.31c1.58-0.55,2.96-0.57,4.17-0.06c1.2,0.51,2.04,1.46,2.53,2.84c0.48,1.37,0.42,2.64-0.2,3.79
			c-0.61,1.16-1.71,2.01-3.28,2.57L173.34,69.79z M176.39,65.69c0.86-0.3,1.48-0.71,1.84-1.2c0.36-0.5,0.44-1.04,0.23-1.63
			c-0.21-0.59-0.61-0.97-1.2-1.13c-0.59-0.16-1.32-0.08-2.18,0.22l-4.26,1.5c-0.88,0.31-1.51,0.71-1.86,1.21
			c-0.36,0.49-0.43,1.04-0.22,1.64c0.21,0.59,0.6,0.96,1.19,1.12c0.59,0.16,1.32,0.08,2.21-0.23L176.39,65.69z"/>
		<path class="st1" d="M170.13,79.58l-0.55-2.81l11.59-2.27l-0.57-2.9l2.15-0.42l1.62,5.61L170.13,79.58z"/>
	</g>
</g>
</svg>
