<?xml version="1.0" encoding="utf-8"?>
<!-- Generator: Adobe Illustrator 24.3.0, SVG Export Plug-In . SVG Version: 6.00 Build 0)  -->
<svg version="1.1" id="Layer_1" xmlns="http://www.w3.org/2000/svg" xmlns:xlink="http://www.w3.org/1999/xlink" x="0px" y="0px"
	 viewBox="0 0 70.23 26" style="enable-background:new 0 0 70.23 26;" xml:space="preserve">
<style type="text/css">
	.st0{fill:#375A64;}
	.st1{fill:#FFFFFF;}
</style>
<rect class="st0" width="70.23" height="26"/>
<g>
	<path class="st1" d="M19.19,6.45c0.09-0.17,0.24-0.28,0.45-0.35S20.12,6,20.45,6c0.32,0,0.58,0.03,0.77,0.08s0.34,0.12,0.44,0.2
		c0.1,0.08,0.18,0.19,0.23,0.33c0.06,0.19,0.08,0.48,0.08,0.87v9.3c0,0.26-0.01,0.45-0.03,0.58c-0.02,0.13-0.07,0.28-0.16,0.44
		c-0.16,0.3-0.59,0.45-1.31,0.45c-0.78,0-1.24-0.21-1.37-0.62c-0.07-0.19-0.1-0.48-0.1-0.87v-3.4h-4.44v3.42
		c0,0.26-0.01,0.45-0.02,0.58c-0.02,0.13-0.07,0.28-0.16,0.44c-0.16,0.3-0.59,0.45-1.31,0.45c-0.78,0-1.24-0.21-1.37-0.62
		c-0.07-0.19-0.1-0.48-0.1-0.87v-9.3c0-0.26,0.01-0.45,0.02-0.58c0.02-0.13,0.07-0.28,0.16-0.44C11.94,6.15,12.37,6,13.09,6
		c0.78,0,1.25,0.21,1.39,0.62c0.06,0.19,0.08,0.48,0.08,0.87v3.42h4.44V7.48c0-0.26,0.01-0.45,0.03-0.58
		C19.05,6.77,19.1,6.62,19.19,6.45z"/>
	<path class="st1" d="M24.12,5.98h9.32c0.36,0,0.62,0.04,0.79,0.13c0.17,0.08,0.28,0.21,0.33,0.39s0.08,0.41,0.08,0.7
		c0,0.29-0.03,0.52-0.08,0.7S34.4,8.2,34.27,8.26c-0.2,0.1-0.49,0.15-0.85,0.15h-3.2v8.43c0,0.26-0.01,0.45-0.02,0.57
		s-0.07,0.27-0.15,0.43c-0.08,0.16-0.23,0.28-0.44,0.34c-0.21,0.07-0.49,0.1-0.84,0.1c-0.35,0-0.62-0.03-0.83-0.1
		c-0.21-0.07-0.35-0.18-0.44-0.34c-0.08-0.16-0.13-0.31-0.15-0.44c-0.02-0.13-0.03-0.32-0.03-0.58V8.41H24.1
		c-0.36,0-0.62-0.04-0.79-0.13c-0.17-0.08-0.28-0.21-0.34-0.39c-0.06-0.18-0.08-0.41-0.08-0.7c0-0.29,0.03-0.52,0.08-0.7
		c0.06-0.17,0.15-0.29,0.29-0.36C23.46,6.03,23.75,5.98,24.12,5.98z"/>
	<path class="st1" d="M48.62,6.47c0.09,0.17,0.14,0.32,0.16,0.45s0.02,0.33,0.02,0.59v9.3c0,0.77-0.21,1.22-0.64,1.36
		c-0.21,0.07-0.48,0.1-0.8,0.1c-0.32,0-0.58-0.03-0.77-0.08c-0.19-0.06-0.33-0.12-0.44-0.2c-0.1-0.08-0.18-0.19-0.23-0.33
		c-0.06-0.19-0.08-0.48-0.08-0.87v-5.61c-0.28,0.35-0.69,0.9-1.22,1.65c-0.54,0.75-0.88,1.23-1.02,1.42
		c-0.15,0.19-0.25,0.32-0.3,0.39c-0.06,0.07-0.19,0.17-0.41,0.3c-0.22,0.13-0.45,0.19-0.7,0.19c-0.25,0-0.48-0.06-0.69-0.18
		s-0.35-0.23-0.44-0.34l-0.13-0.18c-0.22-0.28-0.67-0.87-1.32-1.78c-0.66-0.91-1.02-1.4-1.07-1.47v5.65c0,0.26-0.01,0.45-0.02,0.58
		c-0.02,0.13-0.07,0.27-0.16,0.43c-0.17,0.3-0.6,0.45-1.31,0.45c-0.68,0-1.11-0.15-1.27-0.45c-0.09-0.16-0.14-0.3-0.16-0.44
		c-0.02-0.13-0.03-0.34-0.03-0.6v-9.3c0-0.26,0.01-0.45,0.03-0.58c0.02-0.13,0.07-0.28,0.16-0.44c0.17-0.29,0.6-0.44,1.31-0.44
		c0.3,0,0.56,0.04,0.78,0.11s0.36,0.15,0.43,0.23l0.1,0.1l3.8,4.99c1.9-2.51,3.17-4.17,3.8-4.98c0.19-0.3,0.64-0.45,1.35-0.45
		C48.03,6.02,48.46,6.17,48.62,6.47z"/>
	<path class="st1" d="M53.11,15.8h4.56c0.37,0,0.64,0.04,0.8,0.13c0.17,0.08,0.28,0.22,0.33,0.39c0.06,0.18,0.08,0.42,0.08,0.71
		s-0.03,0.53-0.08,0.71c-0.06,0.18-0.15,0.3-0.29,0.37c-0.21,0.11-0.5,0.17-0.87,0.17h-6.03c-0.78,0-1.24-0.21-1.37-0.64
		c-0.07-0.18-0.1-0.46-0.1-0.85V7.48c0-0.26,0.01-0.45,0.03-0.58c0.02-0.13,0.07-0.28,0.16-0.44C50.48,6.15,50.92,6,51.63,6
		c0.78,0,1.25,0.21,1.39,0.62c0.06,0.19,0.08,0.48,0.08,0.87V15.8z"/>
</g>
</svg>
