<?xml version="1.0" encoding="utf-8"?>
<!-- Generator: Adobe Illustrator 24.3.0, SVG Export Plug-In . SVG Version: 6.00 Build 0)  -->
<svg version="1.1" id="Layer_1" xmlns="http://www.w3.org/2000/svg" xmlns:xlink="http://www.w3.org/1999/xlink" x="0px" y="0px"
	 viewBox="0 0 60.33 27" style="enable-background:new 0 0 60.33 27;" xml:space="preserve">
<style type="text/css">
	.st0{fill:#375A64;}
	.st1{fill:#FFFFFF;}
</style>
<g>
	<rect x="0.09" y="-0.07" class="st0" width="60.29" height="27.08"/>
</g>
<g>
	<path class="st1" d="M23.24,8.77c0.3,0.62,0.45,1.3,0.45,2.06c0,0.76-0.15,1.44-0.45,2.05c-0.3,0.61-0.69,1.1-1.17,1.46
		c-0.97,0.74-1.97,1.12-3,1.12h-2.18v1.97c0,0.27-0.01,0.47-0.03,0.6c-0.02,0.13-0.07,0.29-0.17,0.46
		c-0.16,0.31-0.62,0.47-1.36,0.47c-0.81,0-1.29-0.21-1.43-0.65c-0.07-0.2-0.1-0.5-0.1-0.91V7.72c0-0.27,0.01-0.47,0.03-0.6
		c0.02-0.13,0.07-0.29,0.17-0.46c0.16-0.31,0.62-0.47,1.36-0.47h3.74c1.02,0,2.02,0.37,2.98,1.12C22.55,7.66,22.94,8.15,23.24,8.77z
		 M20.11,11.98c0.34-0.26,0.51-0.64,0.51-1.15c0-0.51-0.17-0.9-0.51-1.16c-0.34-0.26-0.69-0.39-1.05-0.39h-2.18v3.09h2.2
		C19.43,12.36,19.78,12.24,20.11,11.98z"/>
	<path class="st1" d="M32.73,6.66c0.09-0.17,0.25-0.3,0.47-0.37s0.5-0.1,0.84-0.1s0.61,0.03,0.8,0.09c0.2,0.06,0.35,0.13,0.46,0.21
		c0.1,0.08,0.19,0.2,0.24,0.35c0.06,0.2,0.09,0.5,0.09,0.91v9.69c0,0.27-0.01,0.47-0.03,0.6s-0.07,0.29-0.17,0.46
		c-0.16,0.31-0.62,0.47-1.36,0.47c-0.81,0-1.29-0.21-1.43-0.65c-0.07-0.2-0.1-0.5-0.1-0.91v-3.54h-4.63v3.56
		c0,0.27-0.01,0.47-0.03,0.6c-0.02,0.13-0.07,0.29-0.17,0.46c-0.16,0.31-0.62,0.47-1.36,0.47c-0.81,0-1.29-0.21-1.43-0.65
		c-0.07-0.2-0.1-0.5-0.1-0.91V7.72c0-0.27,0.01-0.47,0.03-0.6c0.02-0.13,0.07-0.29,0.17-0.46c0.16-0.31,0.62-0.47,1.36-0.47
		c0.81,0,1.3,0.22,1.45,0.65c0.06,0.2,0.09,0.5,0.09,0.91v3.56h4.63V7.72c0-0.27,0.01-0.47,0.03-0.6
		C32.59,6.98,32.64,6.83,32.73,6.66z"/>
	<path class="st1" d="M46.47,8.77c0.3,0.62,0.45,1.3,0.45,2.06c0,0.76-0.15,1.44-0.45,2.05s-0.69,1.1-1.17,1.46
		c-0.97,0.74-1.97,1.12-3,1.12h-2.18v1.97c0,0.27-0.01,0.47-0.03,0.6s-0.07,0.29-0.17,0.46c-0.16,0.31-0.62,0.47-1.36,0.47
		c-0.81,0-1.29-0.21-1.43-0.65c-0.07-0.2-0.1-0.5-0.1-0.91V7.72c0-0.27,0.01-0.47,0.03-0.6c0.02-0.13,0.07-0.29,0.17-0.46
		c0.16-0.31,0.62-0.47,1.36-0.47h3.73c1.02,0,2.02,0.37,2.99,1.12C45.78,7.66,46.17,8.15,46.47,8.77z M43.35,11.98
		c0.34-0.26,0.51-0.64,0.51-1.15c0-0.51-0.17-0.9-0.51-1.16c-0.34-0.26-0.69-0.39-1.05-0.39h-2.18v3.09h2.2
		C42.67,12.36,43.01,12.24,43.35,11.98z"/>
</g>
</svg>
