<?xml version="1.0" encoding="utf-8"?>
<!-- Generator: Adobe Illustrator 24.3.0, SVG Export Plug-In . SVG Version: 6.00 Build 0)  -->
<svg version="1.1" id="Layer_1" xmlns="http://www.w3.org/2000/svg" xmlns:xlink="http://www.w3.org/1999/xlink" x="0px" y="0px"
	 viewBox="0 0 70.23 26" style="enable-background:new 0 0 70.23 26;" xml:space="preserve">
<style type="text/css">
	.st0{fill:#375A64;}
	.st1{fill:#FFFFFF;}
</style>
<rect y="0" class="st0" width="70.23" height="26"/>
<g>
	<path class="st1" d="M34.67,8.48c0.29,0.59,0.44,1.25,0.44,1.98c0,0.73-0.15,1.38-0.44,1.97c-0.29,0.59-0.67,1.05-1.12,1.4
		c-0.93,0.71-1.89,1.07-2.88,1.07h-2.09v1.89c0,0.26-0.01,0.45-0.03,0.58c-0.02,0.13-0.07,0.28-0.16,0.44
		c-0.16,0.3-0.59,0.45-1.31,0.45c-0.78,0-1.24-0.21-1.37-0.62c-0.07-0.19-0.1-0.48-0.1-0.87v-9.3c0-0.26,0.01-0.45,0.02-0.58
		c0.02-0.13,0.07-0.28,0.16-0.44C25.95,6.15,26.38,6,27.1,6h3.59c0.98,0,1.94,0.36,2.87,1.07C34.01,7.42,34.38,7.89,34.67,8.48z
		 M31.67,11.56c0.32-0.25,0.49-0.61,0.49-1.11c0-0.49-0.16-0.86-0.49-1.12c-0.32-0.25-0.66-0.38-1.01-0.38h-2.09v2.97h2.11
		C31.02,11.93,31.35,11.81,31.67,11.56z"/>
	<path class="st1" d="M36.38,16.56c-0.29-0.36-0.44-0.68-0.44-0.96s0.24-0.66,0.72-1.13c0.28-0.27,0.58-0.4,0.89-0.4
		c0.31,0,0.75,0.28,1.31,0.84c0.16,0.19,0.38,0.37,0.67,0.54c0.29,0.17,0.56,0.26,0.8,0.26c1.04,0,1.56-0.42,1.56-1.27
		c0-0.26-0.14-0.47-0.43-0.64c-0.28-0.17-0.64-0.3-1.06-0.38c-0.42-0.08-0.88-0.2-1.37-0.38c-0.49-0.17-0.95-0.38-1.37-0.61
		c-0.42-0.23-0.78-0.61-1.06-1.11c-0.29-0.51-0.43-1.12-0.43-1.83c0-0.98,0.37-1.84,1.1-2.57c0.73-0.73,1.73-1.1,2.99-1.1
		c0.67,0,1.28,0.09,1.83,0.26c0.55,0.17,0.94,0.35,1.15,0.53l0.42,0.32c0.35,0.32,0.52,0.6,0.52,0.82s-0.13,0.53-0.4,0.92
		C43.39,9.21,43,9.49,42.6,9.49c-0.24,0-0.53-0.11-0.87-0.33c-0.03-0.02-0.1-0.08-0.19-0.17c-0.09-0.09-0.18-0.16-0.26-0.22
		c-0.23-0.14-0.53-0.22-0.9-0.22s-0.67,0.09-0.91,0.26c-0.24,0.17-0.36,0.41-0.36,0.72c0,0.31,0.14,0.56,0.43,0.75
		s0.64,0.32,1.06,0.39c0.42,0.07,0.89,0.17,1.39,0.31s0.97,0.31,1.39,0.51s0.78,0.55,1.06,1.05s0.43,1.11,0.43,1.83
		s-0.14,1.37-0.44,1.92c-0.29,0.55-0.67,0.98-1.14,1.28c-0.9,0.59-1.87,0.89-2.9,0.89c-0.53,0-1.02-0.06-1.49-0.19
		c-0.47-0.13-0.85-0.29-1.14-0.48c-0.59-0.36-1.01-0.7-1.24-1.04L36.38,16.56z"/>
</g>
</svg>
