<?xml version="1.0" encoding="utf-8"?>
<!-- Generator: Adobe Illustrator 24.3.0, SVG Export Plug-In . SVG Version: 6.00 Build 0)  -->
<svg version="1.1" id="Layer_1" xmlns="http://www.w3.org/2000/svg" xmlns:xlink="http://www.w3.org/1999/xlink" x="0px" y="0px"
	 viewBox="0 0 70.23 26" style="enable-background:new 0 0 70.23 26;" xml:space="preserve">
<style type="text/css">
	.st0{fill:#FFFFFF;}
	.st1{font-family:'FredokaOne-Regular';}
	.st2{font-size:16.7576px;}
	.st3{fill:#375A64;}
</style>
<text transform="matrix(1 0 0 1 26.5544 18.2844)" class="st0 st1 st2">AI</text>
<rect y="0" class="st3" width="70.23" height="26"/>
<g>
	<path class="st0" d="M32.29,12.07l3.37,3.7c0.38,0.42,0.57,0.78,0.57,1.07c0,0.29-0.21,0.63-0.64,1.02
		c-0.43,0.39-0.79,0.59-1.09,0.59s-0.64-0.22-1.03-0.67l-3.18-3.65l-3.18,3.65c-0.4,0.45-0.75,0.67-1.03,0.67
		c-0.28,0-0.65-0.2-1.09-0.59s-0.66-0.73-0.66-1.01s0.2-0.64,0.59-1.07l3.37-3.7l-3.37-3.7c-0.39-0.41-0.59-0.77-0.59-1.06
		c0-0.29,0.22-0.63,0.65-1.03c0.44-0.4,0.8-0.59,1.1-0.59s0.64,0.22,1.03,0.67l3.18,3.65l3.18-3.65c0.4-0.45,0.75-0.67,1.03-0.67
		c0.29,0,0.65,0.2,1.08,0.59c0.44,0.39,0.65,0.74,0.65,1.04c0,0.3-0.19,0.65-0.57,1.06L32.29,12.07z"/>
	<path class="st0" d="M42.74,5.77c0.08-0.16,0.23-0.28,0.44-0.34c0.21-0.07,0.49-0.1,0.85-0.1c0.35,0,0.63,0.03,0.85,0.1
		c0.21,0.07,0.36,0.18,0.44,0.35s0.13,0.32,0.15,0.44c0.02,0.13,0.03,0.32,0.03,0.58v10c0,0.26-0.01,0.45-0.03,0.58
		c-0.02,0.13-0.07,0.27-0.16,0.43c-0.17,0.3-0.64,0.45-1.42,0.45s-1.21-0.27-1.3-0.82c-0.47,0.54-1.12,0.8-1.96,0.8
		c-1.01,0-1.92-0.44-2.75-1.32c-0.83-0.88-1.24-1.9-1.24-3.07c0-1.17,0.42-2.19,1.25-3.08s1.75-1.32,2.74-1.32
		c0.83,0,1.47,0.28,1.93,0.84V6.79c0-0.26,0.01-0.45,0.03-0.58C42.61,6.08,42.66,5.94,42.74,5.77z M40.02,14.88
		c0.29,0.3,0.64,0.45,1.06,0.45c0.41,0,0.76-0.15,1.03-0.45s0.41-0.63,0.41-1s-0.13-0.7-0.39-1.01c-0.26-0.31-0.62-0.47-1.06-0.47
		c-0.45,0-0.8,0.15-1.07,0.46c-0.27,0.31-0.4,0.65-0.4,1.01C39.58,14.25,39.73,14.58,40.02,14.88z"/>
</g>
</svg>
